<?xml version="1.0" encoding="utf-8"?>
<!-- Generator: Adobe Illustrator 27.6.1, SVG Export Plug-In . SVG Version: 6.00 Build 0)  -->
<svg version="1.1" xmlns="http://www.w3.org/2000/svg" xmlns:xlink="http://www.w3.org/1999/xlink" x="0px" y="0px"
	 viewBox="0 0 2362.01 963.79" enable-background="new 0 0 2362.01 963.79" xml:space="preserve">
<g id="Background" display="none">
	<rect x="-709" y="-699.95" display="inline" fill="#FFFFFF" width="3415" height="2500"/>
</g>
<g id="Illustration">
	<g>
		<defs>
			<rect id="SVGID_1_" x="0" y="0" width="2362.01" height="963.79"/>
		</defs>
		<clipPath id="SVGID_00000119840640474960017430000011758256547718943106_">
			<use xlink:href="#SVGID_1_"  overflow="visible"/>
		</clipPath>
		<g id="Cross-device_tracking_1_" clip-path="url(#SVGID_00000119840640474960017430000011758256547718943106_)">
			<g>
				<g display="none">
					<path display="inline" fill="#FFFFFF" d="M2106.72,83.27H618.44c-42.18,0-76.36,34.19-76.36,76.36v1100.28
						c0,42.18,34.19,76.36,76.36,76.36h1564.65V159.64C2183.09,117.46,2148.9,83.27,2106.72,83.27z"/>
					<path display="inline" d="M2183.09,1338.48H618.43c-43.32,0-78.57-35.25-78.57-78.57V159.64c0-43.32,35.25-78.57,78.57-78.57
						h1488.29c43.32,0,78.57,35.25,78.57,78.57v1176.65C2185.29,1337.5,2184.31,1338.48,2183.09,1338.48z M2180.89,1334.08V159.64
						c0-40.89-33.27-74.16-74.16-74.16H618.43c-40.89,0-74.16,33.27-74.16,74.16v1100.28c0,40.89,33.27,74.16,74.16,74.16"/>
				</g>
				<g>
					<rect x="15.92" y="147.42" fill="none" width="1045.45" height="712.98"/>
					<g>
						<path fill="#FFFFFF" d="M661.4,1273.52c-1.82,0-3.3-1.48-3.3-3.3v-186.73L372.38,797.77c-0.62-0.62-0.97-1.46-0.97-2.34
							V147.42c0-1.82,1.48-3.3,3.3-3.3s3.3,1.48,3.3,3.3v646.65l285.72,285.72c0.62,0.62,0.97,1.46,0.97,2.34v188.09
							C664.7,1272.04,663.22,1273.52,661.4,1273.52z"/>
						<path fill="#FFFFFF" d="M962.54,560.23H15.92c-1.82,0-3.3-1.48-3.3-3.3c0-1.82,1.48-3.3,3.3-3.3h943.32v-406.2
							c0-1.82,1.48-3.3,3.3-3.3c1.82,0,3.3,1.48,3.3,3.3v409.51C965.85,558.75,964.37,560.23,962.54,560.23z"/>
						<path fill="#FFFFFF" d="M1064.96,963.79c-0.85,0-1.69-0.32-2.34-0.97L659.07,559.26c-1.29-1.29-1.29-3.38,0-4.67
							c1.29-1.29,3.38-1.29,4.67,0l403.56,403.56c1.29,1.29,1.29,3.38,0,4.67C1066.65,963.47,1065.81,963.79,1064.96,963.79z"/>
					</g>
				</g>
				<g>
					<rect x="1071.57" y="147.42" fill="none" width="1045.45" height="712.98"/>
					<g>
						<path fill="#FFFFFF" d="M1717.05,1273.52c-1.82,0-3.3-1.48-3.3-3.3v-186.73l-285.72-285.72c-0.62-0.62-0.97-1.46-0.97-2.34
							V147.42c0-1.82,1.48-3.3,3.3-3.3c1.82,0,3.3,1.48,3.3,3.3v646.65l285.72,285.72c0.62,0.62,0.97,1.46,0.97,2.34v188.09
							C1720.35,1272.04,1718.87,1273.52,1717.05,1273.52z"/>
						<path fill="#FFFFFF" d="M2018.19,560.23h-946.62c-1.82,0-3.3-1.48-3.3-3.3c0-1.82,1.48-3.3,3.3-3.3h943.32v-406.2
							c0-1.82,1.48-3.3,3.3-3.3s3.3,1.48,3.3,3.3v409.51C2021.49,558.75,2020.01,560.23,2018.19,560.23z"/>
						<path fill="#FFFFFF" d="M2120.61,963.79c-0.84,0-1.69-0.32-2.34-0.97l-403.56-403.56c-1.29-1.29-1.29-3.38,0-4.67
							c1.29-1.29,3.38-1.29,4.67,0l403.56,403.56c1.29,1.29,1.29,3.38,0,4.67C2122.3,963.47,2121.45,963.79,2120.61,963.79z"/>
					</g>
				</g>
			</g>
			<g display="none">
				<g display="inline">
					<g>
						<g>
							<g>
								<path fill="#FFFFFF" d="M257.46,810.34h446.93c40.05,0,72.82-32.77,72.82-72.82v-933.96c0-40.05-32.77-72.82-72.82-72.82
									H257.46c-40.05,0-72.82,32.77-72.82,72.82v933.96C184.65,777.58,217.41,810.34,257.46,810.34z"/>
								<path d="M704.39,812.55H257.46c-41.37,0-75.02-33.65-75.02-75.02v-933.96c0-41.37,33.65-75.02,75.02-75.02h446.93
									c41.37,0,75.02,33.65,75.02,75.02v933.96C779.41,778.9,745.76,812.55,704.39,812.55z M257.46-267.04
									c-38.94,0-70.61,31.68-70.61,70.61v933.96c0,38.94,31.68,70.61,70.61,70.61h446.93c38.94,0,70.61-31.68,70.61-70.61v-933.96
									c0-38.94-31.68-70.61-70.61-70.61H257.46z"/>
							</g>
							<g>
								<path fill="#FFFFFF" d="M268.89,776.07h424.06c30.35,0,55.18-24.83,55.18-55.18v-903.66c0-30.35-24.83-55.18-55.18-55.18
									H268.89c-30.35,0-55.18,24.83-55.18,55.18v903.66C213.72,751.24,238.55,776.07,268.89,776.07z"/>
								<path d="M692.96,778.27H268.9c-31.64,0-57.38-25.74-57.38-57.38v-903.66c0-31.64,25.74-57.38,57.38-57.38h424.06
									c31.64,0,57.38,25.74,57.38,57.38v903.66C750.34,752.53,724.6,778.27,692.96,778.27z M268.9-235.75
									c-29.21,0-52.98,23.77-52.98,52.98v903.66c0,29.21,23.77,52.98,52.98,52.98h424.06c29.21,0,52.98-23.77,52.98-52.98v-903.66
									c0-29.21-23.77-52.98-52.98-52.98H268.9z"/>
							</g>
						</g>
						<g>
							<path fill="#E2EAFF" d="M617.24,627.81c0-30.8-24.97-55.76-55.76-55.76H400.37c-30.8,0-55.76,24.97-55.76,55.76
								c0,30.8,24.97,55.76,55.76,55.76h161.11C592.28,683.57,617.24,658.61,617.24,627.81z"/>
						</g>
						<g>
							<defs>
								
									<rect id="SVGID_00000117671462174425730130000007971904837626755232_" x="274.68" y="-20.03" width="412.5" height="504.66"/>
							</defs>
							<use xlink:href="#SVGID_00000117671462174425730130000007971904837626755232_"  overflow="visible" fill="#E2EAFF"/>
							<clipPath id="SVGID_00000018235013590315702540000017886229250241127329_">
								<use xlink:href="#SVGID_00000117671462174425730130000007971904837626755232_"  overflow="visible"/>
							</clipPath>
							<g clip-path="url(#SVGID_00000018235013590315702540000017886229250241127329_)">
								<path fill="#FFFFFF" d="M477.4,700.74c-1.82,0-3.3-1.48-3.3-3.3V545.01L240.66,311.57c-0.62-0.62-0.97-1.46-0.97-2.34
									v-529.84c0-1.82,1.48-3.3,3.3-3.3s3.3,1.48,3.3,3.3v528.47L479.74,541.3c0.62,0.62,0.97,1.46,0.97,2.34v153.79
									C480.71,699.26,479.23,700.74,477.4,700.74z"/>
								<path fill="#FFFFFF" d="M723.63,117.52H-50.36c-1.82,0-3.3-1.48-3.3-3.3c0-1.82,1.48-3.3,3.3-3.3h770.69v-331.52
									c0-1.82,1.48-3.3,3.3-3.3c1.82,0,3.3,1.48,3.3,3.3v334.83C726.93,116.04,725.46,117.52,723.63,117.52z"/>
								<path fill="#FFFFFF" d="M807.37,447.49c-0.85,0-1.69-0.32-2.34-0.97L475.07,116.56c-1.29-1.29-1.29-3.38,0-4.67
									c1.29-1.29,3.38-1.29,4.67,0l329.97,329.97c1.29,1.29,1.29,3.38,0,4.67C809.06,447.17,808.22,447.49,807.37,447.49z"/>
								<path fill="#FFFFFF" d="M95.26,700.74c-1.82,0-3.3-1.48-3.3-3.3V543.64c0-1.82,1.48-3.3,3.3-3.3H477.4
									c1.82,0,3.3,1.48,3.3,3.3c0,1.82-1.48,3.3-3.3,3.3H98.56v150.49C98.56,699.26,97.08,700.74,95.26,700.74z"/>
							</g>
						</g>
					</g>
				</g>
				<g display="inline">
					<path fill="#5479F7" d="M480.93-370.49c-84.01,0-152.12,68.11-152.12,152.12c0,146.51,152.12,300.79,152.12,300.79
						S633.05-73.26,633.05-218.37C633.05-302.38,564.94-370.49,480.93-370.49z M480.93-144.03c-39.15,0-70.88-31.74-70.88-70.88
						c0-39.15,31.74-70.88,70.88-70.88c39.15,0,70.88,31.73,70.88,70.88C551.81-175.77,520.07-144.03,480.93-144.03z"/>
				</g>
			</g>
			<g>
				<g display="none">
					<rect x="1718.53" y="713.03" display="inline" fill="#FFFFFF" width="653.42" height="314.2"/>
					<path display="inline" d="M2371.95,1029.43h-254.93c-1.22,0-2.2-0.98-2.2-2.2c0-1.22,0.99-2.2,2.2-2.2h252.73v-309.8h-252.73
						c-1.22,0-2.2-0.98-2.2-2.2c0-1.22,0.99-2.2,2.2-2.2h254.93c1.22,0,2.2,0.98,2.2,2.2v314.2
						C2374.15,1028.45,2373.17,1029.43,2371.95,1029.43z"/>
					<g display="inline">
						<path d="M2310.82,807.45h-169.96c-1.22,0-2.2-0.98-2.2-2.2c0-1.22,0.98-2.2,2.2-2.2h169.96c1.22,0,2.2,0.98,2.2,2.2
							C2313.02,806.47,2312.04,807.45,2310.82,807.45z"/>
						<path d="M2099.74,807.45h-88.27c-1.22,0-2.2-0.98-2.2-2.2c0-1.22,0.99-2.2,2.2-2.2h88.27c1.22,0,2.2,0.98,2.2,2.2
							C2101.94,806.47,2100.95,807.45,2099.74,807.45z"/>
						<path d="M2310.82,866.48h-50.07c-1.22,0-2.2-0.98-2.2-2.2c0-1.22,0.98-2.2,2.2-2.2h50.07c1.22,0,2.2,0.98,2.2,2.2
							C2313.02,865.49,2312.04,866.48,2310.82,866.48z"/>
						<path d="M2196.24,866.48h-184.78c-1.22,0-2.2-0.98-2.2-2.2c0-1.22,0.99-2.2,2.2-2.2h184.78c1.22,0,2.2,0.98,2.2,2.2
							C2198.44,865.49,2197.46,866.48,2196.24,866.48z"/>
						<path d="M2310.82,925.5h-140.68c-1.22,0-2.2-0.98-2.2-2.2c0-1.22,0.98-2.2,2.2-2.2h140.68c1.22,0,2.2,0.98,2.2,2.2
							C2313.02,924.52,2312.04,925.5,2310.82,925.5z"/>
						<path d="M2106.43,925.5h-94.97c-1.22,0-2.2-0.98-2.2-2.2c0-1.22,0.99-2.2,2.2-2.2h94.97c1.22,0,2.2,0.98,2.2,2.2
							C2108.63,924.52,2107.65,925.5,2106.43,925.5z"/>
					</g>
					<circle display="inline" fill="#5479F7" cx="1870.99" cy="867.46" r="84.38"/>
				</g>
				<g>
					<ellipse fill="#FFFFFF" cx="1711.7" cy="205.82" rx="81.47" ry="87.66"/>
					<path display="none" fill="#5479F7" d="M1714.19,50.29c-73.54,0-133.16,64.15-133.16,143.28c0,138,133.16,283.31,133.16,283.31
						s133.16-146.64,133.16-283.31C1847.35,114.44,1787.73,50.29,1714.19,50.29z M1714.19,263.58c-34.27,0-62.05-29.89-62.05-66.76
						c0-36.87,27.78-66.76,62.05-66.76c34.27,0,62.05,29.89,62.05,66.76C1776.23,233.69,1748.45,263.58,1714.19,263.58z"/>
					<g>
						<defs>
							<rect id="SVGID_00000026162091564530122090000005747407148404516779_" x="1558.92" y="0" width="327.12" height="524.52"/>
						</defs>
						<clipPath id="SVGID_00000098901569317700506480000009271625019760816543_">
							<use xlink:href="#SVGID_00000026162091564530122090000005747407148404516779_"  overflow="visible"/>
						</clipPath>
						<g clip-path="url(#SVGID_00000098901569317700506480000009271625019760816543_)">
							<g>
								<g>
									<g id="XMLID_1_">
										
											<linearGradient id="SVGID_00000103237247308938920220000005654463251163567548_" gradientUnits="userSpaceOnUse" x1="1578.0201" y1="235.3915" x2="1852.4781" y2="235.3915">
											<stop  offset="0" style="stop-color:#B685FF"/>
											<stop  offset="0.0559" style="stop-color:#AD8DFD"/>
											<stop  offset="0.1473" style="stop-color:#94A3F9"/>
											<stop  offset="0.2096" style="stop-color:#80B5F5"/>
											<stop  offset="0.3275" style="stop-color:#6DC6F1"/>
											<stop  offset="0.3279" style="stop-color:#6DC6F1"/>
											<stop  offset="0.4289" style="stop-color:#52DEEC"/>
											<stop  offset="0.559" style="stop-color:#4DDCEB"/>
											<stop  offset="0.6968" style="stop-color:#00BBDC"/>
											<stop  offset="0.9087" style="stop-color:#006577"/>
											<stop  offset="0.9617" style="stop-color:#006374"/>
											<stop  offset="0.9958" style="stop-color:#005B6C"/>
											<stop  offset="1" style="stop-color:#005A6A"/>
										</linearGradient>
										<path fill="url(#SVGID_00000103237247308938920220000005654463251163567548_)" d="M1833.83,97.41
											c24.72,43.03,24.93,94.63,0.21,137.66l-49.02,85.21l-53.49,92.91l-16.41,28.47l-16.41-28.69l-51.57-89.7
											c-0.43-2.36-1.7-4.28-3.41-5.78l-47.1-82c-24.93-43.03-24.72-94.41,0-137.45c24.93-43.25,69.26-68.94,118.7-68.94
											C1764.78,29.12,1809.11,54.59,1833.83,97.41z M1808.68,162.07c0-52.02-42.2-94.41-93.98-94.41
											c-51.79,0-93.98,42.39-93.98,94.41s42.2,94.41,93.98,94.41C1766.49,256.48,1808.68,214.09,1808.68,162.07z"/>
										
											<linearGradient id="SVGID_00000000921332777902706310000009447755260900599950_" gradientUnits="userSpaceOnUse" x1="1603.6732" y1="462.9688" x2="1826.1588" y2="462.9688">
											<stop  offset="0" style="stop-color:#B685FF"/>
											<stop  offset="0.0559" style="stop-color:#AD8DFD"/>
											<stop  offset="0.1473" style="stop-color:#94A3F9"/>
											<stop  offset="0.2096" style="stop-color:#80B5F5"/>
											<stop  offset="0.3275" style="stop-color:#6DC6F1"/>
											<stop  offset="0.3279" style="stop-color:#6DC6F1"/>
											<stop  offset="0.4289" style="stop-color:#52DEEC"/>
											<stop  offset="0.559" style="stop-color:#4DDCEB"/>
											<stop  offset="0.6968" style="stop-color:#00BBDC"/>
											<stop  offset="0.9087" style="stop-color:#006577"/>
											<stop  offset="0.9617" style="stop-color:#006374"/>
											<stop  offset="0.9958" style="stop-color:#005B6C"/>
											<stop  offset="1" style="stop-color:#005A6A"/>
										</linearGradient>
										<path fill="url(#SVGID_00000000921332777902706310000009447755260900599950_)" d="M1746.03,429.46
											c52.21,5.57,80.13,22.05,80.13,32.76c0,13.92-43.47,34.25-111.24,34.25c-67.77,0-111.24-20.12-111.24-34.25
											c0-10.92,27.7-27.83,80.34-32.76l22.16,38.54c1.7,3,5.11,5.14,8.95,5.14c3.62,0,7.03-2.14,8.74-5.14L1746.03,429.46z"/>
										
											<linearGradient id="SVGID_00000148630808270273627980000012243043584938721183_" gradientUnits="userSpaceOnUse" x1="1641.5833" y1="162.0487" x2="1787.8167" y2="162.0487">
											<stop  offset="0" style="stop-color:#B685FF"/>
											<stop  offset="0.0559" style="stop-color:#AD8DFD"/>
											<stop  offset="0.1473" style="stop-color:#94A3F9"/>
											<stop  offset="0.2096" style="stop-color:#80B5F5"/>
											<stop  offset="0.3275" style="stop-color:#6DC6F1"/>
											<stop  offset="0.3279" style="stop-color:#6DC6F1"/>
											<stop  offset="0.4289" style="stop-color:#52DEEC"/>
											<stop  offset="0.559" style="stop-color:#4DDCEB"/>
											<stop  offset="0.6968" style="stop-color:#00BBDC"/>
											<stop  offset="0.9087" style="stop-color:#006577"/>
											<stop  offset="0.9617" style="stop-color:#006374"/>
											<stop  offset="0.9958" style="stop-color:#005B6C"/>
											<stop  offset="1" style="stop-color:#005A6A"/>
										</linearGradient>
										
											<ellipse fill="url(#SVGID_00000148630808270273627980000012243043584938721183_)" cx="1714.7" cy="162.05" rx="73.1" ry="73.43"/>
										
											<linearGradient id="SVGID_00000067236703208030620850000013123045518211505028_" gradientUnits="userSpaceOnUse" x1="1278.469" y1="86.8134" x2="2152.6416" y2="86.8134">
											<stop  offset="0" style="stop-color:#B685FF"/>
											<stop  offset="0.0559" style="stop-color:#AD8DFD"/>
											<stop  offset="0.1473" style="stop-color:#94A3F9"/>
											<stop  offset="0.2096" style="stop-color:#80B5F5"/>
											<stop  offset="0.3275" style="stop-color:#6DC6F1"/>
											<stop  offset="0.3279" style="stop-color:#6DC6F1"/>
											<stop  offset="0.4289" style="stop-color:#52DEEC"/>
											<stop  offset="0.559" style="stop-color:#4DDCEB"/>
											<stop  offset="0.6968" style="stop-color:#00BBDC"/>
											<stop  offset="0.9087" style="stop-color:#006577"/>
											<stop  offset="0.9617" style="stop-color:#006374"/>
											<stop  offset="0.9958" style="stop-color:#005B6C"/>
											<stop  offset="1" style="stop-color:#005A6A"/>
										</linearGradient>
										<path display="none" fill="url(#SVGID_00000067236703208030620850000013123045518211505028_)" d="M2040.12,88.63
											c62.01,0,112.52,50.74,112.52,113.04s-50.51,113.04-112.52,113.04h-228.03l39.64-68.72
											c28.56-49.67,28.34-108.97-0.21-158.64s-79.49-79.21-136.39-79.21c-56.9,0-108.26,29.54-136.6,79.21
											c-28.34,49.67-28.34,108.76,0,158.43l39.64,68.94h-227.17c-62.01,0-112.52-50.53-112.52-113.04
											s50.51-113.25,112.52-113.25c2.77,0,5.54-1.28,7.46-3.21c1.92-1.93,2.98-4.92,2.77-7.71c-1.7-37.89,10.87-73,35.38-98.48
											c23.66-25.05,57.11-39.39,91.64-39.39c19.18,0,38.15,4.28,54.56,12.42c2.77,1.28,5.97,1.5,8.74,0.21
											c2.77-1.28,4.9-3.64,5.75-6.42c16.2-51.81,63.93-86.92,118.28-86.92c54.34,0,101.87,35.11,118.28,87.35
											c0.85,2.78,2.98,5.14,5.75,6.42s5.97,1.28,8.74-0.21c16.62-8.14,35.16-12.42,54.56-12.42c34.52,0,67.98,14.13,91.64,39.18
											c24.29,25.48,36.87,60.59,35.38,98.48c-0.21,2.78,0.85,5.57,2.77,7.71C2034.58,87.56,2037.35,88.63,2040.12,88.63z"/>
									</g>
								</g>
							</g>
						</g>
					</g>
				</g>
				<path d="M1718.53,642.77c-1.22,0-2.2-0.98-2.2-3.8V508.31c0,0.38,0.98-0.6,2.2-0.6s2.2,0.98,2.2,2.2v130.65
					C1720.73,641.78,1719.75,642.77,1718.53,642.77z"/>
			</g>
			<g display="none">
				<g display="inline">
					<g>
						<path fill="#FFFFFF" d="M91.17,411.71l117.01-3.72c0,0,76.74,860.09,89.27,991.64l29.15,31.53
							c9.22,9.98,2.15,26.16-11.44,26.16H127.43c-26.5,0-48.19-21.11-48.9-47.6L66.15,950.43c0,0-37.51,275.3-230.62,452.6
							l10.26,14.98c11.41,16.66-0.52,39.3-20.72,39.3h-29.18c-34.67,0-68.25-12.55-94.1-35.66c-23.13-20.68-49.22-51.19-67.34-93.62
							c-7.57-17.73-4.73-38.19,7.07-53.44c49.9-64.48,188.91-247.62,223.72-330.57C-92.11,842.41-97.61,582.49,0.76,417.96
							L91.17,411.71z"/>
						<path d="M315.17,1459.51H127.43c-27.9,0-50.35-21.85-51.1-49.74L64.55,972.45c-5.35,27.43-17.05,78.37-39.22,138.56
							c-30.52,82.85-87.69,200.66-186.89,292.36l9.18,13.4c5.83,8.51,6.43,19.04,1.62,28.17c-4.81,9.13-13.84,14.57-24.16,14.57
							h-29.18c-35.5,0-69.44-12.86-95.57-36.22c-29.62-26.48-52.46-58.23-67.9-94.4c-7.83-18.34-5.02-39.67,7.35-55.65
							c55.79-72.1,189.24-248.58,223.43-330.07c16.04-38.22,25.21-98.91,35.83-169.19c17.14-113.41,38.47-254.54,99.83-357.16
							c0.37-0.62,1.02-1.02,1.74-1.07l90.41-6.25c0.03,0,0.06,0,0.08,0l117.01-3.72c0.03,0,0.05,0,0.07,0
							c1.14,0,2.09,0.87,2.19,2.01c0.77,8.58,76.6,858.37,89.2,990.88l28.65,30.99c4.87,5.27,6.11,12.62,3.23,19.2
							C328.58,1455.43,322.34,1459.51,315.17,1459.51z M66.15,948.23c0.04,0,0.08,0,0.12,0c1.15,0.06,2.05,0.99,2.08,2.14
							l12.38,459.28c0.69,25.49,21.2,45.46,46.7,45.46h187.74c5.4,0,10.09-3.07,12.26-8.02c2.16-4.95,1.23-10.48-2.43-14.44
							l-29.15-31.53c-0.33-0.35-0.53-0.81-0.57-1.29c-12.09-126.91-84.87-942.34-89.09-989.58l-114.89,3.65l-89.22,6.17
							C-58.39,521.87-79.57,661.98-96.6,774.64c-10.67,70.57-19.88,131.51-36.13,170.23c-34.4,81.97-168.12,258.83-224.01,331.06
							c-11.39,14.72-13.99,34.34-6.78,51.22c15.18,35.56,37.65,66.8,66.78,92.85c25.32,22.63,58.22,35.1,92.63,35.1h29.18
							c8.65,0,16.23-4.57,20.26-12.22c4.04-7.65,3.53-16.49-1.36-23.62l-10.26-14.98c-0.62-0.91-0.48-2.13,0.33-2.87
							c99.43-91.29,156.65-209.14,187.15-291.93c33.05-89.73,42.68-158.66,42.78-159.35C64.12,949.04,65.06,948.23,66.15,948.23z"/>
					</g>
					<path d="M67.81,941.07c-1.21,0-2.19-0.98-2.2-2.19c-0.63-100.36-5.68-201.9-15.01-301.84l-35.35-7.45
						c-1.19-0.25-1.95-1.42-1.7-2.61c0.25-1.19,1.41-1.96,2.61-1.7l36.94,7.78c0.94,0.2,1.65,0.99,1.74,1.95
						c9.44,100.59,14.55,202.81,15.18,303.84c0.01,1.22-0.97,2.21-2.19,2.22C67.81,941.07,67.81,941.07,67.81,941.07z"/>
				</g>
				<g display="inline">
					<g>
						<path fill="#FFFFFF" d="M8.79,398.49c0,0-38.79,36.03-68.87,166.69c0,0,54.31-10.45,153.35,13.04
							c47.68,11.31,94.72-21.1,100.7-69.74c3.28-26.63,5.26-56.21,3.8-84.98l8.24,119.71c1.39,20.14,18.13,35.77,38.31,35.77
							c0,0-26.19-162.08-37.25-194.53L8.79,398.49z"/>
						<path d="M112.32,582.64c-6.53,0-13.09-0.75-19.56-2.29c-97.33-23.08-151.89-13.12-152.43-13.01c-0.73,0.14-1.48-0.1-2-0.64
							c-0.52-0.54-0.73-1.29-0.56-2.02c29.9-129.83,67.92-166.32,69.52-167.81c0.37-0.34,0.84-0.55,1.34-0.58l198.28-14.03
							c0.99-0.1,1.92,0.54,2.24,1.49c11,32.25,36.27,188.26,37.34,194.89c0.1,0.64-0.08,1.29-0.5,1.78
							c-0.42,0.49-1.03,0.77-1.68,0.77c-21.26,0-39.05-16.61-40.51-37.82l-4.57-66.42c-0.71,10.29-1.74,20.89-3.09,31.8
							c-2.92,23.69-15.84,45.11-35.45,58.76C146.41,577.44,129.47,582.64,112.32,582.64z M-25.05,560.72
							c26.21,0,66.41,2.92,118.82,15.35c22.22,5.26,45.7,0.82,64.41-12.19c18.59-12.93,30.83-33.22,33.6-55.68
							c3.8-30.82,5.07-59.29,3.78-84.59c-0.06-1.21,0.86-2.24,2.07-2.31c1.21-0.02,2.25,0.84,2.33,2.05l8.24,119.71
							c1.24,18.03,15.73,32.34,33.51,33.62c-3.39-20.77-25.85-157.13-36.21-189.91L9.77,400.62c-4.66,4.87-39.44,44.29-66.97,161.89
							C-52.13,561.84-41.27,560.72-25.05,560.72z"/>
					</g>
					<g>
						<path fill="#FFFFFF" d="M-115.63,448.15h50.03l32.47,26.58c0,0,42-18.57,51.96-7.5c9.96,11.07-6.52,20.84-20.37,20.84
							c-23.05,0-44.37,23.45-46.91,32.37l-10.47,39.85c0,0-46.82-16.73-60.35-27.88L-115.63,448.15z"/>
						<path d="M-58.94,562.48c-0.25,0-0.5-0.04-0.74-0.13c-1.92-0.69-47.33-16.99-61.01-28.26c-0.53-0.44-0.83-1.1-0.8-1.79
							l3.65-84.25c0.05-1.18,1.02-2.11,2.2-2.11h50.03c0.51,0,1,0.18,1.4,0.5l31.43,25.73c8.06-3.45,43.2-17.58,53.24-6.42
							c4.56,5.07,3.99,9.57,2.71,12.46c-3.36,7.55-15.21,12.06-24.72,12.06c-21.87,0-42.54,22.86-44.79,30.77l-10.46,39.8
							c-0.16,0.6-0.56,1.1-1.1,1.39C-58.23,562.39-58.58,562.48-58.94,562.48z M-117.04,531.37c12.27,9.38,47.34,22.61,56.59,26.01
							l9.86-37.51c2.88-10.13,24.96-34.01,49.04-34.01c8.94,0,18.41-4.32,20.69-9.44c1.11-2.5,0.47-5.02-1.95-7.72
							c-6.48-7.2-33.76,1.11-49.43,8.04c-0.76,0.33-1.64,0.22-2.29-0.31l-31.86-26.08h-47.13L-117.04,531.37z"/>
					</g>
					<g>
						<g>
							<path fill="#FFFFFF" d="M378.84,244.15l-6.53-31.23c0,0,85.85-127.65,106.44-125.15c20.59,2.5-10.44,39.9-15.6,47.43
								c0,0,17.91-6.89,15.43,11.28c0,0,14.15-4.3,14.6,11.58c0,0,14.43-4.52,10.66,19.45c-3.77,23.97-14.67,14.93-14.67,14.93
								l-42.98,77.74L378.84,244.15z"/>
							<path d="M446.19,272.38c-0.26,0-0.53-0.05-0.79-0.15l-67.34-26.02c-0.7-0.27-1.21-0.87-1.36-1.6l-6.53-31.23
								c-0.12-0.58,0-1.18,0.33-1.68c8.77-13.03,85.48-126.15,107.8-126.15c0.25,0,0.49,0.01,0.73,0.04
								c5.14,0.63,7.27,3.22,8.15,5.28c3.71,8.65-6.76,24.74-18.8,40.94c2.9-0.25,6.29,0.05,8.88,2.1c2.62,2.07,3.88,5.4,3.76,9.92
								c2.51-0.22,6.12-0.03,9.15,2.15c2.8,2.01,4.49,5.23,5.03,9.57c1.98-0.11,4.79,0.26,7.17,2.32c3.97,3.42,5.19,10.15,3.64,20
								c-1.6,10.16-4.76,16.2-9.4,17.95c-2.57,0.97-4.95,0.4-6.6-0.33l-41.89,75.77C447.72,271.96,446.97,272.38,446.19,272.38z
								 M380.75,242.53l64.44,24.9l42.05-76.05c0.32-0.57,0.87-0.98,1.52-1.1c0.64-0.12,1.31,0.05,1.82,0.47
								c0.01,0.01,2.26,1.8,4.51,0.92c1.71-0.66,4.83-3.42,6.58-14.5c1.62-10.27-0.29-14.35-2.17-15.98c-2.32-2-5.62-1.04-5.66-1.03
								c-0.65,0.21-1.37,0.09-1.94-0.31c-0.56-0.4-0.91-1.04-0.92-1.73c-0.12-4.16-1.26-7.05-3.39-8.58
								c-3.33-2.39-8.31-0.98-8.37-0.96c-0.72,0.21-1.5,0.05-2.07-0.43c-0.57-0.49-0.86-1.23-0.75-1.97
								c0.6-4.39-0.03-7.36-1.88-8.82c-2.89-2.3-8.62-0.86-10.58-0.11c-0.9,0.35-1.92,0.07-2.52-0.69c-0.6-0.76-0.63-1.81-0.09-2.61
								c0.65-0.95,1.7-2.36,3.01-4.11c6.03-8.1,22.06-29.6,18.78-37.24c-0.23-0.54-0.94-2.19-4.64-2.64
								c-0.15-0.02-0.31-0.03-0.47-0.03c-14.72,0-70.73,75.03-103.35,123.45L380.75,242.53z"/>
						</g>
						<path d="M440.43,157.73c-0.35,0-0.71-0.09-1.05-0.27c-1.07-0.58-1.47-1.92-0.89-2.98c4.5-8.3,11.66-15.15,20.14-19.29
							c1.1-0.53,2.42-0.08,2.94,1.01c0.53,1.09,0.08,2.41-1.01,2.94c-7.67,3.74-14.14,9.93-18.2,17.43
							C441.97,157.31,441.21,157.73,440.43,157.73z"/>
						<path d="M460.93,171.78c-0.27,0-0.54-0.05-0.8-0.15c-1.13-0.45-1.69-1.72-1.25-2.85c3.24-8.26,8.96-15.71,16.1-20.98
							c0.98-0.72,2.36-0.51,3.08,0.46c0.72,0.98,0.51,2.36-0.46,3.08c-6.48,4.78-11.67,11.55-14.62,19.05
							C462.64,171.25,461.81,171.78,460.93,171.78z"/>
						<path d="M475.81,178.31c-0.32,0-0.66-0.07-0.97-0.23c-1.09-0.54-1.54-1.86-1.01-2.95c3.32-6.76,8.31-12.65,14.44-17.02
							c0.99-0.71,2.37-0.48,3.07,0.51c0.71,0.99,0.48,2.37-0.51,3.07c-5.53,3.95-10.04,9.26-13.04,15.37
							C477.41,177.86,476.62,178.31,475.81,178.31z"/>
						<path d="M488.44,194.9c-0.29,0-0.59-0.06-0.88-0.18c-1.12-0.49-1.62-1.79-1.14-2.9l5.96-13.62c0.49-1.11,1.78-1.63,2.9-1.14
							c1.11,0.49,1.62,1.78,1.14,2.9l-5.96,13.62C490.1,194.41,489.29,194.9,488.44,194.9z"/>
					</g>
					<g>
						<path fill="#5479F7" d="M372.32,212.92c0,0,56.62,12.43,73.87,57.26c0,0-49.05,123.63-127.54,129.93
							c-78.5,6.3-111.02-55.52-111.02-55.52l11.85,53.9c0,0-191.92,2.11-235.83,16.77l-9.36-85.19c0,0-63.36,68.78-70.74,93.43
							l30.85,24.65c0,0-41.74,31.3-53.68,84.25c0,0-95.6-41.6-92.91-137.4s93.98-191.56,195.85-226.98
							c101.86-35.42,207.65-28.23,248.73-9.95c48.19,21.45,105.55,112.11,105.55,112.11L372.32,212.92z"/>
						<path d="M356.48,302.4c-0.8,0-1.58-0.44-1.97-1.21c-4.73-9.32-10.37-18.24-16.76-26.51c-0.74-0.96-0.57-2.34,0.4-3.09
							c0.96-0.75,2.34-0.57,3.09,0.4c6.56,8.48,12.35,17.64,17.2,27.21c0.55,1.08,0.12,2.41-0.97,2.96
							C357.15,302.33,356.81,302.4,356.48,302.4z"/>
						<path d="M205.64,341.86c-0.76,0-1.5-0.39-1.91-1.1c-14.97-25.87-31.61-51.13-49.47-75.11l-3.74,1.65
							c-1.13,0.49-2.41-0.02-2.9-1.13c-0.49-1.11,0.02-2.41,1.13-2.9l5.34-2.36c0.94-0.41,2.03-0.13,2.65,0.69
							c18.37,24.54,35.46,50.42,50.8,76.95c0.61,1.05,0.25,2.4-0.8,3.01C206.39,341.77,206.02,341.86,205.64,341.86z"/>
					</g>
				</g>
				<g display="inline">
					<g>
						<g>
							<path fill="#FFFFFF" d="M101.05-13.16c0,0,46.21,98.4,27.74,115.74c-11.82,11.1-34.79,11.1-34.79,11.1l-3.66,31.33
								l-52.99,8.1C37.34,153.11-7.6,7.08,101.05-13.16z"/>
							<path d="M37.34,155.31c-0.95,0-1.82-0.62-2.1-1.55c-1-3.25-24.18-80.28,6.14-130.4c12.51-20.67,32.45-33.68,59.27-38.68
								c0.99-0.17,1.97,0.32,2.4,1.23c4.8,10.22,46.34,100.36,27.25,118.28c-10.38,9.75-28.35,11.37-34.33,11.65l-3.44,29.43
								c-0.12,0.99-0.87,1.77-1.85,1.92l-52.99,8.1C37.56,155.31,37.45,155.31,37.34,155.31z M99.78-10.67
								C75.09-5.69,56.71,6.52,45.15,25.64c-26.8,44.3-9.55,112.98-6.22,125.01l49.42-7.55l3.47-29.66
								c0.13-1.11,1.07-1.95,2.19-1.95c0.22,0,22.25-0.14,33.28-10.5C141.21,87.9,112.81,17.44,99.78-10.67z"/>
						</g>
						<path d="M94.42,109.92c-1.21,0-2.19-0.97-2.2-2.18c-0.03-3.12,1.39-6.21,3.89-8.49c2.5-2.28,5.72-3.42,8.81-3.1
							c1.21,0.12,2.09,1.2,1.97,2.41c-0.12,1.21-1.21,2.07-2.41,1.97c-1.86-0.19-3.83,0.53-5.41,1.97c-1.57,1.44-2.47,3.33-2.45,5.2
							c0.01,1.21-0.97,2.21-2.18,2.22C94.43,109.92,94.42,109.92,94.42,109.92z"/>
						<path d="M77.84,73.68c-0.85,0-1.65-0.49-2.01-1.31c-2.29-5.15-7.8-8.74-13.44-8.74c-0.03,0-0.08,0-0.1,0
							c-1.21,0-2.19-0.98-2.2-2.19c-0.01-1.22,0.97-2.21,2.19-2.22c0.03,0,0.07,0,0.11,0c7.33,0,14.5,4.66,17.47,11.36
							c0.49,1.11-0.01,2.41-1.12,2.91C78.44,73.62,78.14,73.68,77.84,73.68z"/>
					</g>
					<path d="M-121.2,278.02c21.24,14.16,63.3,33.65,136.66,37.05c26.78,1.24,47.94-23.72,41.11-49.64
						c-0.21-0.79-0.44-1.58-0.69-2.38c-10.19-32.06-30.06-54.69,2.19-86.36c32.26-31.67,26.63-86.78,17.18-95.9
						c0,0-40.28-7.64-28.52-31.7C52.72,36.84,60,38.44,65.7,42.97c5.32,4.22,13.07,2.97,16.53-2.87
						c5.84-9.85,15.4-22.05,28.93-27.25c0,0,25.35-3.83,32.29-21.65c6.93-17.83-30.35-63.09-101.32-37.72
						c-70.96,25.37-63.4,78.19-69.29,99.16c-5.89,20.97-15.53,54.64-46.55,71.35s-44.13,38.17-36.62,74.98
						c5.44,26.68-4.02,43.43-13.54,53.07C-131.31,259.57-130.02,272.14-121.2,278.02z"/>
				</g>
			</g>
		</g>
		<g clip-path="url(#SVGID_00000119840640474960017430000011758256547718943106_)">
			<path fill="#FFFFFF" d="M2339.93,867.31l-3.11,7.34c-4.37,10.3-13.04,18.25-23.79,21.82l-43.86,14.55h-637.51l-38.47-11.59
				c-10.36-3.12-17.76-12.11-18.7-22.71l-1.62-18.19c-0.23-2.83,0.32-5.67,1.58-8.23l0,0c1.56-3.15,2.11-6.7,1.59-10.17l-3.42-22.72
				c-0.69-4.56,1.73-9.02,5.96-11l8.78-4.11c48.28-22.62,99.97-37.39,153.06-43.74l22.31-2.67l25.42-13.43
				c141.93-74.99,310.04-85.62,460.58-29.12l93.09,34.94l-5.05,43.47l5.88,29.83c1.06,5.37,1.59,10.83,1.59,16.3v8.3
				C2344.23,853.42,2342.77,860.61,2339.93,867.31z"/>
			
				<linearGradient id="SVGID_00000156577270672327770860000002855755947682148227_" gradientUnits="userSpaceOnUse" x1="1779.6848" y1="728.3953" x2="2245.2183" y2="728.3953">
				<stop  offset="0" style="stop-color:#000000"/>
				<stop  offset="0.1386" style="stop-color:#0D0D0D"/>
				<stop  offset="0.4373" style="stop-color:#222222"/>
				<stop  offset="0.7281" style="stop-color:#2F2F2F"/>
				<stop  offset="1" style="stop-color:#333333"/>
			</linearGradient>
			<path fill="url(#SVGID_00000156577270672327770860000002855755947682148227_)" d="M2244,733.25c1.73-0.89,1.58-3.38-0.25-4.06
				l-23.18-8.69c-133.1-49.91-313.3-47.99-440.89,48.14l311.04-10.58c36.11-1.23,72.13-4.28,107.92-9.15l0,0
				C2216.78,746.42,2235.7,737.53,2244,733.25z"/>
			<path fill="#444444" d="M2285.47,785.23c0,0-11.67,10.36,51.27,6.75l5.08-43.78C2341.81,748.2,2308.22,766.31,2285.47,785.23z"/>
			<path fill="#141414" d="M2289.23,790.58c5.97,1.82,19.18,3.02,47.5,1.4l1.59-13.7c0,0,2.85-17.95-13.21-11.18
				C2307.32,774.6,2289.23,790.58,2289.23,790.58z"/>
			<path fill="#848484" d="M1635.57,891.44l575.67-10.76l129.25-14.74c-0.18,0.46-0.37,0.92-0.56,1.37l-3.11,7.34
				c-4.37,10.3-13.04,18.24-23.79,21.81l-27.69,9.18c-10.71,3.55-21.94,5.36-33.24,5.36H1640.7c-6.01,0-11.98-0.88-17.72-2.61
				l-29.81-8.98c-7.55-2.27-13.52-7.64-16.58-14.51L1635.57,891.44z"/>
			<g>
				<path fill="#FFFFFF" d="M1653.44,798.15c0.68-0.49,0.41-1.53-0.43-1.64c-4.45-0.56-14.88-1.58-26.24-0.61
					c-11.63,0.99-29.13,9.44-36.49,13.24c-1.97,1.01-2.83,3.33-1.99,5.36l0.49,1.19c0.98,2.37,3.33,3.92,5.93,3.92h15.69
					c8.56,0,16.9-2.68,23.81-7.64L1653.44,798.15z"/>
				<path fill="#141414" d="M1590.45,809.06c7.44-3.83,24.78-12.17,36.33-13.16c4.62-0.39,9.08-0.46,13.05-0.36l-13.95,9.65
					c-5.43,3.76-11.71,6.16-18.3,7l-10.09,1.28c-1.88,0.24-3.76-0.49-4.97-1.93L1590.45,809.06z"/>
				<path fill="#141414" d="M1610.42,820.97h-15.69c-3.18,0-6.02-1.87-7.22-4.77l-0.5-1.2c-1.12-2.69,0.01-5.73,2.63-7.08l0.16-0.08
					l0,0c7.12-3.66,24.97-12.29,36.86-13.31c11.6-0.99,22.37,0.1,26.46,0.61c0.96,0.12,1.74,0.79,1.98,1.72
					c0.24,0.92-0.11,1.88-0.89,2.44l-19.15,13.76C1627.86,818.23,1619.34,820.97,1610.42,820.97z M1591.09,810.27l-0.15,0.08
					c-1.34,0.69-1.91,2.24-1.34,3.62l0.5,1.2c0.77,1.86,2.59,3.06,4.64,3.06h15.69c8.32,0,16.27-2.55,22.99-7.38l18.25-13.12
					c-4.62-0.53-14.35-1.35-24.76-0.47C1615.51,798.24,1598.07,806.68,1591.09,810.27L1591.09,810.27z"/>
			</g>
			<path fill="#444444" d="M1959.76,781.55l56.79-1.73c6.04-0.18,11.9-1.99,16.96-5.23l3.27-2.09l-57.05,1.68
				C1972.42,774.4,1965.4,776.99,1959.76,781.55L1959.76,781.55z"/>
			<path fill="#E0E0E0" d="M1608.44,853.31c-0.82,9.03-4.25,18.04-6.04,22.24c-0.68,1.59-2.36,2.52-4.1,2.27
				c-5-0.72-14.65-4.09-16.3-19.24c-0.33-2.98,1.43-5.8,4.24-6.94c3.73-1.52,12.8-2.15,18.17-2.4
				C1606.74,849.13,1608.65,851.04,1608.44,853.31z"/>
			<path fill="#848484" d="M1597.45,877.68c0.29,0.06,0.58,0.1,0.85,0.14c1.74,0.25,3.43-0.68,4.11-2.27
				c1.79-4.2,5.22-13.21,6.04-22.24c0.21-2.27-1.71-4.17-4.02-4.07c-1.49,0.07-3.26,0.17-5.12,0.31l0.01,0.08
				c1.14,8.97,0.61,18.06-1.56,26.84L1597.45,877.68z"/>
			<path fill="#444444" d="M1786.17,878.23c0-44.17-36.44-79.98-81.4-79.98c-44.96,0-81.4,35.81-81.4,79.98
				c0,11.53,2.49,22.48,6.96,32.38l1.32,0.39h147.39C1783.62,900.95,1786.17,889.91,1786.17,878.23z"/>
			<path fill="#444444" d="M2276.02,878.23c0-44.19-36.46-80.01-81.43-80.01c-44.97,0-81.43,35.82-81.43,80.01
				c0,11.68,2.55,22.72,7.13,32.78h148.61C2273.47,900.95,2276.02,889.91,2276.02,878.23z"/>
			<g>
				<path fill="#F7002A" d="M1811.13,760.24l12.39-14.67c1.74-2.06,4.33-3.26,7.06-3.26h11.03c4.68,0,8.61,3.46,9.12,8.03l0.82,7.33
					c0.22,1.99-0.23,3.99-1.29,5.69v0c-1.64,2.64-4.55,4.27-7.7,4.31c-11.83,0.16-40.21,0.45-39.59-0.46
					c0.61-0.9,4.93-4.25,6.73-5.62C1810.23,761.19,1810.71,760.74,1811.13,760.24z"/>
				<path fill="#FFFFFF" d="M1851.57,757.67l-0.82-7.33c-0.51-4.57-4.44-8.03-9.12-8.03h-11.03c-2.73,0-5.32,1.19-7.06,3.26
					l-12.39,14.67C1811.13,760.24,1834.31,757.33,1851.57,757.67z"/>
				<path fill="#141414" d="M1819.68,769.24c-17.21,0-17.51-0.56-17.93-1.31c-0.25-0.45-0.22-1.04,0.07-1.47
					c0.2-0.29,0.8-1.18,7.03-5.94c0.44-0.34,0.85-0.73,1.21-1.15l0,0l12.39-14.67c2.01-2.39,4.98-3.75,8.14-3.75h11.03
					c5.4,0,9.92,3.98,10.51,9.25l0.82,7.33c0.25,2.28-0.27,4.6-1.49,6.56c-1.91,3.06-5.22,4.92-8.88,4.97
					C1832.75,769.18,1825.31,769.24,1819.68,769.24z M1806.01,766.27c4.63,0.22,15.85,0.31,36.54,0.03c2.69-0.04,5.13-1.4,6.53-3.66
					c0.89-1.44,1.28-3.15,1.09-4.83l-0.82-7.33c-0.44-3.88-3.76-6.81-7.73-6.81h-11.03c-2.32,0-4.5,1.01-5.99,2.76l-12.39,14.67
					c-0.49,0.58-1.04,1.11-1.65,1.57C1808.59,764.18,1807.08,765.39,1806.01,766.27z"/>
			</g>
			<path d="M2252.6,912.39h-611.01c-6.74,0-13.42-0.98-19.87-2.93l-28.96-8.72c-10.96-3.3-18.68-12.68-19.68-23.9l-1.62-18.19
				c-0.25-3.09,0.35-6.18,1.72-8.95c1.44-2.92,1.95-6.16,1.46-9.37l-3.42-22.72c-0.78-5.19,1.93-10.18,6.74-12.44l8.78-4.11
				c48.51-22.73,100.15-37.49,153.49-43.87l22.05-2.64l25.19-13.31c142.4-75.24,310.7-85.88,461.74-29.19l87.04,32.67
				c4.16,1.56,6.71,5.68,6.2,10.03l-4.29,36.94l5.84,29.62c1.07,5.44,1.62,11.02,1.62,16.56v8.3c0,7.48-1.48,14.77-4.41,21.67
				l-3.11,7.34c-4.52,10.66-13.5,18.89-24.63,22.59l-28.17,9.35C2274.74,910.61,2263.74,912.39,2252.6,912.39z M2050.78,678.78
				c-90.41,0-180.45,21.8-261.98,64.87l-25.42,13.43c-0.15,0.08-0.32,0.13-0.49,0.15l-22.31,2.67
				c-53.04,6.34-104.39,21.02-152.63,43.62l-8.78,4.11c-3.7,1.73-5.78,5.58-5.19,9.56l3.42,22.72c0.57,3.76-0.03,7.55-1.71,10.97
				c-1.15,2.34-1.65,4.94-1.45,7.53l1.62,18.18c0.9,10.1,7.85,18.55,17.72,21.52l28.96,8.72c6.18,1.86,12.59,2.81,19.05,2.81h611.01
				c10.84,0,21.54-1.73,31.81-5.13l28.17-9.35c10.37-3.44,18.74-11.11,22.95-21.04l3.11-7.34c2.78-6.57,4.2-13.5,4.2-20.61v-8.3
				c0-5.37-0.53-10.77-1.57-16.04l-5.88-29.83c-0.03-0.14-0.03-0.28-0.02-0.42l4.32-37.15c0.36-3.1-1.46-6.04-4.43-7.15
				l-87.04-32.67C2184.41,690.66,2117.5,678.78,2050.78,678.78z"/>
			<g>
				<g>
					<ellipse cx="2194.59" cy="878.23" rx="72.64" ry="71.38"/>
					<ellipse fill="#E0E0E0" cx="2194.59" cy="878.23" rx="48.86" ry="48.01"/>
					<ellipse fill="#444444" cx="2194.59" cy="878.23" rx="39.21" ry="38.52"/>
				</g>
				<g>
					<ellipse cx="1704.77" cy="878.23" rx="72.64" ry="71.38"/>
					<ellipse fill="#E0E0E0" cx="1704.77" cy="878.23" rx="48.86" ry="48.01"/>
					<ellipse fill="#444444" cx="1704.77" cy="878.23" rx="39.21" ry="38.52"/>
				</g>
			</g>
		</g>
	</g>
</g>
</svg>
