<?xml version="1.0" encoding="utf-8"?>
<!-- Generator: Adobe Illustrator 27.6.1, SVG Export Plug-In . SVG Version: 6.00 Build 0)  -->
<svg version="1.1" id="Illustration_copy_2" xmlns="http://www.w3.org/2000/svg" xmlns:xlink="http://www.w3.org/1999/xlink"
	 x="0px" y="0px" viewBox="0 0 2342.62 405.93" enable-background="new 0 0 2342.62 405.93" xml:space="preserve">
<g>
	<defs>
		<rect id="SVGID_1_" x="0.5" width="2342.62" height="405.93"/>
	</defs>
	<clipPath id="SVGID_00000170981425797358316030000008777684936946990257_">
		<use xlink:href="#SVGID_1_"  overflow="visible"/>
	</clipPath>
	
		<g id="Money_transfer_00000151509307859509791140000005160453074365739397_" clip-path="url(#SVGID_00000170981425797358316030000008777684936946990257_)">
		<g>
			<path fill="#FFFFFF" d="M2191.58,265.13h-456.63c-9.29,0-17.72-5.45-21.6-13.96c-8.34-18.33-8.6-39.35-0.71-57.88l2.16-5.07
				c3.07-7.21,9.46-12.45,17.09-14.01l1.43-0.29c8.43-1.73,16.55-4.75,24.08-8.94l43.5-24.25c28.63-15.96,60.82-24.33,93.54-24.33
				h44.13c31.75,0,62.98,8.02,90.86,23.32l24.28,13.33c10.34,5.68,21.56,9.55,33.19,11.45l31.15,5.09
				c28.93,4.73,57.34,12.23,84.86,22.39l0.51,0.19c10.5,3.88,16.9,14.61,15.36,25.77l-3.67,26.56
				C2213.48,256.32,2203.43,265.13,2191.58,265.13z"/>
			<path d="M2050.35,165.4h-204.23c-14.25,0-28.43-2.21-42.21-6.57l-10.41-3.29l22.88-11.89c27.26-14.17,56.67-21.48,86.41-21.48
				h27.4c39.9,0,79.03,13.17,113.05,38.04L2050.35,165.4z"/>
			<path fill="#FFFFFF" d="M2004.78,167.19h17.63c4.19,0,7.58-3.39,7.58-7.58v-0.74c0-4.19-3.39-7.58-7.58-7.58h-17.63
				c-4.19,0-7.58,3.39-7.58,7.58v0.74C1997.19,163.79,2000.59,167.19,2004.78,167.19z"/>
			<path d="M2191.58,265.6h-456.63c-9.44,0-18.09-5.59-22.03-14.23c-8.38-18.41-8.65-39.65-0.71-58.27l2.16-5.07
				c3.13-7.35,9.65-12.7,17.43-14.29l1.43-0.29c8.39-1.72,16.45-4.71,23.94-8.89l43.5-24.25c28.63-15.96,61.05-24.39,93.77-24.39
				h44.13c31.73,0,63.23,8.09,91.09,23.38l24.28,13.33c10.32,5.67,21.43,9.5,33.03,11.4l31.15,5.09
				c28.89,4.72,57.47,12.26,84.94,22.41l0.51,0.19c10.64,3.93,17.22,14.98,15.66,26.28l-3.67,26.56
				C2213.92,256.56,2203.6,265.6,2191.58,265.6z M1894.44,116.86c-32.56,0-64.82,8.39-93.31,24.27l-43.5,24.25
				c-7.58,4.22-15.73,7.25-24.21,8.99l-1.43,0.29c-7.48,1.53-13.74,6.67-16.75,13.73l-2.16,5.07c-7.82,18.37-7.57,39.33,0.71,57.5
				c3.78,8.31,12.09,13.68,21.16,13.68h456.63c11.56,0,21.47-8.69,23.06-20.22l3.67-26.56c1.5-10.86-4.83-21.48-15.05-25.25
				l-0.51-0.19c-27.42-10.12-55.94-17.65-84.77-22.36l-31.15-5.09c-11.71-1.91-22.92-5.78-33.34-11.5l-24.28-13.33
				c-27.72-15.22-59.06-23.27-90.63-23.27H1894.44z"/>
			<g>
				<ellipse fill="#009DA5" cx="1811.75" cy="244.77" rx="48.59" ry="48.95"/>
				<ellipse fill="#FFFFFF" cx="1811.75" cy="244.77" rx="32.22" ry="32.46"/>
				<g>
					<ellipse fill="#FFFFFF" cx="1811.75" cy="244.77" rx="12.53" ry="12.62"/>
					<path d="M1811.75,257.86c-7.17,0-13-5.88-13-13.1c0-7.22,5.83-13.1,13-13.1c7.17,0,13,5.88,13,13.1
						C1824.75,251.99,1818.92,257.86,1811.75,257.86z M1811.75,232.63c-6.65,0-12.05,5.45-12.05,12.14
						c0,6.69,5.41,12.14,12.05,12.14c6.65,0,12.05-5.45,12.05-12.14C1823.8,238.07,1818.4,232.63,1811.75,232.63z"/>
				</g>
			</g>
			<g>
				<ellipse fill="#009DA5" cx="2121.61" cy="244.77" rx="48.59" ry="48.95"/>
				<ellipse fill="#FFFFFF" cx="2121.61" cy="244.77" rx="32.22" ry="32.46"/>
				<g>
					<ellipse fill="#FFFFFF" cx="2121.61" cy="244.77" rx="12.53" ry="12.62"/>
					<path d="M2121.61,257.86c-7.17,0-13-5.88-13-13.1c0-7.22,5.83-13.1,13-13.1c7.17,0,13,5.88,13,13.1
						C2134.62,251.99,2128.78,257.86,2121.61,257.86z M2121.61,232.63c-6.65,0-12.05,5.45-12.05,12.14
						c0,6.69,5.41,12.14,12.05,12.14c6.65,0,12.05-5.45,12.05-12.14C2133.67,238.07,2128.26,232.63,2121.61,232.63z"/>
				</g>
			</g>
		</g>
		<g>
			<g>
				<g>
					<path fill="#E2EAFF" d="M1062.9,221.47c0-10.22-8.5-18.5-18.98-18.5c-10.48,0-18.98,8.28-18.98,18.5s8.87,18.5,19.35,18.5
						C1054.77,239.97,1062.9,231.68,1062.9,221.47z"/>
					<path fill="#E2EAFF" d="M1118.29,221.47c0-10.22-8.13-18.5-18.61-18.5c-10.48,0-19.35,8.28-19.35,18.5s8.5,18.5,18.98,18.5
						S1118.29,231.68,1118.29,221.47z"/>
					<path fill="#E2EAFF" d="M1174.06,221.47c0-10.22-8.87-18.5-19.35-18.5c-10.48,0-18.98,8.28-18.98,18.5s8.5,18.5,18.98,18.5
						C1165.19,239.97,1174.06,231.68,1174.06,221.47z"/>
				</g>
			</g>
			<g>
				<path d="M1458.81,222.63h-222.93c-1.04,0-1.58-0.52-1.58-1.16c0-0.64,0.54-1.16,1.21-1.16h222.93c0.67,0,1.58,0.52,1.58,1.16
					C1460.02,222.11,1459.11,222.63,1458.81,222.63z"/>
			</g>
			<g>
				<path d="M964.97,222.63H742.04c-8.04,0-8.58-0.52-8.58-1.16c0-0.64,0.54-1.16,1.21-1.16h222.93c0.67,0,1.21,0.52,1.21,1.16
					C958.8,222.11,958.26,222.63,964.97,222.63z"/>
			</g>
			<path fill="#009DA5" d="M727.3,207c-7.53,0-13.64,7.4-13.64,14.75c0,7.35,6.47,11.87,14.01,11.87c7.53,0,13.27-5.96,13.27-13.31
				C740.93,212.96,734.83,207,727.3,207z"/>
			<path fill="#009DA5" d="M1470.55,208.16c-7.53,0-14.01,5.96-14.01,13.31c0,7.35,6.11,13.31,13.64,13.31s13.64-5.96,13.64-13.31
				C1483.82,214.12,1478.08,208.16,1470.55,208.16z"/>
		</g>
		<g>
			<g>
				<path fill="#FFFFFF" d="M471.75,122.05H191.57c-11.05,0-20,7.55-20,16.86v149.3c0,9.31,8.95,16.86,20,16.86h280.17
					c11.05,0,20-7.55,20-16.86v-149.3C491.75,129.6,482.79,122.05,471.75,122.05z"/>
				<rect x="171.57" y="166.56" width="320.17" height="27.67"/>
				<g>
					<rect x="201.62" y="221.84" fill="#FFFFFF" width="159.56" height="24.25"/>
					<path d="M361.18,246.65H201.62c-0.37,0-0.67-0.25-0.67-0.56v-24.25c0-0.31,0.3-0.56,0.67-0.56h159.56
						c0.37,0,0.67,0.25,0.67,0.56v24.25C361.85,246.4,361.55,246.65,361.18,246.65z M202.29,245.53h158.23V222.4H202.29V245.53z"/>
				</g>
				<g>
					<rect x="372.11" y="221.84" fill="#FFFFFF" width="89.37" height="24.25"/>
					<path d="M461.48,246.65h-89.37c-0.37,0-0.66-0.25-0.66-0.56v-24.25c0-0.31,0.3-0.56,0.66-0.56h89.37
						c0.37,0,0.66,0.25,0.66,0.56v24.25C462.15,246.4,461.85,246.65,461.48,246.65z M372.78,245.53h88.04V222.4h-88.04V245.53z"/>
				</g>
				<path d="M471.75,305.62H191.57c-11.4,0-20.67-7.81-20.67-17.42v-149.3c0-9.6,9.27-17.42,20.67-17.42h280.17
					c11.4,0,20.67,7.81,20.67,17.42v149.3C492.41,297.81,483.14,305.62,471.75,305.62z M191.57,122.61
					c-10.66,0-19.34,7.31-19.34,16.3v149.3c0,8.99,8.67,16.3,19.34,16.3h280.17c10.66,0,19.34-7.31,19.34-16.3v-149.3
					c0-8.99-8.67-16.3-19.34-16.3H191.57z"/>
			</g>
		</g>
	</g>
	<g display="none" clip-path="url(#SVGID_00000170981425797358316030000008777684936946990257_)">
		<g display="inline">
			<path d="M851.77,37.58c-1.05,0-1.98-0.75-2.17-1.82c-0.21-1.2,0.59-2.34,1.78-2.55c66.4-11.78,96.53-47.34,110.11-75.09
				c14.72-30.07,13.77-57.62,13.76-57.89c-0.05-1.22,0.89-2.24,2.11-2.29c1.2-0.04,2.24,0.89,2.29,2.11
				c0.05,1.17,1,28.95-14.2,60.01c-14.03,28.67-45.08,65.39-113.3,77.49C852.02,37.56,851.89,37.58,851.77,37.58z"/>
			<path d="M1150.53,37.58c-0.13,0-0.26-0.01-0.39-0.03c-68.22-12.1-99.27-48.82-113.3-77.49c-15.2-31.06-14.25-58.84-14.2-60.01
				c0.05-1.22,1.14-2.15,2.29-2.11c1.22,0.05,2.16,1.07,2.11,2.29c-0.01,0.28-0.94,27.99,13.84,58.07
				c13.6,27.68,43.73,63.15,110.03,74.91c1.2,0.21,2,1.36,1.78,2.55C1152.51,36.83,1151.58,37.58,1150.53,37.58z"/>
		</g>
		<path display="inline" d="M1249.19,148.47H753.11c-1.22,0-2.2-0.99-2.2-2.2s0.99-2.2,2.2-2.2h496.07c1.22,0,2.2,0.99,2.2,2.2
			S1250.4,148.47,1249.19,148.47z"/>
		<path display="inline" d="M1206.68,93.02H795.62c-1.22,0-2.2-0.99-2.2-2.2c0-1.22,0.99-2.2,2.2-2.2h411.05
			c1.22,0,2.2,0.99,2.2,2.2C1208.88,92.04,1207.89,93.02,1206.68,93.02z"/>
	</g>
	<g display="none" clip-path="url(#SVGID_00000170981425797358316030000008777684936946990257_)">
		<g display="inline">
			<polygon fill="#009DA5" points="1828.65,358.47 1798.63,249.34 1780.85,358.47 1590.8,358.47 1657.02,-66.52 1739.27,-82.13 
				1913.36,-46.47 2049.68,358.47 			"/>
			<path d="M1797.31,244.02c-0.79,0-1.47-0.49-1.59-1.17L1769.66,92.9c-2.63-11.82-10.24-22.5-21.42-30.01l-9.97-6.7
				c-0.7-0.47-0.81-1.33-0.26-1.92c0.55-0.59,1.57-0.69,2.26-0.22l9.97,6.7c11.79,7.92,19.81,19.17,22.59,31.69l26.06,150
				c0.13,0.75-0.48,1.44-1.36,1.55C1797.47,244.01,1797.39,244.02,1797.31,244.02z"/>
		</g>
	</g>
	<g display="none" clip-path="url(#SVGID_00000170981425797358316030000008777684936946990257_)">
		<g display="inline">
			<path fill="#FFFFFF" d="M53.8,327.6c0,0,25.07-103.45,156-212.51l-17.15-73.85l197.79-86.6c0,0,44.18,186.75,38.42,372.97H53.8z"
				/>
			<path d="M53.8,329.01c-0.11,0-0.22-0.01-0.33-0.04c-0.76-0.18-1.22-0.94-1.04-1.7c0.06-0.26,6.57-26.51,29.05-65.73
				c20.64-36.02,59.37-90.71,126.75-146.98l-16.96-73.01c-0.15-0.66,0.19-1.34,0.8-1.61l197.79-86.6c0.38-0.17,0.82-0.16,1.19,0.03
				c0.37,0.19,0.65,0.53,0.74,0.94c0.44,1.87,44.15,189.06,38.46,373.34c-0.03,0.78-0.68,1.38-1.45,1.36
				c-0.78-0.02-1.39-0.67-1.36-1.45c5.4-174.69-33.7-352.04-38-370.96L194.28,42.06l16.89,72.71c0.12,0.52-0.06,1.06-0.47,1.4
				c-67.42,56.16-106.11,110.74-126.71,146.65c-22.31,38.9-28.76,64.86-28.82,65.12C55.01,328.58,54.43,329.01,53.8,329.01z"/>
		</g>
		<g display="inline">
			<path fill="#009DA5" d="M136.82-139.92l84.55-55l83.31-4.35l85.75,29.68L435,43.72c0,0-178.86,19.66-244.15,55.24l-30.8-180.28
				L136.82-139.92z"/>
		</g>
	</g>
</g>
</svg>
