<?xml version="1.0" encoding="utf-8"?>
<!-- Generator: Adobe Illustrator 27.6.1, SVG Export Plug-In . SVG Version: 6.00 Build 0)  -->
<svg version="1.1" xmlns="http://www.w3.org/2000/svg" xmlns:xlink="http://www.w3.org/1999/xlink" x="0px" y="0px"
	 viewBox="0 0 2365.44 1316.97" enable-background="new 0 0 2365.44 1316.97" xml:space="preserve">
<g id="Background" display="none">
	<rect x="-381.89" y="-354.43" display="inline" fill="#FFFFFF" width="3415" height="2500"/>
</g>
<g id="Illustration_copy_2">
	<g id="Money_transfer_00000151509307859509791140000005160453074365739397_" display="none">
		<g>
			<g display="inline">
				<ellipse fill="#FFFFFF" cx="836.84" cy="676.39" rx="336.8" ry="328.98"/>
				<g>
					<path fill="#E2EAFF" d="M836.84,1006.96c-0.21,0-0.42-0.04-0.61-0.12c-0.59-0.24-59.93-24.17-118.44-76.61
						c-34.39-30.81-61.79-65.3-81.44-102.51c-24.58-46.53-37.04-97.44-37.04-151.34c0-53.52,12.46-104.2,37.04-150.64
						c19.65-37.14,47.05-71.65,81.44-102.58c58.51-52.64,117.84-76.99,118.44-77.23c0.39-0.16,0.84-0.16,1.23,0
						c0.59,0.23,59.93,24.01,118.44,76.36c34.39,30.77,61.79,65.24,81.44,102.48c24.58,46.56,37.04,97.57,37.04,151.61
						c0,53.63-12.46,104.38-37.04,150.85c-19.66,37.16-47.06,71.66-81.44,102.56c-58.51,52.58-117.84,76.8-118.44,77.04
						C837.26,1006.92,837.05,1006.96,836.84,1006.96z M836.84,349.13c-6.44,2.72-62.04,27.03-116.95,76.45
						c-53.54,48.19-117.35,130.82-117.35,250.82c0,120.85,63.82,203.44,117.35,251.43c54.9,49.22,110.49,73.15,116.94,75.83
						c6.44-2.71,62.04-26.9,116.94-76.26c53.54-48.13,117.35-130.74,117.35-251c0-121.19-63.81-203.76-117.35-251.68
						C898.88,375.57,843.29,351.79,836.84,349.13z"/>
					<path fill="#E2EAFF" d="M834.71,1006.96c-0.55,0-1.06-0.27-1.36-0.72c-0.25-0.37-24.92-37.63-49.24-96.63
						c-22.45-54.45-49.21-139.11-49.21-233.22c0-94.11,26.76-178.77,49.21-233.22c24.33-59,48.99-96.26,49.24-96.63
						c0.6-0.9,2.12-0.9,2.72,0c0.25,0.37,24.92,37.63,49.24,96.63c22.45,54.45,49.21,139.11,49.21,233.22
						c0,94.11-26.76,178.77-49.21,233.22c-24.33,59-48.99,96.26-49.24,96.63C835.77,1006.69,835.26,1006.96,834.71,1006.96z
						 M834.71,350.38c-5.49,8.64-26.67,43.23-47.62,94.05c-22.33,54.17-48.95,138.39-48.95,231.96
						c0,167.48,84.73,307.31,96.57,326.01c5.49-8.64,26.67-43.24,47.62-94.05c22.33-54.17,48.95-138.39,48.95-231.96
						c0-93.57-26.62-177.79-48.95-231.96C861.38,393.61,840.19,359.02,834.71,350.38z"/>
					<path fill="#E2EAFF" d="M1173.54,677.65H500.11c-0.9,0-1.62-0.71-1.62-1.59c0-0.88,0.73-1.59,1.62-1.59h673.43
						c0.9,0,1.62,0.71,1.62,1.59C1175.17,676.94,1174.44,677.65,1173.54,677.65z"/>
					<path fill="#E2EAFF" d="M1125.9,845.95H547.75c-0.9,0-1.62-0.71-1.62-1.59c0-0.88,0.73-1.59,1.62-1.59h578.15
						c0.9,0,1.62,0.71,1.62,1.59C1127.52,845.24,1126.8,845.95,1125.9,845.95z"/>
					<path fill="#E2EAFF" d="M1125.9,509.35H547.75c-0.9,0-1.62-0.71-1.62-1.59c0-0.88,0.73-1.59,1.62-1.59h578.15
						c0.9,0,1.62,0.71,1.62,1.59C1127.52,508.64,1126.8,509.35,1125.9,509.35z"/>
				</g>
				<path d="M836.84,1006.96c-186.61,0-338.42-148.29-338.42-330.57s151.82-330.57,338.42-330.57s338.42,148.29,338.42,330.57
					S1023.44,1006.96,836.84,1006.96z M836.84,348.99c-184.82,0-335.18,146.87-335.18,327.4s150.36,327.4,335.18,327.4
					s335.18-146.87,335.18-327.4S1021.65,348.99,836.84,348.99z"/>
			</g>
			<g display="inline">
				<g>
					<path fill="#5479F7" d="M665.02,417.56c0.02,38.76-71.8,124.08-71.8,124.08s-71.9-85.25-71.92-124.02
						c-0.02-38.76,32.14-70.2,71.82-70.22C632.82,347.39,665,378.8,665.02,417.56z"/>
					<ellipse fill="#FFFFFF" cx="593.17" cy="419.93" rx="35.93" ry="35.09"/>
				</g>
				<path d="M858.36,789.9c-0.01,0-0.02,0-0.03,0c-5.43-0.08-10.91-0.33-16.31-0.73c-0.89-0.07-1.56-0.83-1.49-1.7
					c0.07-0.87,0.82-1.53,1.74-1.46c5.33,0.4,10.75,0.64,16.11,0.72c0.9,0.01,1.61,0.73,1.6,1.61
					C859.97,789.2,859.25,789.9,858.36,789.9z M874.59,789.65c-0.86,0-1.58-0.66-1.62-1.51c-0.04-0.87,0.65-1.62,1.55-1.66
					c5.35-0.24,10.76-0.65,16.07-1.21c0.9-0.09,1.69,0.53,1.79,1.4c0.1,0.87-0.55,1.65-1.44,1.75c-5.38,0.57-10.85,0.98-16.27,1.23
					C874.64,789.65,874.62,789.65,874.59,789.65z M826.02,787.46c-0.07,0-0.15-0.01-0.23-0.02c-5.37-0.73-10.79-1.64-16.09-2.7
					c-0.88-0.18-1.44-1.01-1.27-1.87c0.18-0.86,1.04-1.41,1.92-1.24c5.24,1.04,10.59,1.94,15.89,2.67c0.89,0.12,1.51,0.92,1.38,1.79
					C827.52,786.89,826.82,787.46,826.02,787.46z M906.83,786.23c-0.78,0-1.46-0.54-1.6-1.32c-0.15-0.86,0.44-1.68,1.32-1.83
					c5.27-0.88,10.58-1.95,15.8-3.15c0.87-0.21,1.75,0.32,1.95,1.18c0.21,0.85-0.33,1.71-1.21,1.91c-5.28,1.22-10.66,2.3-15.99,3.19
					C907.01,786.22,906.92,786.23,906.83,786.23z M794.22,781.12c-0.14,0-0.28-0.02-0.42-0.06c-5.23-1.38-10.49-2.94-15.64-4.64
					c-0.85-0.28-1.3-1.18-1.02-2.01c0.29-0.83,1.21-1.27,2.06-0.99c5.09,1.68,10.29,3.22,15.45,4.58c0.87,0.23,1.38,1.1,1.14,1.94
					C795.59,780.66,794.93,781.12,794.22,781.12z M938.38,778.92c-0.7,0-1.34-0.44-1.55-1.12c-0.26-0.84,0.22-1.72,1.08-1.98
					c5.12-1.52,10.26-3.22,15.28-5.05c0.84-0.31,1.78,0.11,2.09,0.93c0.31,0.82-0.11,1.73-0.95,2.04
					c-5.08,1.85-10.28,3.57-15.47,5.11C938.7,778.9,938.54,778.92,938.38,778.92z M763.45,770.97c-0.2,0-0.41-0.04-0.61-0.12
					c-5.01-2-10.03-4.18-14.93-6.48c-0.81-0.38-1.15-1.33-0.76-2.12c0.39-0.79,1.36-1.12,2.17-0.74c4.83,2.28,9.79,4.43,14.74,6.41
					c0.83,0.33,1.23,1.26,0.89,2.07C764.7,770.59,764.09,770.97,763.45,770.97z M968.78,767.85c-0.62,0-1.22-0.35-1.49-0.94
					c-0.36-0.8,0-1.74,0.82-2.09c4.89-2.12,9.78-4.43,14.53-6.84c0.8-0.4,1.78-0.1,2.19,0.67c0.41,0.78,0.1,1.73-0.69,2.14
					c-4.81,2.44-9.76,4.77-14.71,6.92C969.22,767.8,969,767.85,968.78,767.85z M734.21,757.21c-0.27,0-0.54-0.07-0.79-0.2
					c-4.72-2.58-9.43-5.33-14.01-8.2c-0.76-0.47-0.98-1.45-0.49-2.19c0.48-0.74,1.49-0.95,2.24-0.48c4.52,2.83,9.18,5.55,13.84,8.1
					c0.78,0.43,1.06,1.39,0.62,2.16C735.33,756.91,734.78,757.21,734.21,757.21z M997.57,753.23c-0.55,0-1.09-0.28-1.39-0.77
					c-0.46-0.75-0.21-1.72,0.56-2.17c4.58-2.68,9.15-5.54,13.59-8.5c0.74-0.49,1.75-0.31,2.26,0.41c0.51,0.72,0.32,1.71-0.42,2.2
					c-4.49,3-9.12,5.89-13.75,8.6C998.14,753.16,997.85,753.23,997.57,753.23z M706.89,740.12c-0.33,0-0.67-0.1-0.95-0.3
					c-4.37-3.11-8.72-6.39-12.91-9.75c-0.69-0.56-0.79-1.55-0.22-2.23c0.57-0.68,1.59-0.78,2.28-0.22
					c4.14,3.32,8.44,6.57,12.76,9.64c0.73,0.52,0.89,1.51,0.36,2.21C707.89,739.89,707.39,740.12,706.89,740.12z M1024.36,735.35
					c-0.49,0-0.97-0.21-1.29-0.62c-0.55-0.69-0.42-1.69,0.29-2.22c4.22-3.19,8.42-6.56,12.47-10c0.67-0.57,1.7-0.51,2.29,0.15
					c0.59,0.66,0.52,1.66-0.16,2.24c-4.1,3.49-8.34,6.89-12.62,10.12C1025.06,735.25,1024.71,735.35,1024.36,735.35z M681.83,720.02
					c-0.39,0-0.79-0.14-1.1-0.42c-3.97-3.58-7.89-7.33-11.66-11.14c-0.62-0.63-0.6-1.63,0.04-2.24c0.64-0.61,1.67-0.59,2.3,0.04
					c3.73,3.77,7.61,7.47,11.53,11.01c0.66,0.59,0.7,1.6,0.09,2.24C682.7,719.85,682.26,720.02,681.83,720.02z M659.3,697.25
					c-0.46,0-0.91-0.19-1.23-0.55c-3.53-4.01-7-8.16-10.29-12.35c-0.55-0.69-0.41-1.69,0.3-2.22c0.72-0.53,1.73-0.4,2.28,0.29
					c3.26,4.14,6.68,8.25,10.18,12.21c0.59,0.66,0.51,1.66-0.17,2.24C660.05,697.12,659.68,697.25,659.3,697.25z M639.55,672.15
					c-0.52,0-1.03-0.24-1.34-0.69c-3.05-4.36-6.02-8.87-8.82-13.39c-0.46-0.75-0.22-1.72,0.55-2.18c0.77-0.45,1.77-0.21,2.23,0.54
					c2.77,4.47,5.7,8.92,8.72,13.24c0.51,0.72,0.32,1.71-0.42,2.2C640.19,672.06,639.87,672.15,639.55,672.15z M622.78,645.07
					c-0.58,0-1.14-0.31-1.43-0.84c-2.54-4.65-4.98-9.44-7.26-14.25c-0.38-0.79-0.02-1.74,0.79-2.11c0.82-0.37,1.78-0.02,2.16,0.77
					c2.25,4.75,4.67,9.49,7.18,14.09c0.42,0.77,0.12,1.73-0.67,2.14C623.3,645.01,623.03,645.07,622.78,645.07z M609.14,616.35
					c-0.64,0-1.25-0.38-1.51-1c-2-4.9-3.9-9.93-5.64-14.95c-0.29-0.83,0.17-1.73,1.02-2.01c0.85-0.28,1.77,0.16,2.06,0.99
					c1.72,4.97,3.59,9.94,5.57,14.79c0.33,0.81-0.07,1.74-0.91,2.06C609.54,616.31,609.34,616.35,609.14,616.35z M598.75,586.33
					c-0.71,0-1.36-0.46-1.56-1.16c-1.45-5.08-2.78-10.29-3.95-15.46c-0.19-0.85,0.36-1.7,1.24-1.89c0.87-0.19,1.74,0.35,1.94,1.21
					c1.16,5.12,2.48,10.26,3.91,15.29c0.24,0.84-0.27,1.72-1.13,1.95C599.05,586.31,598.9,586.33,598.75,586.33z"/>
				<ellipse fill="#5479F7" cx="1037.14" cy="723.69" rx="18.84" ry="18.4"/>
			</g>
		</g>
		<g>
			<g display="inline">
				<g>
					<path d="M883.12,573.24c0.18-12.53,0.43-25.49,4.33-37.28c3.37-10.2,9.37-19.17,10.97-29.96c1.73-11.72-2.3-23.31-8.48-30.86
						c-5.76-7.03-12.48-11.37-22.33-15.16c-15.85-6.11-41.11-15.84-69.09-8.97c-35.62,8.74-55.69,39.49-67.36,57.37
						c-24.78,37.97-16.28,50-50.31,120.62c-10.86,22.53-15.28,28.49-22.44,47.96c-3.37,9.17-27.74,75.48-7.71,90.63
						c0.27,0.2,1.3,1.4,3.13,1.8c7.76,1.71,17.5-14.58,44.42-18.88c44.43-7.1,63.12,34.67,131.43,37.11
						c11.12,0.4,22.77,0.2,33.14-6.68c24.19-16.05,18.15-60.14,18.56-88.39C881.96,652.77,882.54,613.01,883.12,573.24z"/>
				</g>
			</g>
			<g display="inline">
				<path fill="#FFFFFF" d="M1019.22,1229.35l-77.6-301.6l-205.97,40.91c-64.35,83.08-75.26,191.14-75.07,260.69H1019.22z"/>
				<path d="M1019.22,1230.52c-0.54,0-1.02-0.35-1.16-0.89c-6.47-25.09-13.18-51.26-20.02-77.93
					c-19.2-74.91-39.05-152.35-57.78-222.04c-9.23,1.77-18.48,3.54-27.75,5.31c-57.94,11.08-117.86,22.55-176.21,34.75
					c-48.22,61.93-73.29,149.28-74.52,259.64c-0.01,0.65-0.55,1.15-1.21,1.16c-0.66-0.01-1.19-0.54-1.19-1.18
					c0.58-52.23,6.45-99.63,17.44-140.89c12.46-46.77,31.91-87.3,57.84-120.49c0.17-0.22,0.42-0.38,0.7-0.43
					c58.52-12.24,118.59-23.74,176.69-34.85c9.64-1.84,19.25-3.68,28.85-5.52c0.61-0.12,1.23,0.25,1.39,0.85
					c18.81,69.98,38.77,147.84,58.07,223.13c6.84,26.67,13.55,52.84,20.02,77.93c0.16,0.63-0.23,1.26-0.87,1.42
					C1019.42,1230.51,1019.32,1230.52,1019.22,1230.52z"/>
				<path d="M861.5,1229.14c-0.63,0-1.16-0.48-1.2-1.1c-0.4-6.31-0.94-16.41-1.47-26.18c-0.53-9.83-1.08-19.99-1.48-26.32
					c-0.26-4.13-0.54-8.26-0.82-12.39c-0.55-8.13-1.12-16.53-1.52-24.81c-0.79-16.44,8-31.39,22.41-38.09
					c4.97-2.31,10.12-4.47,15.1-6.56c2.49-1.04,4.98-2.09,7.46-3.16c0.61-0.26,1.31,0.01,1.58,0.6c0.27,0.59-0.01,1.28-0.61,1.54
					c-2.48,1.07-4.98,2.12-7.48,3.16c-4.96,2.08-10.08,4.23-15.01,6.52c-13.53,6.29-21.79,20.37-21.04,35.86
					c0.4,8.25,0.97,16.65,1.52,24.76c0.28,4.13,0.56,8.27,0.82,12.4c0.4,6.34,0.95,16.51,1.48,26.34
					c0.53,9.77,1.08,19.87,1.47,26.16c0.04,0.65-0.46,1.2-1.12,1.24C861.55,1229.14,861.53,1229.14,861.5,1229.14z"/>
			</g>
			<g display="inline">
				<g>
					<path fill="#FFFFFF" d="M785.06,561.82l-30.5,102.23c0,0,58.22,70.06,102.09,67.3c43.87-2.76,35.7-51.25,3.01-66.3l-31.91-9.02
						l9.52-80.14L785.06,561.82z"/>
				</g>
				<g>
					<g>
						<path fill="#FFFFFF" d="M877.28,540.63c2.21,11.76,2.27,24.15-1.8,35.43c-4.07,11.28-12.64,21.33-24.08,25.61
							c-9.92,3.7-21.27,2.81-31.07-1.18c-9.8-4-18.14-10.9-24.95-18.86c-10.46,3.63-23.21-0.6-29.24-9.71
							c-3.48-5.26-4.7-12.24-1.86-17.85c2.84-5.61,10.31-8.96,16.11-6.29c3.3,1.52,5.65,4.63,9.01,6.02
							c3.75,1.55,8.22,0.63,11.6-1.58c3.38-2.22,5.81-5.57,7.74-9.07c6.1-11.01,7.91-24.22,5.01-36.41
							c0.27,1.15,6.54,2.89,7.66,3.26c2.81,0.93,5.7,1.61,8.64,2.06c5.78,0.88,11.71,0.82,17.48-0.16c2.92-0.5,5.81-1.23,8.61-2.2
							c2.22-0.77,5.1-2.82,7.47-2.85c4.95-0.05,6.42,8.76,7.62,12.16C873.69,526.08,875.89,533.26,877.28,540.63z"/>
						<path d="M837.9,605.17c-5.98,0-12.16-1.21-18.05-3.61c-8.95-3.65-17.32-9.9-24.88-18.58c-10.76,3.31-23.73-1.18-29.86-10.44
							c-4.04-6.1-4.78-13.38-1.93-19.01c3.28-6.47,11.54-9.67,17.69-6.83c1.72,0.79,3.17,1.96,4.57,3.08
							c1.45,1.16,2.81,2.26,4.4,2.91c3.11,1.28,7.12,0.72,10.47-1.48c2.75-1.8,5.09-4.55,7.36-8.65c5.94-10.73,7.73-23.7,4.9-35.58
							c0,0,0,0,0-0.01c-0.15-0.63,0.25-1.26,0.9-1.41c0.57-0.13,1.15,0.17,1.37,0.68c0.38,0.34,1.78,1.03,6.17,2.37
							c0.34,0.1,0.61,0.19,0.77,0.24c2.71,0.9,5.55,1.57,8.44,2.01c5.66,0.86,11.41,0.81,17.09-0.16c2.88-0.49,5.71-1.21,8.41-2.15
							c0.7-0.24,1.52-0.65,2.38-1.08c1.8-0.89,3.66-1.82,5.47-1.84c0.02,0,0.04,0,0.06,0c4.96,0,6.82,6.51,8.06,10.82
							c0.23,0.82,0.44,1.55,0.65,2.13c2.96,8.44,4.9,15.37,6.11,21.8l0,0c2.53,13.48,1.91,25.61-1.85,36.03
							c-4.45,12.34-13.72,22.18-24.79,26.31C847.5,604.37,842.77,605.17,837.9,605.17z M795.36,580.45c0.35,0,0.69,0.15,0.92,0.42
							c7.45,8.71,15.69,14.94,24.49,18.53c10.12,4.13,21.12,4.55,30.18,1.17c10.42-3.89,19.16-13.2,23.38-24.9
							c3.62-10.04,4.21-21.75,1.75-34.83l0,0c-1.18-6.31-3.1-13.13-6.02-21.46c-0.21-0.61-0.44-1.39-0.69-2.26
							c-1.04-3.63-2.61-9.11-5.75-9.11c-0.01,0-0.02,0-0.03,0c-1.26,0.01-2.86,0.81-4.41,1.58c-0.94,0.46-1.82,0.9-2.67,1.2
							c-2.83,0.98-5.79,1.74-8.8,2.25c-5.94,1.01-11.95,1.06-17.87,0.16c-3.02-0.46-5.99-1.17-8.84-2.11
							c-0.15-0.05-0.4-0.13-0.72-0.22c-2.1-0.64-3.66-1.16-4.81-1.64c2.09,11.65,0.06,24.06-5.7,34.46
							c-2.46,4.45-5.04,7.46-8.13,9.48c-4.01,2.63-8.89,3.28-12.74,1.69c-1.91-0.79-3.47-2.05-4.99-3.26
							c-1.35-1.08-2.62-2.1-4.07-2.78c-4.93-2.27-11.85,0.47-14.52,5.75c-2.44,4.81-1.73,11.37,1.79,16.7
							c5.7,8.62,17.93,12.68,27.83,9.24C795.09,580.47,795.23,580.45,795.36,580.45z M814.9,506.45
							C814.9,506.46,814.9,506.46,814.9,506.45L814.9,506.45C814.9,506.46,814.9,506.46,814.9,506.45z"/>
					</g>
					<g>
						<path fill="#FFFFFF" d="M777.69,562.57c5.84-0.29,11.69,3.15,14.17,8.31L777.69,562.57z"/>
						<path d="M791.86,572.05c-0.45,0-0.88-0.25-1.09-0.67c-2.29-4.76-7.62-7.9-13.02-7.64c-0.67,0.03-1.22-0.47-1.26-1.11
							c-0.03-0.65,0.48-1.2,1.14-1.23c6.32-0.31,12.62,3.38,15.31,8.98c0.28,0.59,0.02,1.28-0.58,1.56
							C792.2,572.01,792.03,572.05,791.86,572.05z"/>
					</g>
				</g>
			</g>
			<g display="inline">
				<g>
					<path fill="#5479F7" d="M705.48,991.37c-21.46-10.92-35.03-32.34-45.3-53.73c-24.15-50.28-35.87-106.01-35.69-161.55
						c0.09-27.54,3.59-56.52,20.08-78.86c17.84-24.18,48.35-36.75,78.54-41.19c12.16-1.79,25.07-2.35,36.28,2.58
						c14.57,6.41,23.44,20.68,34.42,32.02c12.76,13.19,29.23,22.93,47.12,27.86c11.42,3.15,25.21,3.93,32.67-6.77
						c3.34-4.79,4.38-10.71,3.59-16.45c-1.64-12.05-9.71-21.34-17.54-30.23c15.03-2.37,30.49,3.49,42.36,12.8
						c11.87,9.31,20.65,21.8,28.65,34.45c24.45,38.66,43.24,80.56,58.28,123.56c5.32,15.21,10.24,31.11,8.55,47.1
						c-1.92,18.09-5.36,35.35-19.03,47.7c-4.42,3.99-8.63,7.57-12.3,10.58c-6.98,5.72-16.11,8.11-25.14,6.9
						c-49.68-6.68-169.84,31.36-180,39.41C745.7,999.65,722.6,1000.08,705.48,991.37z"/>
					<path d="M754.56,843.54c-0.51,0-0.98-0.32-1.14-0.82l-23.74-72.77c-0.2-0.62,0.15-1.27,0.78-1.47c0.63-0.2,1.31,0.14,1.51,0.76
						l23.74,72.77c0.2,0.62-0.15,1.27-0.78,1.47C754.81,843.52,754.68,843.54,754.56,843.54z"/>
					<path d="M922.33,815.62c-0.59,0-1.1-0.42-1.19-1c-2.97-20.19-8.07-40.15-15.17-59.32c-0.22-0.61,0.1-1.28,0.72-1.5
						c0.62-0.22,1.31,0.09,1.53,0.7c7.15,19.32,12.29,39.44,15.29,59.79c0.09,0.64-0.36,1.23-1.02,1.33
						C922.44,815.62,922.38,815.62,922.33,815.62z"/>
					<path d="M694.29,889.86c-0.35,0-0.69-0.15-0.93-0.43c-0.42-0.5-0.35-1.24,0.17-1.65c12.85-10.3,27-19.02,42.05-25.93
						c0.6-0.28,1.31-0.02,1.59,0.56c0.28,0.59,0.02,1.28-0.58,1.56c-14.87,6.82-28.85,15.44-41.54,25.62
						C694.83,889.77,694.56,889.86,694.29,889.86z"/>
				</g>
				<g>
					<path fill="#FFFFFF" d="M762.59,970.3c0.83,2.66,2.02,5.66,4.73,6.53c2.14,0.69,4.73,0.21,6.47-1.17
						c37.38-29.78,67.19-48.96,111.47-67.57c5.63-2.36-3.26,21.64,28.76,0.21c5.05-3.38,0.83-13.47-5.21-14.46
						c5-0.69,9.26-4.9,9.9-9.79c0.64-4.89-2.41-10.01-7.07-11.9c4.84,0.88,9.34-3.83,9.57-8.63s-2.67-9.25-6.18-12.62
						c13.39,6.35,32.16,24.85,42.78,12.38c2.84-12.63-6.21-19.36-16.25-27.8c-10.04-8.44-23.13-12.62-36.15-15.02
						c-28.95-5.32-59.11-2.67-87.4,5.33c-24.9,7.04-48.61,18.11-70.6,31.45c-5.41,3.28-7.21,3.99-7.29,10.07
						c-0.09,6.53,1.87,13.71,2.91,20.15c2.17,13.41,4.8,26.74,7.88,39.97C754.27,941.86,758.16,956.16,762.59,970.3z"/>
					<path d="M886.05,908.77c-0.51,0-0.98-0.32-1.14-0.82c-0.2-0.62,0.15-1.27,0.78-1.47l12.8-3.99c0.63-0.2,1.31,0.14,1.51,0.76
						c0.2,0.62-0.15,1.27-0.78,1.47l-12.8,3.99C886.29,908.75,886.17,908.77,886.05,908.77z"/>
				</g>
				<g>
					<path fill="#FFFFFF" d="M925.7,919.91c0.2,8.25,2.62,17.08,9.28,22.15c8.57,6.52,20.86,4.67,31.31,1.74
						c49.57-13.92,94.28-40.76,119.98-84.43c1.06-1.8,10.49-23.88,6.63-28.86c-3.63-4.69-12.66,4.22-18.55,5.42
						c-25.53,5.23-50.72,12.03-75.37,20.33c-12.67,4.27-25.21,8.93-37.57,13.99c-9.45,3.87-17.5,4.91-23.82,13.28
						C929.73,893.96,925.38,906.96,925.7,919.91z"/>
					<path d="M966.29,944.97c-0.52,0-1-0.33-1.15-0.85c-0.18-0.62,0.18-1.27,0.82-1.45c54.78-15.38,96.03-44.39,119.27-83.88
						c1.51-2.56,9.93-23.42,6.72-27.57c-0.4-0.52-0.3-1.25,0.23-1.64c0.53-0.39,1.28-0.29,1.68,0.23
						c4.69,6.04-6.42,29.93-6.55,30.15c-23.56,40.03-65.3,69.41-120.69,84.97C966.51,944.96,966.4,944.97,966.29,944.97z"/>
					<path d="M1119.32,788.29h-91.13c-1.94,0-3.78,0.87-4.98,2.36l-73.47,91.27c-3.26,4.06-0.31,10,4.98,10h87.98
						c1.9,0,3.69-0.83,4.9-2.26l76.62-91.27C1127.61,794.36,1124.67,788.29,1119.32,788.29z"/>
					<path fill="#FFFFFF" d="M1080.58,800.03c-1.1-0.98-2.66-1.94-3.97-1.26c-1.14,0.6-1.35,2.08-1.42,3.34
						c-0.73,12.36-1.45,24.71-2.18,37.07c0.15-11.05-2.79-22.48-10.12-30.9c-1.8-2.07-4.99-4.03-7.12-2.28
						c-1.28,1.05-1.38,2.92-1.31,4.56c0.63,13.87,6.31,28.21,1.32,41.21c-0.89-8.26-2.9-16.41-5.97-24.16
						c-1.26-3.18-2.81-6.44-5.65-8.42c-2.84-1.98-7.31-2.09-9.44,0.61c-2.26,2.87-0.86,6.95,0.38,10.36
						c3.6,9.87,5.12,20.46,4.45,30.92c-1.38-8.17-3.1-16.98-9.34-22.59c-1.83-1.64-4.09-2.97-6.56-3.16
						c-2.48-0.2-5.16,0.94-6.23,3.13c-1.18,2.41-0.21,5.23,0.58,7.79c3.04,9.85,2.97,20.56,0.02,30.43
						c-2.22,7.4-11.71,17.36-1.67,23.13c3.45,1.98,7.7,2.14,11.66,1.58c11.19-1.57,20.91-8.16,29.65-15.15
						c8.93-7.14,17.4-14.97,23.92-24.27c6.51-9.3,11-20.19,11.33-31.45C1093.23,819.25,1089.09,807.65,1080.58,800.03z"/>
				</g>
			</g>
		</g>
		<g>
			<g display="inline">
				<g>
					
						<ellipse transform="matrix(5.637541e-03 -1 1 5.637541e-03 645.8906 2295.1616)" fill="#FFFFFF" cx="1477.01" cy="822.81" rx="126.47" ry="129.63"/>
					<path d="M1477.05,950.88c-59.34,0-113.29-39.59-127.69-98.31c-8.16-33.27-2.55-67.64,15.8-96.79
						c18.34-29.14,47.22-49.57,81.32-57.52c70.39-16.41,141.35,26.12,158.19,94.79l0,0c8.16,33.27,2.55,67.64-15.8,96.79
						c-18.34,29.14-47.22,49.57-81.32,57.52C1497.34,949.74,1487.11,950.88,1477.05,950.88z M1476.98,697.91
						c-9.82,0-19.79,1.11-29.75,3.43c-33.25,7.75-61.42,27.67-79.31,56.1c-17.89,28.42-23.36,61.94-15.41,94.39
						c16.42,66.98,85.64,108.44,154.28,92.44c33.25-7.75,61.42-27.67,79.31-56.1c17.89-28.42,23.36-61.94,15.41-94.39
						C1587.47,736.53,1534.85,697.91,1476.98,697.91z"/>
				</g>
				<g>
					
						<ellipse transform="matrix(5.635546e-03 -1 1 5.635546e-03 645.8936 2295.1633)" fill="#FFFFFF" cx="1477.01" cy="822.81" rx="99.43" ry="101.92"/>
					<path d="M1477.04,923.84c-46.81,0-89.37-31.23-100.73-77.55c-6.43-26.24-2.01-53.36,12.46-76.35
						c14.47-22.99,37.25-39.1,64.15-45.37c55.52-12.94,111.51,20.6,124.79,74.77l0,0c6.43,26.24,2.01,53.36-12.46,76.35
						c-14.47,22.99-37.25,39.1-64.15,45.37C1493.05,922.94,1484.98,923.84,1477.04,923.84z M1476.99,724.95
						c-7.69,0-15.51,0.87-23.31,2.69c-26.05,6.07-48.12,21.68-62.14,43.95c-14.01,22.27-18.3,48.53-12.07,73.95
						c12.87,52.48,67.1,84.97,120.87,72.43c26.05-6.07,48.12-21.68,62.14-43.95c14.01-22.27,18.3-48.53,12.07-73.95
						C1563.56,755.21,1522.33,724.95,1476.99,724.95z"/>
				</g>
				<g>
					<path fill="#5479F7" d="M1487.74,891.07l-4.04-16.47c-9.73,2.1-20.48,1.5-27.33-1.21l1.33-11.86
						c6.98,2.51,16.43,3.58,25.79,1.4c11.87-2.77,18.25-11.32,15.97-20.62c-2.2-8.97-10.07-12.99-23.64-15
						c-18.65-2.55-31.02-7.59-34.49-21.78c-3.32-13.53,4.02-26.11,18.8-32.14l-4.04-16.47l10.36-2.41l3.88,15.82
						c10.11-2.01,17.6-1,23.13,0.64l-1.54,11.74c-3.99-1.14-11.72-3.13-22.42-0.64c-12.87,3-15.87,11.63-14.28,18.15
						c2.08,8.48,9.3,11.28,25.28,13.76c18.89,2.84,29.66,9.29,33.22,23.8c3.16,12.88-3.08,27.09-19.61,33.88l4.16,16.96
						L1487.74,891.07z"/>
				</g>
			</g>
			<g>
				<g display="inline">
					
						<ellipse transform="matrix(1 -7.862974e-03 7.862974e-03 1 -4.9009 9.3103)" fill="#FFFFFF" cx="1181.61" cy="627.94" rx="110.68" ry="107.99"/>
					<path d="M1181.65,737.51c-3.74,0-7.51-0.18-11.32-0.56c-29.85-2.93-56.73-17.02-75.71-39.68
						c-18.98-22.66-27.77-51.18-24.76-80.3c6.22-60.11,61.44-104.1,123.01-98.06c29.85,2.93,56.73,17.02,75.71,39.68
						c18.98,22.66,27.77,51.18,24.76,80.3C1287.51,695.3,1238.56,737.51,1181.65,737.51z M1181.57,521.53
						c-55.27,0-102.8,40.99-108.47,95.77c-2.93,28.28,5.61,55.97,24.04,77.97c18.43,22.01,44.54,35.69,73.52,38.53
						c3.69,0.36,7.36,0.54,10.99,0.54c55.28,0,102.8-40.99,108.47-95.76v0c2.93-28.28-5.61-55.97-24.04-77.97
						c-18.43-22.01-44.54-35.69-73.52-38.53C1188.87,521.71,1185.2,521.53,1181.57,521.53z"/>
				</g>
				<g display="inline">
					
						<ellipse transform="matrix(1 -7.844250e-03 7.844250e-03 1 -4.8893 9.2881)" fill="#FFFFFF" cx="1181.61" cy="627.94" rx="87.02" ry="84.9"/>
					<path d="M1181.64,714.42c-2.95,0-5.93-0.14-8.93-0.44c-23.56-2.31-44.78-13.43-59.76-31.32
						c-14.98-17.89-21.92-40.4-19.54-63.38c4.91-47.45,48.48-82.17,97.09-77.4c23.56,2.31,44.78,13.43,59.76,31.32
						c14.98,17.89,21.92,40.4,19.54,63.38C1265.19,681.11,1226.56,714.42,1181.64,714.42z M1181.58,544.62
						c-43.28,0-80.5,32.09-84.93,74.99c-2.29,22.14,4.39,43.82,18.82,61.06c14.43,17.23,34.87,27.95,57.57,30.17
						c2.89,0.28,5.76,0.42,8.6,0.42c43.28,0,80.5-32.09,84.93-74.99c2.29-22.14-4.39-43.82-18.82-61.06
						c-14.43-17.23-34.87-27.95-57.56-30.17C1187.29,544.76,1184.42,544.62,1181.58,544.62z"/>
				</g>
				<g display="inline">
					<path fill="#5479F7" d="M1170.79,684.86l1.46-14.12c-8.3-0.96-16.64-4.32-21.29-8.3l4.41-9.03c4.81,3.86,11.99,7.25,20.02,8.04
						c10.18,1,17.65-4.06,18.47-12.03c0.8-7.69-4.3-12.99-14.47-18.23c-14.04-7.03-22.41-14.35-21.15-26.51
						c1.2-11.61,10.57-19.59,23.97-20.39l1.46-14.12l8.89,0.87l-1.4,13.56c8.57,1.12,14.22,3.94,18.13,6.72l-4.54,8.88
						c-2.84-1.97-8.39-5.63-17.57-6.53c-11.04-1.08-15.86,4.94-16.44,10.54c-0.75,7.27,4.17,11.43,16.12,17.68
						c14.16,7.32,20.86,15.32,19.57,27.77c-1.14,11.05-10.1,20.62-25.11,21.55l-1.5,14.54L1170.79,684.86z"/>
				</g>
			</g>
			<g>
				<g display="inline">
					
						<ellipse transform="matrix(1 -7.803830e-03 7.803830e-03 1 -7.267 7.398)" fill="#FFFFFF" cx="944.35" cy="934.89" rx="92.78" ry="90.52"/>
					<path d="M944.38,1027c-3.2,0-6.42-0.16-9.67-0.48c-25.09-2.5-47.67-14.38-63.59-33.46c-15.92-19.08-23.27-43.06-20.7-67.54
						c5.31-50.52,51.76-87.43,103.55-82.27c25.08,2.5,47.67,14.38,63.59,33.46c15.92,19.08,23.27,43.06,20.7,67.54l0,0
						C1033.28,991.61,992.16,1027,944.38,1027z M944.31,845.95c-46.13,0-85.84,34.17-90.65,79.9c-2.48,23.63,4.61,46.79,19.98,65.21
						c15.37,18.42,37.18,29.89,61.4,32.31c50.01,4.99,94.86-30.65,99.98-79.44l0,0c2.48-23.63-4.61-46.79-19.98-65.21
						c-15.37-18.42-37.17-29.89-61.4-32.31C950.52,846.1,947.4,845.95,944.31,845.95z M1036.65,944.09h0.02H1036.65z"/>
				</g>
				<g display="inline">
					
						<ellipse transform="matrix(1 -7.800757e-03 7.800757e-03 1 -7.2641 7.3951)" fill="#FFFFFF" cx="944.35" cy="934.89" rx="72.95" ry="71.17"/>
					<path d="M944.37,1007.65c-2.53,0-5.07-0.12-7.64-0.38c-19.81-1.98-37.65-11.36-50.22-26.43
						c-12.57-15.07-18.38-34.01-16.35-53.35c4.2-39.91,40.86-69.06,81.79-64.98c19.81,1.98,37.65,11.36,50.23,26.43
						c12.57,15.07,18.38,34.01,16.35,53.35C1014.59,979.69,982.11,1007.65,944.37,1007.65z M944.32,865.3
						c-36.1,0-67.16,26.74-70.92,62.51c-1.94,18.49,3.61,36.61,15.63,51.02c12.03,14.41,29.09,23.39,48.04,25.28
						c39.14,3.9,74.21-23.98,78.23-62.15c1.94-18.49-3.61-36.61-15.63-51.02c-12.03-14.41-29.09-23.39-48.04-25.28
						C949.17,865.42,946.74,865.3,944.32,865.3z M1016.91,942.13h0.02H1016.91z"/>
				</g>
				<g display="inline">
					<path fill="#5479F7" d="M935.2,982.6l1.24-11.84c-6.95-0.81-13.94-3.64-17.84-6.99l3.71-7.57c4.03,3.24,10.04,6.09,16.77,6.76
						c8.53,0.85,14.8-3.38,15.5-10.06c0.68-6.45-3.59-10.9-12.11-15.3c-11.76-5.91-18.76-12.06-17.69-22.25
						c1.02-9.73,8.89-16.41,20.12-17.06l1.24-11.84l7.45,0.74l-1.2,11.37c7.18,0.95,11.91,3.32,15.19,5.66l-3.82,7.44
						c-2.37-1.66-7.03-4.73-14.72-5.49c-9.25-0.92-13.3,4.12-13.79,8.81c-0.64,6.09,3.48,9.59,13.49,14.85
						c11.86,6.16,17.46,12.87,16.37,23.31c-0.97,9.26-8.49,17.27-21.08,18.03l-1.28,12.19L935.2,982.6z"/>
				</g>
			</g>
		</g>
		<g display="inline">
			<path display="none" d="M817.1,1231.49c-0.9,0-1.62-0.71-1.62-1.59s0.73-1.59,1.62-1.59l517.95-0.01v-142.52
				c0-0.88,0.73-1.59,1.62-1.59s1.62,0.71,1.62,1.59v144.1c0,0.88-0.73,1.59-1.62,1.59L817.1,1231.49z"/>
			<g>
				<path display="none" d="M1256.59,1333.2c-0.9,0-1.62-0.71-1.62-1.59v-55.62H919.45c-0.9,0-1.62-0.71-1.62-1.59
					s0.73-1.59,1.62-1.59h337.14c0.9,0,1.62,0.71,1.62,1.59v57.21C1258.21,1332.49,1257.49,1333.2,1256.59,1333.2z"/>
			</g>
		</g>
	</g>
	<g>
		<g>
			<path fill="#FFFFFF" d="M1268.51,747.9h-198.79c-89.24,0-161.59-72.35-161.59-161.59V148.97h521.97v437.34
				C1430.1,675.55,1357.75,747.9,1268.51,747.9z"/>
			<path d="M1268.51,750.1h-198.79c-90.32,0-163.79-73.48-163.79-163.79V148.97c0-1.22,0.99-2.2,2.2-2.2h521.97
				c1.22,0,2.2,0.99,2.2,2.2v437.34C1432.3,676.63,1358.82,750.1,1268.51,750.1z M910.33,151.18v435.14
				c0,87.89,71.5,159.39,159.39,159.39h198.79c87.89,0,159.39-71.5,159.39-159.39V151.18H910.33z"/>
		</g>
		<g>
			<path d="M1448.43,410.57c-1.11,0-2.06-0.83-2.19-1.96c-0.14-1.21,0.73-2.3,1.94-2.43c44.08-4.94,86.82-26.27,117.27-58.52
				c23.49-24.88,36.73-53.58,37.28-80.81c0.65-31.9-18.11-61.93-44.61-71.41c-27.85-9.97-62.67,5.06-74.53,32.17
				c-8.12,18.57-4.94,40.5,7.74,53.33c6.82,6.9,17.07,10.86,27.45,10.6c9.22-0.24,17.29-3.73,22.73-9.83
				c0.81-0.91,2.2-0.99,3.11-0.18c0.91,0.81,0.99,2.2,0.18,3.11c-6.25,7.02-15.45,11.03-25.9,11.3c-11.55,0.32-23.04-4.15-30.7-11.9
				c-13.91-14.08-17.47-38.01-8.64-58.19c12.73-29.11,50.13-45.25,80.04-34.55c28.22,10.1,48.21,41.92,47.53,75.65
				c-0.58,28.33-14.24,58.08-38.48,83.75c-31.16,32.99-74.89,54.82-119.98,59.87C1448.6,410.56,1448.51,410.57,1448.43,410.57z"/>
			<path d="M889.79,410.57c-0.08,0-0.17,0-0.25-0.01c-45.1-5.06-88.83-26.88-119.98-59.87c-24.24-25.67-37.91-55.41-38.48-83.75
				c-0.68-33.73,19.3-65.55,47.53-75.65c29.91-10.7,67.32,5.44,80.04,34.55c8.82,20.18,5.27,44.11-8.64,58.19
				c-7.66,7.75-19.15,12.21-30.7,11.9c-10.45-0.27-19.65-4.28-25.9-11.3c-0.81-0.91-0.73-2.3,0.18-3.11
				c0.91-0.81,2.3-0.73,3.11,0.18c5.44,6.1,13.51,9.59,22.73,9.83c10.37,0.27,20.63-3.69,27.45-10.6
				c12.68-12.83,15.86-34.76,7.74-53.33c-11.85-27.1-46.68-42.13-74.53-32.17c-26.49,9.48-45.26,39.52-44.61,71.41
				c0.55,27.24,13.79,55.94,37.28,80.81c30.45,32.25,73.19,53.58,117.27,58.52c1.21,0.14,2.08,1.22,1.94,2.43
				C891.85,409.74,890.9,410.57,889.79,410.57z"/>
		</g>
		<path d="M1463.91,101.04h-589.6c-1.22,0-2.2-0.99-2.2-2.2s0.99-2.2,2.2-2.2h589.6c1.22,0,2.2,0.99,2.2,2.2
			S1465.13,101.04,1463.91,101.04z"/>
		<g>
			<path d="M1019.73,895.81c-1.05,0-1.98-0.75-2.17-1.82c-0.21-1.2,0.59-2.34,1.78-2.55c66.4-11.78,96.53-47.34,110.11-75.09
				c14.72-30.07,13.77-57.62,13.76-57.89c-0.05-1.22,0.89-2.24,2.11-2.29c1.2-0.04,2.24,0.89,2.29,2.11
				c0.05,1.17,1,28.95-14.2,60.01c-14.03,28.67-45.08,65.39-113.3,77.49C1019.99,895.8,1019.86,895.81,1019.73,895.81z"/>
			<path d="M1318.5,895.81c-0.13,0-0.26-0.01-0.39-0.03c-68.22-12.1-99.27-48.82-113.3-77.49c-15.2-31.06-14.25-58.84-14.2-60.01
				c0.05-1.22,1.14-2.15,2.29-2.11c1.22,0.05,2.16,1.07,2.11,2.29c-0.01,0.28-0.94,27.99,13.84,58.07
				c13.6,27.68,43.73,63.15,110.03,74.91c1.2,0.21,2,1.36,1.78,2.55C1320.47,895.06,1319.54,895.81,1318.5,895.81z"/>
		</g>
		<path d="M1417.15,1006.7H921.08c-1.22,0-2.2-0.99-2.2-2.2c0-1.22,0.99-2.2,2.2-2.2h496.07c1.22,0,2.2,0.99,2.2,2.2
			C1419.35,1005.72,1418.36,1006.7,1417.15,1006.7z"/>
		<path d="M1374.64,951.26H963.59c-1.22,0-2.2-0.99-2.2-2.2c0-1.22,0.99-2.2,2.2-2.2h411.05c1.22,0,2.2,0.99,2.2,2.2
			C1376.84,950.27,1375.85,951.26,1374.64,951.26z"/>
		<path fill="#009DA5" d="M1176.92,329.59l21.88,44.33l48.92,7.11c9.65,1.4,13.51,13.26,6.52,20.07l-35.4,34.5l8.36,48.72
			c1.65,9.61-8.44,16.94-17.07,12.41l-43.75-23l-43.75,23c-8.63,4.54-18.72-2.79-17.07-12.41l8.36-48.72l-35.4-34.5
			c-6.98-6.81-3.13-18.67,6.52-20.07l48.92-7.11l21.88-44.33C1160.13,320.84,1172.6,320.84,1176.92,329.59z"/>
	</g>
	<g>
		<path d="M1955.6,493.77c3.72,12.65,10.39,26.3,22.26,35.05c8.71,6.42,23.48,14.55,36.61,8.66c7.9-3.54,14.28-9.13,20.31-14.71
			c10.65-9.85,18.84-21.56,23.79-34.24c2.37-6.08,4.54-14.11-1.16-19.41c-3.04-2.82-8.24-4.29-12.52-3.17
			c-0.83-4.37-1.88-8.71-3.2-13c-1.33-4.3-2.52-9.54-6.47-12.75c-3.74-3.05-9.38-3.51-14.12-2c-3.29,1.04-5.95,2.87-8.28,5
			c-2.29-5.58-5.83-10.85-11.1-14.76c-6.3-4.67-14.83-7.12-23.17-5.87c-15.52,2.33-21.37,17.03-24.09,28.39
			C1951.09,465.08,1951.48,479.8,1955.6,493.77z"/>
		<g>
			<polygon fill="#009DA5" points="1996.62,1216.71 1966.6,1107.57 1948.81,1216.71 1758.77,1216.71 1824.98,791.71 1907.24,776.1 
				2081.32,811.76 2217.64,1216.71 			"/>
			<path d="M1965.27,1102.25c-0.79,0-1.47-0.49-1.59-1.17l-26.05-149.95c-2.63-11.82-10.24-22.5-21.42-30.01l-9.97-6.7
				c-0.7-0.47-0.81-1.33-0.26-1.92c0.55-0.59,1.57-0.69,2.26-0.22l9.97,6.7c11.79,7.92,19.81,19.17,22.59,31.69l26.06,150
				c0.13,0.75-0.48,1.44-1.36,1.55C1965.43,1102.24,1965.35,1102.25,1965.27,1102.25z"/>
		</g>
		<g>
			<g>
				<g>
					<path fill="#FFFFFF" d="M2301.44,296.82c0.71,5.19-8.54,34.77-8.54,34.77l-69.8-11.8c0,0,11.46-35.63,10.98-41.12
						c-0.49-5.49-12.39-25.55-15.06-37.16c-2.23-9.72,14.22-7.74,20.93,1.77c6.71,9.52,9.91,7.33,9.91,7.33s21.7-40.54,32.07-41.65
						s-9.96,37.75-9.96,37.75s28.95-42.93,38.12-39.31c9.17,3.62-19.05,45.6-19.05,45.6s31.79-31.98,39.32-27.23
						c7.53,4.75-23.14,37.34-23.14,37.34s22.47-17.54,28.67-14.18c6.2,3.35-16.79,22.63-22.96,28.7
						C2306.76,283.68,2300.93,293.07,2301.44,296.82z"/>
					<path d="M2292.9,332.95c-0.11,0-0.21-0.01-0.32-0.03l-69.8-11.8c-0.44-0.07-0.82-0.3-1.05-0.62s-0.3-0.71-0.18-1.08
						c3.17-9.85,11.31-36.35,10.93-40.66c-0.21-2.34-2.96-8.17-5.88-14.35c-3.61-7.64-7.7-16.3-9.15-22.65
						c-1.2-5.23,2.41-7.01,4.03-7.53c5.37-1.74,15.01,1.46,19.87,8.35c4.11,5.82,6.57,6.72,7.39,6.85c3.43-6.34,22.47-40.7,33-41.83
						c1.53-0.16,2.82,0.27,3.65,1.22c2.79,3.18-0.6,13.54-4.54,22.84c9.87-13.02,23.18-28.17,29.93-25.5
						c0.79,0.31,1.84,0.99,2.39,2.43c2.28,6.07-7.07,23.16-14.01,34.56c10.83-9.9,26.23-22.24,32.17-18.48
						c1,0.63,1.59,1.55,1.78,2.75c0.86,5.61-8.61,18.09-16.1,26.96c7.21-4.61,15.66-8.83,19.77-6.61c0.99,0.54,1.6,1.36,1.75,2.38
						c0.73,4.75-9.02,14.17-19.95,24.23c-1.8,1.66-3.36,3.1-4.41,4.12c-6.05,5.95-11.55,14.94-11.12,18.16
						c0.72,5.29-7.62,32.22-8.58,35.27C2294.27,332.54,2293.62,332.95,2292.9,332.95z M2225.11,318.73l66.62,11.26
						c2.76-8.95,8.64-29.16,8.11-33.02c-0.61-4.45,5.77-14.25,11.87-20.25c1.08-1.06,2.65-2.51,4.48-4.19
						c6.4-5.89,19.72-18.15,19.13-22.03c-0.04-0.25-0.14-0.35-0.29-0.43c-3.19-1.73-16.34,5.95-26.71,14.04
						c-0.62,0.48-1.57,0.48-2.19,0c-0.61-0.49-0.69-1.29-0.16-1.85c6.99-7.43,24.92-28.11,23.94-34.48
						c-0.09-0.59-0.33-0.8-0.51-0.91c-3.9-2.47-22.3,12.11-37.12,27.02c-0.53,0.54-1.47,0.65-2.15,0.24
						c-0.68-0.4-0.89-1.18-0.48-1.79c9.43-14.03,22.66-37.03,20.45-42.9c-0.2-0.54-0.48-0.71-0.68-0.78
						c-4.8-1.9-22.47,18.63-36.04,38.75c-0.42,0.63-1.36,0.87-2.13,0.54c-0.76-0.33-1.09-1.11-0.75-1.77
						c8.01-15.32,14.79-32.86,12.29-35.7c-0.08-0.09-0.18-0.2-0.66-0.15c-6.9,0.74-22.55,25.45-30.8,40.86
						c-0.1,0.19-0.26,0.36-0.45,0.5c-0.51,0.35-1.49,0.65-2.74,0.46c-2.83-0.43-6.05-3.17-9.56-8.15c-4-5.67-11.86-8.53-15.96-7.2
						c-1.88,0.61-2.55,2.11-2.01,4.46c1.4,6.09,5.43,14.63,8.98,22.16c3.27,6.93,5.86,12.4,6.1,15.16
						C2236.14,283.68,2227.43,311.45,2225.11,318.73z"/>
				</g>
				<path d="M2276.4,263.23c-0.42,0-0.83-0.14-1.15-0.41c-10.08-8.66-25.49-10.86-25.64-10.88c-0.88-0.12-1.47-0.82-1.33-1.56
					c0.14-0.74,0.96-1.25,1.85-1.13c0.67,0.09,16.58,2.35,27.42,11.66c0.62,0.54,0.62,1.4-0.02,1.93
					C2277.22,263.1,2276.81,263.23,2276.4,263.23z"/>
			</g>
			<g>
				<g>
					<path fill="#FFFFFF" d="M1765.4,300.84c0,0-5.71-36.57-4.84-38.74c0.86-2.17,14.3-22.47,18.65-26.64
						c4.35-4.16-3.29-9.45-10.81-7.39c-7.68,2.11-16.7,9.45-19.58,12.04c-2.88,2.59-19.99-45.95-29.96-44.96
						c-9.97,0.99,4.66,41,4.66,41s-24.99-41.83-36.53-38.16c-11.54,3.67,11.1,42.56,11.1,42.56s-17.78-20.72-28.95-20.92
						c-11.17-0.2,14.22,30.51,14.22,30.51s-19.59-8.58-24.49-5.57c-4.89,3.01,16.58,19.52,25.16,26.24
						c8.58,6.72,7.74,8.71,8.18,10.97c0.44,2.26-0.94,34.9-0.94,34.9L1765.4,300.84z"/>
					<path d="M1691.27,318.06c-0.36,0-0.72-0.1-1.01-0.3c-0.39-0.27-0.62-0.68-0.6-1.11c0.53-12.53,1.26-33.01,0.96-34.63
						c-0.06-0.3-0.1-0.61-0.14-0.91c-0.22-1.75-0.48-3.74-7.55-9.27l-1.04-0.81c-15.43-12.06-25.64-20.99-25.34-25.35
						c0.06-0.91,0.54-1.67,1.37-2.18c3.94-2.42,14.14,0.76,20.75,3.26c-5.98-7.68-16.32-22.13-13.42-26.73
						c0.42-0.67,1.43-1.76,3.92-1.73c6.95,0.13,15.9,7.22,22.26,13.22c-5.1-10.13-11.56-25.24-8.55-31.68
						c0.71-1.53,1.9-2.57,3.54-3.09c8.93-2.85,23.05,15.29,31.7,28.1c-3.09-10.46-6.31-24.61-2.78-29.2
						c0.81-1.05,1.96-1.68,3.32-1.82c6.84-0.69,13.89,12.71,23.16,31.7c2.5,5.13,5.29,10.85,6.76,12.85
						c2.93-2.51,11.51-9.44,19.31-11.58c5.69-1.56,11.01,0.49,13.12,3.22c1.61,2.08,1.39,4.46-0.61,6.37
						c-4.29,4.11-17.61,24.36-18.33,26.17c-0.43,2.03,2.78,24.47,4.91,38.12c0.11,0.69-0.41,1.33-1.2,1.5l-74.13,15.85
						C1691.53,318.04,1691.4,318.06,1691.27,318.06z M1661.94,245.27c-0.93,0-1.65,0.13-2.12,0.42c-0.75,1.06,1.43,5.47,24.26,23.32
						l1.04,0.82c7.37,5.77,8.22,8.29,8.57,10.98c0.03,0.26,0.06,0.51,0.11,0.76c0.41,2.09-0.54,26.02-0.84,33.36l70.66-15.11
						c-1.81-11.66-5.44-36-4.59-38.15c1.05-2.63,14.6-22.92,18.97-27.1c1.03-0.99,1.14-2.02,0.32-3.07
						c-1.45-1.87-5.47-3.21-9.43-2.12c-6.72,1.85-15.04,8.21-18.9,11.68c-0.47,0.42-1.12,0.6-1.78,0.5c-2-0.31-3.56-3.12-9.36-15
						c-5.14-10.54-14.67-30.04-19.63-30.04c-0.06,0-0.12,0-0.18,0.01c-0.29,0.03-0.63,0.12-1,0.59c-3.52,4.58,2.43,26.14,7.01,38.65
						c0.25,0.68-0.16,1.4-0.93,1.67c-0.78,0.26-1.66-0.02-2.04-0.65c-10.11-16.92-27.47-39.73-34.53-37.5
						c-0.77,0.24-1.3,0.73-1.68,1.54c-3.34,7.14,8.72,30.68,13.65,39.14c0.37,0.63,0.1,1.4-0.61,1.77
						c-0.72,0.36-1.65,0.21-2.13-0.37c-4.82-5.61-19.18-20.21-27.68-20.36c-0.86-0.01-0.95,0.2-1.01,0.29
						c-1.77,2.81,7.23,16.76,16.58,28.07c0.42,0.51,0.38,1.21-0.11,1.68c-0.49,0.47-1.29,0.6-1.95,0.31
						C1676.14,248.53,1666.57,245.27,1661.94,245.27z"/>
				</g>
				<path d="M1722.72,256.2c-0.34,0-0.68-0.09-0.96-0.27c-0.71-0.45-0.86-1.31-0.32-1.91c7.7-8.69,26.02-14.9,26.79-15.16
					c0.82-0.28,1.76,0.06,2.09,0.77c0.33,0.7-0.08,1.49-0.9,1.77c-0.18,0.06-18.25,6.19-25.4,14.26
					C1723.7,256.01,1723.21,256.2,1722.72,256.2z"/>
			</g>
			<g>
				<path fill="#FFFFFF" d="M1686.58,299.19h79.73c0,0,87.5,182.75,114.73,222.26c19.32,28.04,40.58,43.63,51.31,50.33
					c14.35-2.48,30.2-4.24,47.7-4.91c37.66-1.97,70.62,1.28,98.75,7.13c8.7-4.96,33.12-20.75,55.03-52.56
					c27.22-39.51,90.47-214.03,90.47-214.03h80.01c0,0-30.27,197.72-69.16,265.22c-34.89,60.55-120.89,211.67-138.24,242.16
					c-1.88,3.31-5.84,5.41-10.18,5.41h-23.23h-245.23c-7.38,0-12.78-5.9-10.95-11.95l33.72-111.12
					c-30.53-47.57-61.97-97.4-78.62-126.3C1723.53,503.34,1686.58,299.19,1686.58,299.19z"/>
				<path d="M2086.73,821.58h-268.47c-4.02,0-7.74-1.54-10.2-4.23c-2.47-2.69-3.3-6.12-2.3-9.42l33.56-110.61
					c-37.8-58.91-64.17-101.26-78.35-125.88c-38.55-66.92-75.61-270-75.98-272.05c-0.07-0.39,0.06-0.79,0.37-1.09
					c0.31-0.3,0.75-0.48,1.22-0.48h79.73c0.66,0,1.25,0.34,1.49,0.85c0.87,1.83,87.77,183.11,114.63,222.09
					c18.76,27.24,39.34,42.63,50.3,49.56c15.07-2.57,30.97-4.19,47.24-4.81c34.06-1.78,67.21,0.58,98.51,7.03
					c9.61-5.57,32.86-21.16,53.95-51.77c26.82-38.93,89.69-212,90.32-213.75c0.21-0.57,0.83-0.96,1.54-0.96h80.01
					c0.46,0,0.9,0.17,1.21,0.46c0.31,0.3,0.45,0.69,0.39,1.08c-0.3,1.98-30.75,198.72-69.31,265.65
					c-33.79,58.65-114.35,200.17-138.23,242.15C2096.23,819.15,2091.66,821.58,2086.73,821.58z M1688.46,300.55
					c3.55,19.15,38.86,206.26,75.4,269.69c14.2,24.64,40.64,67.12,78.58,126.24c0.19,0.3,0.25,0.66,0.14,0.99l-33.72,111.12
					c-0.75,2.47-0.12,5.05,1.73,7.07c1.85,2.02,4.64,3.18,7.66,3.18h268.47c3.7,0,7.12-1.82,8.73-4.64
					c23.89-41.98,104.45-183.51,138.24-242.17c36.52-63.39,65.82-244.62,68.77-263.26h-76.98c-5.13,14.06-64.32,175.68-90.27,213.36
					c-21.87,31.74-46.11,47.64-55.52,53c-0.38,0.22-0.85,0.28-1.28,0.19c-31.19-6.49-64.25-8.88-98.27-7.1
					c-16.39,0.63-32.36,2.27-47.48,4.88c-0.45,0.08-0.91-0.01-1.28-0.24c-11-6.87-32.36-22.6-51.74-50.74
					c-26.02-37.76-107.88-207.96-114.42-221.59H1688.46z"/>
			</g>
		</g>
		<g>
			<path d="M1964.2,712.93c-0.06,0-0.13,0-0.19-0.01c-0.7-0.07-1.27-0.52-1.4-1.1l-30.67-139.52c-0.15-0.67,0.31-1.32,1.06-1.54
				l26.02-7.56l4.15-37.62c0.06-0.55,0.51-1.02,1.14-1.18l58.77-14.98c0.52-0.13,1.08-0.04,1.5,0.26c0.42,0.3,0.63,0.75,0.56,1.2
				l-7.16,51.78l21.98,4.35c0.47,0.09,0.86,0.36,1.08,0.72c0.21,0.36,0.22,0.79,0.03,1.16l-75.4,143.24
				C1965.41,712.62,1964.83,712.93,1964.2,712.93z M1935.36,572.95l29.47,134.06l72.5-137.72l-21.48-4.25
				c-0.8-0.16-1.33-0.8-1.23-1.49l7.04-50.93l-55.38,14.12l-4.15,37.59c-0.06,0.53-0.48,0.99-1.08,1.16L1935.36,572.95z"/>
			<g>
				<polygon fill="#FFFFFF" points="1933.53,572.05 1960.53,564.2 1964.78,525.7 2023.55,510.72 2016.22,563.71 2039.6,568.33 				
					"/>
				<path d="M1933.53,573.41c-0.67,0-1.29-0.36-1.52-0.92c-0.29-0.71,0.16-1.49,1-1.73l26.02-7.56l4.15-37.62
					c0.06-0.55,0.51-1.02,1.14-1.18l58.77-14.98c0.52-0.13,1.08-0.04,1.5,0.26c0.42,0.3,0.63,0.75,0.56,1.2l-7.16,51.78l21.98,4.35
					c0.87,0.17,1.4,0.9,1.2,1.64c-0.2,0.73-1.07,1.19-1.94,1.02l-23.38-4.63c-0.8-0.16-1.33-0.8-1.23-1.49l7.04-50.93l-55.38,14.12
					l-4.15,37.59c-0.06,0.53-0.48,0.99-1.08,1.16l-27,7.85C1933.88,573.39,1933.7,573.41,1933.53,573.41z"/>
			</g>
			<g>
				<path fill="#FFFFFF" d="M2021.23,495.69c3.19-2.99,9.08-3.3,13.03-1.05c3.95,2.25,5.86,6.59,5.22,10.59
					c-0.63,3.99-3.55,7.57-7.37,9.98c-3.82,2.41-8.47,3.72-13.16,4.36c-4.97,8.6-11.34,17.01-20.8,22.25
					c-9.47,5.24-22.63,6.61-31.96,1.2c-5.95-3.45-9.65-9.19-11.28-15.14c-1.63-5.95-1.39-12.15-0.79-18.23
					c1.57-16.05,5.53-31.94,11.76-47.16c7.19-0.31,8.69,7.45,15.72,8.75c7.03,1.3,19.66-3.72,24.01,1.13
					c5.38,6.01,6.26,14.11,5.35,21.61c-0.29,2.35-1.86,10.19,3.24,9.9C2017.61,503.67,2019.21,497.58,2021.23,495.69z"/>
				<path d="M1980.04,547.86c-5.1,0-10.23-1.09-14.76-3.72c-5.8-3.37-10.04-9.03-11.94-15.96c-1.72-6.26-1.41-12.66-0.83-18.65
					c1.58-16.17,5.57-32.15,11.84-47.49c0.22-0.53,0.79-0.89,1.44-0.92c4.66-0.2,7.3,2.38,9.66,4.66c1.92,1.85,3.73,3.6,6.48,4.11
					c2.45,0.45,5.95,0.01,9.34-0.41c6.08-0.76,12.37-1.55,15.61,2.06c4.92,5.49,6.83,13.08,5.67,22.57l-0.1,0.74
					c-0.23,1.67-0.86,6.11,0.57,7.37c0.18,0.16,0.44,0.31,1.06,0.28c1.28-0.07,2.69-2.62,3.63-4.3c0.75-1.35,1.46-2.62,2.33-3.43
					c3.61-3.39,10.4-3.96,15.13-1.27c4.29,2.44,6.66,7.22,5.92,11.9c-0.66,4.13-3.57,8.1-8,10.89c-3.48,2.2-7.87,3.71-13.05,4.5
					c-4.03,6.88-10.53,16.37-21,22.16C1993.79,545.86,1986.94,547.86,1980.04,547.86z M1967.02,463.87
					c-5.97,14.84-9.76,30.27-11.29,45.88c-0.56,5.77-0.86,11.92,0.75,17.81c1.72,6.26,5.49,11.34,10.62,14.32
					c8.04,4.67,20.45,4.17,30.16-1.21c10.13-5.61,16.4-15.08,20.24-21.71c0.23-0.4,0.68-0.68,1.19-0.75
					c5.02-0.68,9.21-2.06,12.46-4.11c3.74-2.36,6.2-5.66,6.74-9.07c0.59-3.67-1.23-7.4-4.52-9.27c-3.39-1.93-8.4-1.55-10.94,0.83
					c0,0,0,0,0,0c-0.55,0.51-1.19,1.66-1.8,2.77c-1.48,2.66-3.16,5.67-6.32,5.86c-1.44,0.09-2.69-0.3-3.61-1.12
					c-2.28-2.03-1.93-6-1.43-9.58l0.09-0.7c1.07-8.78-0.63-15.73-5.03-20.65c-2.08-2.32-7.41-1.65-12.57-1.01
					c-3.67,0.46-7.48,0.94-10.5,0.38c-3.79-0.7-6.14-2.97-8.22-4.98C1970.86,465.49,1969.31,464.11,1967.02,463.87z M2021.23,495.69
					h0.02H2021.23z"/>
			</g>
			<path d="M2015.81,515.18c-0.31,0-0.63-0.08-0.91-0.24c-0.73-0.42-0.92-1.27-0.42-1.9c2.87-3.56,7.6-6,12.65-6.53
				c0.86-0.09,1.69,0.44,1.8,1.19c0.11,0.75-0.52,1.43-1.4,1.52c-4.15,0.43-8.03,2.44-10.39,5.36
				C2016.83,514.97,2016.33,515.18,2015.81,515.18z"/>
			<polygon points="1982.17,569.07 1991.7,582.66 1981.67,592.85 1991.4,659.94 1964.14,711.71 1952.21,657.12 1975.15,592.43 
				1969.64,580.54 			"/>
			<path d="M1956.39,598.14c-0.09,0-0.19-0.01-0.28-0.02c-0.57-0.09-1.04-0.43-1.24-0.89l-11.18-27.16
				c-0.29-0.71,0.15-1.49,0.99-1.74c0.84-0.25,1.76,0.13,2.05,0.84l10.24,24.88l23.46-24.06c0.33-0.34,0.81-0.52,1.35-0.49
				c0.52,0.03,0.98,0.26,1.26,0.63l16.35,21.92l27.75-26.62c0.59-0.57,1.61-0.62,2.27-0.12c0.67,0.5,0.73,1.36,0.14,1.93
				l-29.17,27.99c-0.34,0.32-0.81,0.5-1.34,0.46c-0.51-0.03-0.96-0.27-1.23-0.63l-16.31-21.87l-23.86,24.48
				C1957.32,597.96,1956.86,598.14,1956.39,598.14z"/>
		</g>
	</g>
	<g>
		<g>
			<path fill="#FFFFFF" d="M221.76,1185.83c0,0,25.07-103.45,156-212.51l-17.15-73.85l197.79-86.6c0,0,44.18,186.75,38.42,372.97
				H221.76z"/>
			<path d="M221.76,1187.24c-0.11,0-0.22-0.01-0.33-0.04c-0.76-0.18-1.22-0.94-1.04-1.7c0.06-0.26,6.57-26.51,29.05-65.73
				c20.64-36.02,59.37-90.71,126.75-146.98l-16.96-73.01c-0.15-0.66,0.19-1.34,0.8-1.61l197.79-86.6c0.38-0.17,0.82-0.16,1.19,0.03
				c0.37,0.19,0.65,0.53,0.74,0.94c0.44,1.87,44.15,189.06,38.46,373.34c-0.03,0.78-0.68,1.38-1.45,1.36
				c-0.78-0.02-1.39-0.67-1.36-1.45c5.4-174.69-33.7-352.04-38-370.96l-195.16,85.45L379.13,973c0.12,0.52-0.06,1.06-0.47,1.4
				c-67.42,56.16-106.11,110.74-126.71,146.65c-22.31,38.9-28.76,64.86-28.82,65.12C222.97,1186.81,222.4,1187.24,221.76,1187.24z"
				/>
		</g>
		<g>
			<g>
				<g>
					<g>
						<path fill="#FFFFFF" d="M665.81,238.97l0.83-4.25c0,0,13,3.83,16.47-10.62c3.88-16.14,6.14-42.35-7.15-40.05
							c0,0-1.75-13.59-14.63-7.11c0,0-5.51-18.18-18.48-5.42c0,0-11.99-14.1-21.1,4.04c0,0-24.19-6.19-37.83,30.67
							c-3.85,10.39-81,333.34-95.43,387.11c33.03,21.66,66.35,28.28,98.34,12.99L665.81,238.97z"/>
						<path d="M550.84,616.04c-20.14,0-41.25-7.19-63.13-21.53c-0.51-0.33-0.74-0.95-0.59-1.54
							c7.26-27.05,30.06-120.86,52.11-211.58c21.3-87.64,41.42-170.41,43.36-175.65c12.24-33.07,33.3-32.42,38.37-31.74
							c2.97-5.5,6.57-8.54,10.71-9.04c5.05-0.61,9.33,2.78,11.22,4.58c3.73-3.32,7.3-4.57,10.62-3.72c4.81,1.23,7.53,6.54,8.61,9.2
							c3.73-1.57,6.96-1.66,9.6-0.25c3.44,1.83,4.84,5.68,5.35,7.74c2.53-0.12,4.64,0.72,6.32,2.5c8.16,8.71,1.83,36.29,1.08,39.41
							c-1.17,4.88-3.51,8.36-6.93,10.34c-3.7,2.14-7.69,1.94-9.8,1.61l-0.55,2.85c0,0.01,0,0.02-0.01,0.03l-78.97,367.37
							c-0.09,0.43-0.37,0.79-0.77,0.97C575.66,613.23,563.44,616.04,550.84,616.04z M490.11,592.72
							c34.11,22.1,66.23,26.35,95.49,12.64l78.82-366.67l0.82-4.23c0.08-0.39,0.31-0.73,0.65-0.93c0.34-0.21,0.75-0.26,1.13-0.15
							c0.05,0.01,4.95,1.38,9.12-1.05c2.72-1.58,4.6-4.46,5.58-8.55c3.36-13.96,4.66-31.44-0.4-36.83c-1.3-1.39-2.98-1.88-5.15-1.5
							c-0.38,0.06-0.77-0.03-1.08-0.25c-0.31-0.23-0.51-0.57-0.56-0.95c-0.01-0.05-0.72-5.16-4.17-6.98
							c-2.12-1.12-4.96-0.8-8.43,0.95c-0.37,0.19-0.8,0.2-1.19,0.04c-0.38-0.16-0.67-0.49-0.79-0.88c-0.02-0.08-2.37-7.58-7.16-8.8
							c-2.62-0.66-5.63,0.67-8.98,3.97c-0.28,0.27-0.68,0.41-1.05,0.4c-0.39-0.02-0.76-0.2-1.01-0.49c-0.05-0.05-4.6-5.31-9.77-4.68
							c-3.37,0.41-6.4,3.25-9,8.43c-0.3,0.59-0.96,0.89-1.61,0.73c-0.94-0.23-23.15-5.34-36.16,29.79
							c-1.88,5.08-21.98,87.78-43.26,175.33C520.18,471.73,497.65,564.41,490.11,592.72z M665.81,238.97h0.01H665.81z"/>
					</g>
					<path d="M625.57,242.44c-0.2,0-0.4-0.04-0.6-0.13c-0.7-0.33-1.01-1.17-0.68-1.87c2.38-5.07,3.05-11.42,1.95-18.37
						c-1.01-6.34-3.3-12.51-5.53-18.47c-0.2-0.53-0.06-1.12,0.35-1.51c0.41-0.39,1.01-0.49,1.53-0.27c5.6,2.43,10.66,4.4,15.85,3.9
						c4.94-0.48,10.2-4.34,10.16-9.32c-0.02-2.46-1.24-5.03-3.74-7.87c-5.36-6.11-13.08-10.08-21.16-10.9
						c-0.77-0.08-1.34-0.77-1.26-1.54c0.08-0.77,0.77-1.34,1.54-1.26c8.78,0.89,17.16,5.21,22.99,11.84
						c2.96,3.37,4.41,6.54,4.44,9.71c0.06,6.73-6.55,11.54-12.7,12.14c-4.87,0.48-9.41-0.89-14.23-2.84
						c1.88,5.14,3.66,10.44,4.54,15.96c1.2,7.51,0.44,14.43-2.18,20.01C626.61,242.14,626.1,242.44,625.57,242.44z"/>
					<path d="M641.42,184.1c-0.07,0-0.15-0.01-0.22-0.02c-0.77-0.12-1.29-0.84-1.17-1.61l1.48-9.49c0.12-0.77,0.84-1.3,1.61-1.17
						c0.77,0.12,1.29,0.84,1.17,1.61l-1.48,9.49C642.7,183.61,642.1,184.1,641.42,184.1z"/>
					<path d="M643.99,229.84c-0.05,0-0.09,0-0.14,0c-4.98-0.09-8.53-4.39-9.73-8.36c-1.26-4.17-0.7-8.57-0.21-12.45
						c0.1-0.77,0.81-1.32,1.57-1.22c0.77,0.1,1.32,0.8,1.22,1.57c-0.46,3.6-0.97,7.68,0.11,11.28c0.94,3.12,3.68,6.3,7.09,6.36
						c0.03,0,0.06,0,0.09,0c2.21,0,4.51-1.32,6.19-3.54c1.65-2.18,2.56-4.93,3.35-7.56c3.83-12.66,5.7-24.86,5.55-36.25
						c-0.01-0.78,0.61-1.41,1.39-1.43c0.01,0,0.01,0,0.02,0c0.77,0,1.4,0.62,1.41,1.39c0.16,11.68-1.75,24.16-5.67,37.1
						c-0.87,2.87-1.88,5.88-3.8,8.44C650.22,228.11,647.08,229.84,643.99,229.84z"/>
					<path d="M658.85,232.58c-3.52,0-6.73-2.35-7.43-5.53c-0.17-0.76,0.31-1.51,1.07-1.68c0.75-0.16,1.51,0.31,1.67,1.07
						c0.43,1.94,2.72,3.46,5.01,3.31c2.16-0.14,4.4-1.54,6-3.74c1.58-2.18,2.46-4.82,3.23-7.35c3-9.9,4.84-20.16,5.46-30.48
						c0.05-0.78,0.73-1.37,1.49-1.32c0.77,0.05,1.37,0.71,1.32,1.49c-0.64,10.54-2.51,21.02-5.57,31.13
						c-0.8,2.63-1.8,5.66-3.64,8.19c-2.12,2.91-5.07,4.69-8.09,4.89C659.19,232.58,659.02,232.58,658.85,232.58z"/>
					<path d="M666.48,235.18c-0.23,0-0.46-0.06-0.68-0.17c-1.26-0.69-2.34-1.7-3.12-2.9c-0.42-0.65-0.24-1.52,0.41-1.95
						c0.65-0.42,1.52-0.24,1.95,0.41c0.53,0.82,1.26,1.5,2.12,1.97c0.68,0.37,0.93,1.23,0.56,1.91
						C667.46,234.92,666.98,235.18,666.48,235.18z"/>
					<path d="M629.27,224.7c-0.52,0-1.05-0.04-1.56-0.12c-0.77-0.12-1.29-0.84-1.17-1.61c0.12-0.77,0.84-1.29,1.61-1.17
						c2.13,0.34,4.39-0.3,6.03-1.72c0.59-0.51,1.48-0.44,1.98,0.15c0.51,0.59,0.44,1.48-0.15,1.98
						C634.15,223.81,631.72,224.7,629.27,224.7z"/>
				</g>
				<polygon fill="#009DA5" points="495.84,543.25 599.92,570.12 566.18,735.99 454.14,706.85 				"/>
			</g>
			<path fill="#009DA5" d="M304.78,718.31l84.55-55l83.31-4.35l85.75,29.68l44.57,213.32c0,0-178.86,19.66-244.15,55.24
				l-30.8-180.28L304.78,718.31z"/>
			<path d="M565.52,711.72c-0.52,0-1.02-0.29-1.26-0.78c-12.89-25.93-15.01-56.55-5.82-84.01c0.25-0.74,1.05-1.13,1.78-0.89
				c0.74,0.25,1.13,1.04,0.89,1.78c-8.96,26.76-6.89,56.6,5.67,81.86c0.35,0.7,0.06,1.54-0.63,1.89
				C565.94,711.68,565.73,711.72,565.52,711.72z"/>
		</g>
		<g>
			<path d="M485.4,518.27c-7.18-18.06-24.97-30.45-43.88-34.91c-18.92-4.45-38.84-1.9-57.62,3.1c-18.78,5-36.84,12.39-55.51,17.8
				c-41.78,12.11-85.99,14.1-129.34,10.43c-24.57-2.08-49.08-5.95-73.72-5.36c-24.65,0.58-49.99,6.03-69.78,20.73
				c-19.79,14.7-32.87,40-28.2,64.21c4.67,24.21,30.24,43.91,54.13,37.83c-8.57,24.74,5.21,53.17,26.75,68.05
				c21.54,14.88,48.94,18.58,75.12,18.12c80.52-1.42,156.79-37.89,222.37-84.63c22.02-15.69,44.99-33.16,60.89-55.36
				C479.73,559.98,494.99,542.39,485.4,518.27z"/>
			<g>
				<polygon fill="#FFFFFF" points="464.44,628.56 455.41,678.15 407.02,678.01 420.84,599.69 				"/>
				<path d="M455.41,679.56c-0.08,0-0.17-0.01-0.25-0.02c-0.77-0.14-1.27-0.87-1.13-1.64l8.86-48.68l-41.04-27.18l-11.33,64.21
					c-0.13,0.76-0.87,1.28-1.63,1.14c-0.77-0.14-1.28-0.86-1.14-1.63l11.7-66.32c0.08-0.47,0.39-0.86,0.83-1.05
					c0.44-0.19,0.94-0.14,1.33,0.12l43.6,28.87c0.47,0.31,0.71,0.87,0.61,1.43l-9.03,49.59
					C456.67,679.08,456.08,679.56,455.41,679.56z"/>
				<g>
					<path fill="#FFFFFF" d="M418.2,614.82c0,0,26.65,39.01,55.13,28.36c28.48-10.65,13.04-81.4,0-108.65l-43.46,18.29
						c0,0,6.09,27.26-6.93,32.72c0,0-17.3-13.93-26.74-4.34C382.48,595.13,395.43,623.46,418.2,614.82z"/>
					<path d="M463.08,646.46c-22.61,0-41.67-24.77-45.41-29.95c-11.66,3.94-20.33-1.5-24.6-8.06c-5.08-7.79-5.98-19.99,2.13-28.23
						c9.2-9.34,24.43,1.08,27.92,3.69c10.84-5.69,5.44-30.52,5.38-30.77c-0.15-0.66,0.2-1.34,0.83-1.6l43.46-18.29
						c0.69-0.29,1.49,0.01,1.81,0.69c10,20.9,22.69,71.05,12.39,96.6c-2.85,7.07-7.28,11.77-13.17,13.97
						C470.19,645.86,466.59,646.46,463.08,646.46z M418.2,613.41c0.45,0,0.89,0.22,1.16,0.61c0.26,0.38,26.35,37.98,53.48,27.84
						c5.12-1.91,9-6.08,11.54-12.39c9.8-24.31-2.04-71.96-11.75-93.12l-41.15,17.32c1.04,5.45,4.5,27.92-8,33.16
						c-0.47,0.2-1.02,0.12-1.43-0.2c-0.16-0.13-16.42-13.02-24.85-4.45c-7.07,7.18-6.25,17.87-1.78,24.72
						c4.93,7.56,13.26,10.02,22.28,6.6C417.86,613.44,418.03,613.41,418.2,613.41z"/>
				</g>
				<path d="M415,607.52c-0.43,0-0.85-0.2-1.13-0.57c-2.73-3.67-6.07-6.79-9.92-9.26c-0.65-0.42-0.84-1.29-0.42-1.94
					c0.42-0.65,1.29-0.84,1.94-0.42c4.14,2.66,7.73,6,10.66,9.95c0.46,0.62,0.33,1.5-0.29,1.97
					C415.59,607.43,415.29,607.52,415,607.52z"/>
			</g>
			<g>
				<path fill="#FFFFFF" d="M390.58,675.38l11.33-24.85c0,0,21.85,8.92,43.92,7.81l6.89,7.84l3.62-8.55l12.06-0.82l5.92,16.68
					l-7.07,20.5l-13.6-14.05l-10.1,19.19C443.54,699.13,404.89,693.99,390.58,675.38z"/>
				<path d="M414.42,692.8c-0.16,0-0.32-0.03-0.48-0.09c-11.64-4.24-18.74-9.01-24.48-16.47c-0.32-0.41-0.38-0.97-0.16-1.44
					l11.33-24.85c0.3-0.66,1.05-0.98,1.74-0.75l7.95,2.72c8.75,2.65,22.05,5.68,35.44,5.01c0.42-0.02,0.84,0.15,1.13,0.48l5.42,6.15
					l2.75-6.49c0.21-0.49,0.67-0.82,1.2-0.85l10.53-0.71c0.79-0.06,1.45,0.53,1.5,1.31c0.05,0.77-0.53,1.45-1.31,1.5l-9.67,0.65
					l-3.28,7.75c-0.19,0.45-0.59,0.76-1.07,0.84c-0.49,0.07-0.96-0.1-1.28-0.46l-6.45-7.33c-13.56,0.55-26.9-2.49-35.77-5.17
					l-6.79-2.33l-10.44,22.91c5.3,6.63,11.95,10.98,22.69,14.88c0.73,0.27,1.11,1.07,0.84,1.8
					C415.53,692.44,414.99,692.8,414.42,692.8z"/>
			</g>
		</g>
		<g>
			<g>
				<g>
					<path fill="#FFFFFF" d="M87.49,346.32l-2.13-3.76c0,0-11.11,7.76-18.99-4.83c-8.81-14.07-19.29-38.2-5.95-40.24
						c0,0-2.66-13.45,11.61-11.39c0,0-0.56-18.99,15.8-11.01c0,0,6.89-17.18,21.29-2.88c0,0,20.96-13.55,45.61,17.05
						c6.95,8.63,182.76,290.31,213.52,336.7c-24.43,31.03-53.92,47.91-89.11,43.58L87.49,346.32z"/>
					<path d="M289.89,671.61c-3.6,0-7.24-0.23-10.92-0.68c-0.43-0.05-0.82-0.3-1.04-0.68L86.28,347.04c0-0.01-0.01-0.02-0.01-0.02
						l-1.43-2.53c-1.9,0.98-5.62,2.44-9.8,1.59c-3.88-0.79-7.2-3.35-9.86-7.6c-1.7-2.72-16.48-26.86-11.5-37.71
						c1.02-2.23,2.76-3.7,5.19-4.38c-0.17-2.12-0.07-6.21,2.62-9.04c2.06-2.17,5.14-3.12,9.18-2.81c0.18-2.86,1.07-8.76,5.24-11.45
						c2.88-1.86,6.66-1.81,11.26,0.15c1.22-2.31,4.2-6.88,9.18-7.91c4.08-0.84,8.46,0.89,13.03,5.16
						c4.6-2.26,24.35-9.57,46.47,17.89c3.5,4.35,48.89,76.45,96.95,152.78c49.74,79,101.17,160.69,116.64,184.03
						c0.34,0.51,0.31,1.17-0.07,1.65C345.93,656.59,319.24,671.61,289.89,671.61z M280,668.22c32.1,3.7,61.2-10.54,86.52-42.34
						c-16.14-24.44-66.96-105.15-116.12-183.23c-48.01-76.26-93.36-148.29-96.76-152.51c-23.49-29.17-42.94-17.27-43.76-16.75
						c-0.55,0.35-1.28,0.28-1.75-0.19c-4.12-4.09-7.9-5.82-11.23-5.13c-5.12,1.06-7.74,7.47-7.77,7.53
						c-0.14,0.36-0.43,0.65-0.8,0.79c-0.36,0.14-0.77,0.12-1.12-0.05c-4.23-2.06-7.52-2.37-9.78-0.91c-4.16,2.68-4,10.54-4,10.62
						c0.01,0.41-0.16,0.81-0.47,1.09c-0.31,0.28-0.73,0.4-1.14,0.34c-3.86-0.55-6.65,0.05-8.31,1.79c-2.7,2.84-1.73,7.88-1.73,7.93
						c0.08,0.38-0.01,0.77-0.23,1.08c-0.22,0.31-0.56,0.52-0.94,0.58c-2.17,0.33-3.61,1.33-4.4,3.06
						c-3.08,6.72,3.71,22.88,11.33,35.05c2.24,3.57,4.94,5.71,8.04,6.34c4.76,0.97,8.92-1.88,8.96-1.91
						c0.32-0.23,0.73-0.31,1.12-0.22c0.39,0.09,0.72,0.33,0.91,0.68l2.13,3.75L280,668.22z"/>
				</g>
				<path d="M126.3,336.9c-0.37,0-0.74-0.15-1.02-0.44c-4.26-4.46-7.18-10.78-8.43-18.28c-0.92-5.51-0.92-11.1-0.77-16.57
					c-3.95,3.39-7.83,6.13-12.59,7.22c-6.02,1.39-13.81-1.08-15.9-7.48c-0.98-3.01-0.61-6.48,1.12-10.61
					c3.42-8.14,9.99-14.9,18.03-18.53c0.71-0.32,1.54-0.01,1.86,0.7c0.32,0.71,0.01,1.54-0.7,1.86c-7.4,3.35-13.45,9.57-16.6,17.06
					c-1.46,3.49-1.8,6.32-1.04,8.65c1.54,4.73,7.76,6.72,12.59,5.61c5.08-1.17,9.25-4.65,13.79-8.73c0.42-0.38,1.03-0.47,1.53-0.23
					c0.51,0.24,0.83,0.76,0.81,1.32c-0.21,6.36-0.43,12.94,0.63,19.27c1.16,6.94,3.82,12.75,7.69,16.8
					c0.54,0.56,0.52,1.45-0.05,1.99C127,336.78,126.65,336.9,126.3,336.9z"/>
				<path d="M92.74,286.63c-0.51,0-1-0.28-1.25-0.76l-4.42-8.52c-0.36-0.69-0.09-1.54,0.6-1.9c0.69-0.36,1.54-0.09,1.9,0.6
					l4.42,8.52c0.36,0.69,0.09,1.54-0.6,1.9C93.17,286.57,92.95,286.63,92.74,286.63z"/>
				<path d="M102.44,331.19c-2.21,0-4.55-0.75-6.64-2.19c-2.63-1.81-4.55-4.35-6.28-6.79c-7.82-11.02-13.6-22.25-17.17-33.37
					c-0.24-0.74,0.17-1.53,0.91-1.77c0.74-0.24,1.53,0.17,1.77,0.91c3.48,10.85,9.13,21.82,16.78,32.6c1.59,2.24,3.33,4.55,5.58,6.1
					c2.32,1.6,4.97,2.11,7.08,1.36c3.21-1.14,4.8-5.03,4.7-8.28c-0.11-3.75-1.9-7.46-3.48-10.73c-0.34-0.7-0.04-1.54,0.66-1.88
					c0.7-0.34,1.54-0.04,1.88,0.66c1.7,3.52,3.63,7.52,3.76,11.87c0.12,4.14-1.88,9.36-6.57,11.02
					C104.47,331.03,103.47,331.19,102.44,331.19z"/>
				<path d="M89.23,338.51c-2.3,0-4.71-0.81-6.89-2.36c-2.54-1.81-4.46-4.36-6.06-6.61c-6.12-8.61-11.22-17.95-15.18-27.74
					c-0.29-0.72,0.06-1.54,0.78-1.83c0.72-0.29,1.54,0.06,1.83,0.78c3.87,9.59,8.87,18.73,14.86,27.17
					c1.53,2.15,3.21,4.39,5.39,5.94c2.22,1.58,4.79,2.19,6.88,1.63c2.22-0.59,3.91-2.75,3.7-4.73c-0.08-0.77,0.48-1.47,1.25-1.55
					c0.8-0.08,1.47,0.48,1.55,1.25c0.37,3.39-2.17,6.8-5.77,7.75C90.81,338.41,90.03,338.51,89.23,338.51z"/>
				<path d="M85.2,343.03c-0.34,0-0.68-0.12-0.95-0.37c-0.57-0.53-0.61-1.42-0.08-1.99c0.66-0.72,1.14-1.6,1.38-2.54
					c0.19-0.75,0.97-1.2,1.71-1.01c0.75,0.19,1.2,0.96,1.01,1.71c-0.36,1.39-1.06,2.69-2.04,3.75
					C85.96,342.88,85.58,343.03,85.2,343.03z"/>
				<path d="M114.29,321.72c-1.32,0-2.64-0.25-3.87-0.75c-0.72-0.29-1.06-1.12-0.77-1.84c0.3-0.72,1.12-1.06,1.83-0.77
					c2,0.82,4.34,0.71,6.26-0.29c0.69-0.36,1.54-0.09,1.9,0.6c0.36,0.69,0.09,1.54-0.6,1.9
					C117.58,321.33,115.93,321.72,114.29,321.72z"/>
			</g>
			<polygon fill="#009DA5" points="345.37,580.8 255.22,639.36 328.01,776.92 436.9,722.67 			"/>
		</g>
	</g>
</g>
</svg>
