<?xml version="1.0" encoding="utf-8"?>
<!-- Generator: Adobe Illustrator 27.6.1, SVG Export Plug-In . SVG Version: 6.00 Build 0)  -->
<svg version="1.1" id="Illustration" xmlns="http://www.w3.org/2000/svg" xmlns:xlink="http://www.w3.org/1999/xlink" x="0px"
	 y="0px" viewBox="0 0 1340.63 953.21" enable-background="new 0 0 1340.63 953.21" xml:space="preserve">
<g>
	<defs>
		<rect id="SVGID_1_" y="0" width="1340.63" height="953.21"/>
	</defs>
	<clipPath id="SVGID_00000147898232803983629740000018037633008143788213_">
		<use xlink:href="#SVGID_1_"  overflow="visible"/>
	</clipPath>
	<g id="Payment_processing_1_" clip-path="url(#SVGID_00000147898232803983629740000018037633008143788213_)">
		<g>
			<g>
				<g>
					<g>
						<path fill="#FFFFFF" d="M793.25,386.26H549.21c-19.45,0-35.22-15.77-35.22-35.22V217.86c0-19.45,15.77-35.22,35.22-35.22
							h244.04c19.45,0,35.22,15.77,35.22,35.22v133.19C828.47,370.5,812.7,386.26,793.25,386.26z"/>
						<path d="M793.25,387.26H549.21c-19.97,0-36.22-16.25-36.22-36.22V217.86c0-19.97,16.25-36.22,36.22-36.22h244.04
							c19.97,0,36.22,16.25,36.22,36.22v133.19C829.47,371.02,813.22,387.26,793.25,387.26z M549.21,183.64
							c-18.87,0-34.22,15.35-34.22,34.22v133.19c0,18.87,15.35,34.22,34.22,34.22h244.04c18.87,0,34.22-15.35,34.22-34.22V217.86
							c0-18.87-15.35-34.22-34.22-34.22H549.21z"/>
					</g>
					<g>
						<path fill="#FFFFFF" d="M796.23,247.66h-42.37c-7.3,0-13.22,6.4-13.22,14.3v22.33c0,7.9,5.92,14.3,13.22,14.3h42.37
							c7.3,0,13.22-6.4,13.22-14.3v-22.33C809.45,254.06,803.53,247.66,796.23,247.66z"/>
						<path d="M796.23,299.58h-42.37c-7.84,0-14.22-6.86-14.22-15.3v-22.33c0-8.43,6.38-15.3,14.22-15.3h42.37
							c7.84,0,14.22,6.86,14.22,15.3v22.33C810.45,292.72,804.07,299.58,796.23,299.58z M753.85,248.66
							c-6.74,0-12.22,5.96-12.22,13.3v22.33c0,7.33,5.48,13.3,12.22,13.3h42.37c6.74,0,12.22-5.97,12.22-13.3v-22.33
							c0-7.33-5.48-13.3-12.22-13.3H753.85z"/>
					</g>
					<g>
						<g>
							<rect x="533.01" y="314.41" fill="#FFFFFF" width="61.27" height="20.03"/>
							<path d="M594.28,335.45h-61.27c-0.55,0-1-0.45-1-1v-20.03c0-0.55,0.45-1,1-1h61.27c0.55,0,1,0.45,1,1v20.03
								C595.28,335,594.83,335.45,594.28,335.45z M534.01,333.45h59.27v-18.03h-59.27V333.45z"/>
						</g>
						<g>
							<rect x="604.73" y="314.41" fill="#FFFFFF" width="61.27" height="20.03"/>
							<path d="M666,335.45h-61.27c-0.55,0-1-0.45-1-1v-20.03c0-0.55,0.45-1,1-1H666c0.55,0,1,0.45,1,1v20.03
								C667,335,666.55,335.45,666,335.45z M605.73,333.45H665v-18.03h-59.27V333.45z"/>
						</g>
						<g>
							<rect x="676.45" y="314.41" fill="#FFFFFF" width="61.27" height="20.03"/>
							<path d="M737.72,335.45h-61.27c-0.55,0-1-0.45-1-1v-20.03c0-0.55,0.45-1,1-1h61.27c0.55,0,1,0.45,1,1v20.03
								C738.72,335,738.28,335.45,737.72,335.45z M677.45,333.45h59.27v-18.03h-59.27V333.45z"/>
						</g>
						<g>
							<rect x="748.18" y="314.41" fill="#FFFFFF" width="61.27" height="20.03"/>
							<path d="M809.45,335.45h-61.27c-0.55,0-1-0.45-1-1v-20.03c0-0.55,0.45-1,1-1h61.27c0.55,0,1,0.45,1,1v20.03
								C810.45,335,810,335.45,809.45,335.45z M749.18,333.45h59.27v-18.03h-59.27V333.45z"/>
						</g>
					</g>
					<g>
						<path d="M666,358.98H533.01c-0.55,0-1-0.45-1-1s0.45-1,1-1H666c0.55,0,1,0.45,1,1S666.55,358.98,666,358.98z"/>
					</g>
				</g>
				<g>
					
						<ellipse transform="matrix(0.7071 -0.7071 0.7071 0.7071 108.5363 637.3112)" fill="#007E84" cx="823.57" cy="187.64" rx="31.86" ry="31.86"/>
					<path fill="#FFFFFF" d="M821.6,201.2c-0.38,0-0.74-0.14-1.02-0.4l-11.03-10.23c-0.61-0.56-0.64-1.51-0.08-2.12
						c0.56-0.61,1.51-0.64,2.12-0.08l9.83,9.11l16.03-20.77c0.51-0.66,1.45-0.78,2.1-0.27c0.66,0.51,0.78,1.45,0.27,2.1
						l-17.03,22.06c-0.26,0.33-0.64,0.54-1.06,0.58C821.68,201.2,821.64,201.2,821.6,201.2z"/>
				</g>
			</g>
			<path d="M660.38,171.05c-0.55,0-1-0.45-1-1v-46.12H504.14c-0.55,0-1-0.45-1-1c0-0.55,0.45-1,1-1h156.24c0.55,0,1,0.45,1,1v47.12
				C661.38,170.6,660.93,171.05,660.38,171.05z"/>
			<g>
				<g>
					
						<ellipse transform="matrix(2.674352e-03 -1 1 2.674352e-03 87.9989 1295.2509)" fill="#E2EAFF" cx="693.36" cy="603.51" rx="10.71" ry="10.71"/>
					
						<ellipse transform="matrix(2.688739e-03 -1 1 2.688739e-03 119.1651 1326.5022)" fill="#E2EAFF" cx="724.62" cy="603.51" rx="10.71" ry="10.71"/>
					
						<ellipse transform="matrix(2.688739e-03 -1 1 2.688739e-03 150.3412 1357.7622)" fill="#009DA5" cx="755.88" cy="603.51" rx="10.71" ry="10.71"/>
				</g>
				<path d="M656.37,604.51H504.14c-0.55,0-1-0.45-1-1c0-0.55,0.45-1,1-1h152.23c0.55,0,1,0.45,1,1
					C657.37,604.06,656.93,604.51,656.37,604.51z"/>
				<path fill="#009DA5" d="M754.4,585.45c-0.55,0-1-0.45-1-1V412.02c0-0.55,0.45-1,1-1c0.55,0,1,0.45,1,1v172.43
					C755.4,585.01,754.95,585.45,754.4,585.45z"/>
			</g>
		</g>
		<g>
			<path fill="#007E84" d="M386.9,644.31H107.86c-27.97,0-50.65-22.68-50.65-50.65V147.49c0-27.97,22.68-50.65,50.65-50.65H386.9
				c27.98,0,50.65,22.68,50.65,50.65v446.17C437.55,621.64,414.88,644.31,386.9,644.31z"/>
			<g>
				<g>
					<path fill="#FFFFFF" d="M425.59,644.31H146.55c-27.97,0-50.65-22.68-50.65-50.65V147.49c0-27.97,22.68-50.65,50.65-50.65
						h279.04c27.98,0,50.65,22.68,50.65,50.65v446.17C476.24,621.64,453.56,644.31,425.59,644.31z"/>
					<path d="M425.59,645.31H146.55c-28.48,0-51.65-23.17-51.65-51.65V147.49c0-28.48,23.17-51.65,51.65-51.65h279.04
						c28.48,0,51.65,23.17,51.65,51.65v446.17C477.24,622.14,454.07,645.31,425.59,645.31z M146.55,97.83
						c-27.38,0-49.65,22.27-49.65,49.65v446.17c0,27.38,22.27,49.65,49.65,49.65h279.04c27.38,0,49.65-22.27,49.65-49.65V147.49
						c0-27.38-22.27-49.65-49.65-49.65H146.55z"/>
				</g>
				<g>
					<g>
						<path fill="#FFFFFF" d="M198.04,422.13h-29.96c-13.71,0-24.82-11.11-24.82-24.82c0-13.71,11.11-24.82,24.82-24.82h29.96
							c13.71,0,24.82,11.11,24.82,24.82C222.85,411.02,211.74,422.13,198.04,422.13z"/>
						<path d="M198.04,423.13h-29.96c-14.24,0-25.82-11.58-25.82-25.82c0-14.24,11.58-25.82,25.82-25.82h29.96
							c14.24,0,25.82,11.58,25.82,25.82C223.85,411.55,212.27,423.13,198.04,423.13z M168.08,373.5
							c-13.13,0-23.82,10.68-23.82,23.82c0,13.13,10.68,23.82,23.82,23.82h29.96c13.13,0,23.82-10.68,23.82-23.82
							c0-13.13-10.68-23.82-23.82-23.82H168.08z"/>
					</g>
					<g>
						<path fill="#FFFFFF" d="M301.05,422.13h-29.96c-13.71,0-24.82-11.11-24.82-24.82c0-13.71,11.11-24.82,24.82-24.82h29.96
							c13.71,0,24.82,11.11,24.82,24.82C325.86,411.02,314.75,422.13,301.05,422.13z"/>
						<path d="M301.05,423.13h-29.96c-14.24,0-25.82-11.58-25.82-25.82c0-14.24,11.58-25.82,25.82-25.82h29.96
							c14.24,0,25.82,11.58,25.82,25.82C326.86,411.55,315.28,423.13,301.05,423.13z M271.09,373.5
							c-13.13,0-23.82,10.68-23.82,23.82c0,13.13,10.68,23.82,23.82,23.82h29.96c13.13,0,23.82-10.68,23.82-23.82
							c0-13.13-10.68-23.82-23.82-23.82H271.09z"/>
					</g>
					<g>
						<path fill="#FFFFFF" d="M404.05,422.13h-29.96c-13.71,0-24.82-11.11-24.82-24.82c0-13.71,11.11-24.82,24.82-24.82h29.96
							c13.71,0,24.82,11.11,24.82,24.82C428.87,411.02,417.76,422.13,404.05,422.13z"/>
						<path d="M404.05,423.13h-29.96c-14.24,0-25.82-11.58-25.82-25.82c0-14.24,11.58-25.82,25.82-25.82h29.96
							c14.24,0,25.82,11.58,25.82,25.82C429.87,411.55,418.29,423.13,404.05,423.13z M374.09,373.5
							c-13.13,0-23.82,10.68-23.82,23.82c0,13.13,10.68,23.82,23.82,23.82h29.96c13.13,0,23.82-10.68,23.82-23.82
							c0-13.13-10.68-23.82-23.82-23.82H374.09z"/>
					</g>
					<g>
						<path fill="#FFFFFF" d="M198.04,487.84h-29.96c-13.71,0-24.82-11.11-24.82-24.82c0-13.71,11.11-24.82,24.82-24.82h29.96
							c13.71,0,24.82,11.11,24.82,24.82C222.85,476.73,211.74,487.84,198.04,487.84z"/>
						<path d="M198.04,488.84h-29.96c-14.24,0-25.82-11.58-25.82-25.82c0-14.24,11.58-25.82,25.82-25.82h29.96
							c14.24,0,25.82,11.58,25.82,25.82C223.85,477.26,212.27,488.84,198.04,488.84z M168.08,439.21
							c-13.13,0-23.82,10.68-23.82,23.82c0,13.13,10.68,23.82,23.82,23.82h29.96c13.13,0,23.82-10.68,23.82-23.82
							c0-13.13-10.68-23.82-23.82-23.82H168.08z"/>
					</g>
					<g>
						<path fill="#FFFFFF" d="M301.05,487.84h-29.96c-13.71,0-24.82-11.11-24.82-24.82c0-13.71,11.11-24.82,24.82-24.82h29.96
							c13.71,0,24.82,11.11,24.82,24.82C325.86,476.73,314.75,487.84,301.05,487.84z"/>
						<path d="M301.05,488.84h-29.96c-14.24,0-25.82-11.58-25.82-25.82c0-14.24,11.58-25.82,25.82-25.82h29.96
							c14.24,0,25.82,11.58,25.82,25.82C326.86,477.26,315.28,488.84,301.05,488.84z M271.09,439.21
							c-13.13,0-23.82,10.68-23.82,23.82c0,13.13,10.68,23.82,23.82,23.82h29.96c13.13,0,23.82-10.68,23.82-23.82
							c0-13.13-10.68-23.82-23.82-23.82H271.09z"/>
					</g>
					<g>
						<path fill="#FFFFFF" d="M404.05,487.84h-29.96c-13.71,0-24.82-11.11-24.82-24.82c0-13.71,11.11-24.82,24.82-24.82h29.96
							c13.71,0,24.82,11.11,24.82,24.82C428.87,476.73,417.76,487.84,404.05,487.84z"/>
						<path d="M404.05,488.84h-29.96c-14.24,0-25.82-11.58-25.82-25.82c0-14.24,11.58-25.82,25.82-25.82h29.96
							c14.24,0,25.82,11.58,25.82,25.82C429.87,477.26,418.29,488.84,404.05,488.84z M374.09,439.21
							c-13.13,0-23.82,10.68-23.82,23.82c0,13.13,10.68,23.82,23.82,23.82h29.96c13.13,0,23.82-10.68,23.82-23.82
							c0-13.13-10.68-23.82-23.82-23.82H374.09z"/>
					</g>
					<g>
						<path fill="#FFFFFF" d="M198.04,553.26h-29.96c-13.71,0-24.82-11.11-24.82-24.82c0-13.71,11.11-24.82,24.82-24.82h29.96
							c13.71,0,24.82,11.11,24.82,24.82C222.85,542.15,211.74,553.26,198.04,553.26z"/>
						<path d="M198.04,554.26h-29.96c-14.24,0-25.82-11.58-25.82-25.82c0-14.24,11.58-25.82,25.82-25.82h29.96
							c14.24,0,25.82,11.58,25.82,25.82C223.85,542.68,212.27,554.26,198.04,554.26z M168.08,504.63
							c-13.13,0-23.82,10.68-23.82,23.82s10.68,23.82,23.82,23.82h29.96c13.13,0,23.82-10.68,23.82-23.82s-10.68-23.82-23.82-23.82
							H168.08z"/>
					</g>
					<g>
						<path fill="#FFFFFF" d="M301.05,553.26h-29.96c-13.71,0-24.82-11.11-24.82-24.82c0-13.71,11.11-24.82,24.82-24.82h29.96
							c13.71,0,24.82,11.11,24.82,24.82C325.86,542.15,314.75,553.26,301.05,553.26z"/>
						<path d="M301.05,554.26h-29.96c-14.24,0-25.82-11.58-25.82-25.82c0-14.24,11.58-25.82,25.82-25.82h29.96
							c14.24,0,25.82,11.58,25.82,25.82C326.86,542.68,315.28,554.26,301.05,554.26z M271.09,504.63
							c-13.13,0-23.82,10.68-23.82,23.82s10.68,23.82,23.82,23.82h29.96c13.13,0,23.82-10.68,23.82-23.82s-10.68-23.82-23.82-23.82
							H271.09z"/>
					</g>
					<g>
						<path fill="#FFFFFF" d="M404.05,553.26h-29.96c-13.71,0-24.82-11.11-24.82-24.82c0-13.71,11.11-24.82,24.82-24.82h29.96
							c13.71,0,24.82,11.11,24.82,24.82C428.87,542.15,417.76,553.26,404.05,553.26z"/>
						<path d="M404.05,554.26h-29.96c-14.24,0-25.82-11.58-25.82-25.82c0-14.24,11.58-25.82,25.82-25.82h29.96
							c14.24,0,25.82,11.58,25.82,25.82C429.87,542.68,418.29,554.26,404.05,554.26z M374.09,504.63
							c-13.13,0-23.82,10.68-23.82,23.82s10.68,23.82,23.82,23.82h29.96c13.13,0,23.82-10.68,23.82-23.82s-10.68-23.82-23.82-23.82
							H374.09z"/>
					</g>
					<g>
						<path fill="#FFFFFF" d="M198.04,618.69h-29.96c-13.71,0-24.82-11.11-24.82-24.82c0-13.71,11.11-24.82,24.82-24.82h29.96
							c13.71,0,24.82,11.11,24.82,24.82C222.85,607.58,211.74,618.69,198.04,618.69z"/>
						<path d="M198.04,619.69h-29.96c-14.24,0-25.82-11.58-25.82-25.82c0-14.24,11.58-25.82,25.82-25.82h29.96
							c14.24,0,25.82,11.58,25.82,25.82C223.85,608.11,212.27,619.69,198.04,619.69z M168.08,570.05
							c-13.13,0-23.82,10.68-23.82,23.82s10.68,23.82,23.82,23.82h29.96c13.13,0,23.82-10.68,23.82-23.82s-10.68-23.82-23.82-23.82
							H168.08z"/>
					</g>
					<g>
						<path fill="#FFFFFF" d="M301.05,618.69h-29.96c-13.71,0-24.82-11.11-24.82-24.82c0-13.71,11.11-24.82,24.82-24.82h29.96
							c13.71,0,24.82,11.11,24.82,24.82C325.86,607.58,314.75,618.69,301.05,618.69z"/>
						<path d="M301.05,619.69h-29.96c-14.24,0-25.82-11.58-25.82-25.82c0-14.24,11.58-25.82,25.82-25.82h29.96
							c14.24,0,25.82,11.58,25.82,25.82C326.86,608.11,315.28,619.69,301.05,619.69z M271.09,570.05
							c-13.13,0-23.82,10.68-23.82,23.82s10.68,23.82,23.82,23.82h29.96c13.13,0,23.82-10.68,23.82-23.82s-10.68-23.82-23.82-23.82
							H271.09z"/>
					</g>
					<path fill="none" stroke="#000000" stroke-width="2" stroke-miterlimit="10" d="M404.05,618.69h-29.96
						c-13.71,0-24.82-11.11-24.82-24.82c0-13.71,11.11-24.82,24.82-24.82h29.96c13.71,0,24.82,11.11,24.82,24.82
						C428.87,607.58,417.76,618.69,404.05,618.69z"/>
				</g>
				<g>
					<path fill="#E2EAFF" d="M428.87,166.75v145.4c0,16.5-13.38,29.87-29.88,29.87H173.14c-7.88,0-15.05-3.05-20.38-8.04
						c-4.32-4.02-7.45-9.33-8.77-15.31c-0.47-2.1-0.72-4.29-0.72-6.53v-145.4c0-16.5,13.37-29.87,29.87-29.87h225.85
						C415.49,136.87,428.87,150.25,428.87,166.75z"/>
					<polygon fill="#FFFFFF" points="143.26,279.6 285.99,136.87 242.47,136.87 143.26,236.08 					"/>
					<path fill="#FFFFFF" d="M349.87,136.87L152.76,333.98c-4.32-4.02-7.45-9.33-8.77-15.31l181.79-181.8H349.87z"/>
					<path d="M143.98,203.2c-0.54,0-0.99-0.43-1-0.98l-0.72-35.45c0.02-0.38,1.78-30.89,30.87-30.89l215.93,0v2l-215.93,0
						c-27.18,0-28.82,27.74-28.88,28.92l0.72,35.38c0.01,0.55-0.43,1.01-0.98,1.02C144,203.2,143.99,203.2,143.98,203.2z"/>
					<path d="M312.71,343.02c-0.55,0-1-0.45-1-1c0-0.55,0.45-1,1-1h86.28c1.12-0.08,28.88-2.25,28.88-28.87v-76.72
						c0-0.55,0.45-1,1-1c0.55,0,1,0.45,1,1v76.72c0,28.51-30.51,30.85-30.82,30.87L312.71,343.02z"/>
				</g>
			</g>
		</g>
		<g>
			<path d="M1286.37,257.36c-14.99-14.49-38.46-17.15-58.64-11.91c-21.01,5.46-39.68,18.93-52.04,36.71
				c-11.04,15.87-21.34,38.46-12.04,57.33c5.95,12.07,17.9,20.53,30.86,24.18c12.95,3.65,26.83,2.88,39.96-0.06
				c23.57-5.27,46.36-18.37,58.42-39.3C1304.96,303.39,1303.74,274.15,1286.37,257.36z"/>
			<path d="M1147.22,251.33c-25.98-23.39-66.1-29.6-97.94-15.17c-15.08,6.83-28.75,18.71-33.56,34.55
				c-4.81,15.84,1.67,35.53,16.85,42.14c-7.95,2.19-10.13,13.66-5.41,20.42c4.72,6.76,13.57,9.33,21.81,9.64
				c8.26,0.31,16.83-1.13,24.62,1.63c5.72,2.03,10.42,6.13,15.15,9.95c13.47,10.87,29.23,20.34,46.53,20.89
				c48.55,1.56,47.45-63.3,33.18-94.75C1163.44,269.57,1156.26,259.46,1147.22,251.33z"/>
			<g>
				<path fill="#FFFFFF" d="M919.31,926.33l56.71-225.76l191.41,38.94c43.44,57.45,60.67,127.44,66.78,186.81H919.31z"/>
				<path d="M1233.34,920.81c-0.51,0-0.94-0.39-0.99-0.9c-3.82-38.96-13.03-77.21-26.64-110.62c-6.91-16.96-15.15-33.25-24.5-48.42
					c-2.36-3.83-4.85-7.68-7.39-11.43c-0.48-0.71-0.97-1.52-1.49-2.38c-1.83-3.01-4.1-6.77-6.8-7.32
					c-10.18-2.1-20.37-4.17-30.57-6.23c-21.08-4.26-42.53-8.51-63.28-12.63c-19.34-3.84-39.34-7.81-59.01-11.77
					c-10.2-2.05-20.39-4.12-30.58-6.21l-4.17-0.86c-0.27-0.06-0.5-0.11-0.7-0.16c-0.11-0.03-0.22-0.05-0.32-0.07
					c-0.08,0.16-0.19,0.39-0.29,0.61c-0.62,1.35-0.94,3.11-1.25,4.81c-0.16,0.89-0.31,1.73-0.5,2.52
					c-1.22,5.02-2.45,10.03-3.69,15.04c-5.31,21.46-10.69,42.44-15.25,60.14c-1.96,7.58-3.91,15.16-5.88,22.74
					c-8.23,31.83-16.75,64.75-24.64,97.23c-1.21,4.98-2.41,9.96-3.59,14.95c-0.13,0.54-0.67,0.87-1.2,0.74
					c-0.54-0.13-0.87-0.67-0.74-1.2c1.19-4.99,2.39-9.98,3.6-14.96c7.9-32.5,16.41-65.42,24.65-97.26
					c1.96-7.58,3.92-15.16,5.87-22.73c4.56-17.69,9.94-38.67,15.25-60.12c1.24-5.01,2.47-10.02,3.69-15.03
					c0.18-0.74,0.33-1.55,0.48-2.41c0.33-1.82,0.67-3.71,1.4-5.3c0.73-1.58,1.11-2.05,2.88-1.64c0.18,0.04,0.39,0.09,0.64,0.14
					l4.17,0.86c10.19,2.09,20.37,4.16,30.57,6.21c19.66,3.96,39.66,7.93,59,11.77c20.75,4.12,42.2,8.37,63.29,12.63
					c10.2,2.06,20.39,4.13,30.58,6.23c3.56,0.73,6.08,4.9,8.11,8.25c0.51,0.84,0.98,1.63,1.43,2.29c2.56,3.77,5.06,7.64,7.44,11.5
					c9.41,15.26,17.7,31.65,24.65,48.71c13.68,33.59,22.94,72.04,26.78,111.18c0.05,0.55-0.35,1.04-0.9,1.09
					C1233.4,920.8,1233.37,920.81,1233.34,920.81z"/>
				<path d="M1054.33,920.81c-0.03,0-0.06,0-0.09,0c-0.55-0.05-0.96-0.54-0.91-1.09l0.21-2.31c0.62-6.63,1.26-13.48,0.83-20.2
					c-1.53-23.99-22.4-33.83-40.4-39.73c-0.52-0.17-0.81-0.74-0.64-1.26c0.17-0.52,0.73-0.82,1.26-0.64
					c18.6,6.09,40.16,16.31,41.77,41.5c0.44,6.88-0.21,13.81-0.83,20.51l-0.21,2.31C1055.27,920.42,1054.84,920.81,1054.33,920.81z"
					/>
			</g>
			<g>
				<g>
					<g>
						<path fill="#FFFFFF" d="M1121.52,352.3l28.34,97.3c0,0-54.1,66.68-94.87,64.05c-40.77-2.63-33.17-48.78-2.79-63.1l29.65-8.59
							l-8.84-76.27L1121.52,352.3z"/>
						<path d="M1057.39,514.73c-0.83,0-1.65-0.03-2.47-0.08c-15.75-1.02-26.15-8.78-28.54-21.3c-3.11-16.33,8.04-35.52,25.38-43.7
							c0.05-0.02,0.1-0.04,0.15-0.06l28.84-8.35l-8.75-75.43c-0.06-0.49,0.25-0.95,0.73-1.08l48.51-13.39
							c0.52-0.14,1.07,0.16,1.23,0.68l28.34,97.3c0.09,0.31,0.02,0.65-0.18,0.91C1148.46,452.92,1097.83,514.72,1057.39,514.73z
							 M1052.55,451.49c-16.51,7.83-27.14,26.04-24.2,41.49c2.23,11.73,11.72,18.72,26.7,19.68c38.17,2.44,89.09-57.74,93.69-63.28
							l-27.92-95.85l-46.74,12.9l8.75,75.42c0.06,0.49-0.25,0.94-0.71,1.08L1052.55,451.49z"/>
					</g>
				</g>
				<g>
					<g>
						<path fill="#FFFFFF" d="M1035.82,332.13c-2.05,11.2-2.11,22.99,1.67,33.72c3.78,10.74,11.75,20.3,22.38,24.37
							c9.22,3.52,19.77,2.68,28.88-1.13s16.86-10.38,23.19-17.95c9.72,3.46,21.57-0.57,27.17-9.24c3.23-5,4.37-11.65,1.73-16.99
							c-2.64-5.34-9.58-8.53-14.97-5.99c-3.07,1.45-5.25,4.41-8.38,5.73c-3.48,1.47-7.64,0.6-10.78-1.51
							c-3.14-2.11-5.4-5.3-7.19-8.63c-5.67-10.48-7.35-23.05-4.65-34.65c-0.26,1.1-6.08,2.75-7.12,3.1
							c-2.61,0.88-5.3,1.54-8.03,1.96c-5.37,0.83-10.89,0.78-16.24-0.15c-2.72-0.47-5.4-1.17-8-2.09c-2.07-0.73-4.74-2.69-6.94-2.71
							c-4.6-0.05-5.97,8.33-7.08,11.58C1039.15,318.28,1037.11,325.13,1035.82,332.13z"/>
						<path d="M1072.41,393.45c-4.51,0-8.89-0.76-12.89-2.29c-10.25-3.92-18.84-13.25-22.97-24.97c-3.49-9.9-4.07-21.42-1.71-34.23
							c1.12-6.11,2.92-12.7,5.67-20.73c0.19-0.55,0.38-1.25,0.6-2.03c1.14-4.07,2.85-10.22,7.38-10.22c0.02,0,0.04,0,0.05,0
							c1.66,0.02,3.38,0.89,5.04,1.73c0.81,0.41,1.57,0.8,2.23,1.03c2.52,0.89,5.16,1.58,7.83,2.05c5.29,0.92,10.64,0.97,15.92,0.15
							c2.68-0.42,5.33-1.06,7.86-1.92c0.15-0.05,0.4-0.13,0.71-0.22c4.19-1.31,5.48-1.97,5.8-2.3c0.18-0.45,0.67-0.72,1.16-0.6
							c0.54,0.12,0.87,0.66,0.75,1.2c0,0,0,0,0,0c-2.64,11.33-0.97,23.71,4.56,33.95c2.12,3.92,4.3,6.55,6.87,8.28
							c3.14,2.11,6.91,2.65,9.84,1.42c1.49-0.63,2.76-1.68,4.11-2.79c1.3-1.07,2.64-2.17,4.23-2.92c5.66-2.67,13.27,0.34,16.29,6.45
							c2.63,5.32,1.94,12.2-1.79,17.98c-5.68,8.79-17.72,13.04-27.69,9.86c-7.03,8.28-14.81,14.23-23.13,17.71
							C1083.68,392.3,1077.95,393.45,1072.41,393.45z M1036.81,332.32c-2.29,12.47-1.74,23.64,1.63,33.21
							c3.93,11.17,12.08,20.05,21.79,23.77c8.45,3.23,18.7,2.82,28.13-1.12c8.2-3.42,15.87-9.37,22.81-17.67
							c0.27-0.32,0.71-0.44,1.1-0.3c9.25,3.29,20.67-0.6,26-8.84c3.3-5.11,3.96-11.39,1.67-16c-2.51-5.08-9.01-7.71-13.64-5.52
							c-1.36,0.64-2.55,1.62-3.81,2.66c-1.4,1.15-2.85,2.35-4.61,3.09c-3.54,1.5-8.04,0.88-11.73-1.6
							c-2.85-1.91-5.24-4.77-7.52-8.98c-5.37-9.94-7.24-21.81-5.25-32.94c-1.09,0.47-2.6,1-4.67,1.65
							c-0.29,0.09-0.52,0.16-0.66,0.21c-2.64,0.89-5.39,1.57-8.19,2c-5.49,0.85-11.07,0.8-16.57-0.16c-2.79-0.48-5.54-1.2-8.16-2.13
							c-0.79-0.28-1.6-0.69-2.47-1.13c-1.45-0.74-2.96-1.5-4.15-1.52c-0.01,0-0.02,0-0.03,0c-3.01,0-4.48,5.27-5.46,8.75
							c-0.23,0.83-0.44,1.57-0.64,2.14C1039.69,319.81,1037.91,326.3,1036.81,332.32z M1093.9,299.64
							C1093.9,299.64,1093.9,299.64,1093.9,299.64C1093.9,299.64,1093.9,299.64,1093.9,299.64z"/>
					</g>
					<g>
						<path fill="#FFFFFF" d="M1128.37,353.01c-5.42-0.27-10.86,2.99-13.17,7.91L1128.37,353.01z"/>
						<path d="M1115.2,361.92c-0.14,0-0.29-0.03-0.42-0.09c-0.5-0.23-0.71-0.83-0.48-1.33c2.48-5.29,8.29-8.78,14.12-8.48
							c0.55,0.03,0.98,0.5,0.95,1.05c-0.03,0.55-0.52,0.98-1.05,0.95c-5.03-0.25-10.07,2.76-12.21,7.33
							C1115.94,361.71,1115.58,361.92,1115.2,361.92z"/>
					</g>
				</g>
			</g>
			<g>
				<path fill="#007E84" d="M1195.47,761.13c19.94-10.4,32.55-30.78,42.1-51.14c22.44-47.86,33.33-100.9,33.17-153.76
					c-0.08-26.21-3.34-53.79-18.66-75.06c-16.58-23.02-44.93-34.97-72.99-39.2c-11.3-1.7-23.3-2.24-33.71,2.46
					c-13.54,6.1-21.78,19.68-31.98,30.48c-11.86,12.55-27.17,21.82-43.79,26.51c-10.61,3-23.43,3.74-30.36-6.44
					c-3.1-4.55-4.07-10.2-3.34-15.66c1.53-11.47,9.02-20.31,16.3-28.78c-13.97-2.26-28.34,3.32-39.37,12.19
					c-11.03,8.86-19.19,20.75-26.62,32.79c-22.72,36.8-40.18,76.67-54.16,117.6c-4.94,14.48-9.52,29.61-7.94,44.82
					c1.78,17.22,4.98,33.65,17.69,45.4c4.11,3.8,8.02,7.2,11.43,10.07c6.49,5.45,14.97,7.72,23.36,6.57
					c46.16-6.35,157.83,29.85,167.28,37.51C1158.09,769.01,1179.57,769.42,1195.47,761.13z"/>
				<path d="M1149.86,620.32c-0.1,0-0.2-0.01-0.3-0.05c-0.53-0.17-0.82-0.73-0.65-1.26l22.06-69.26c0.17-0.53,0.73-0.82,1.26-0.65
					c0.53,0.17,0.82,0.73,0.65,1.26l-22.06,69.26C1150.67,620.04,1150.28,620.32,1149.86,620.32z"/>
				<path d="M993.96,593.75c-0.05,0-0.09,0-0.14-0.01c-0.55-0.08-0.93-0.59-0.85-1.13c2.78-19.35,7.56-38.49,14.2-56.88
					c0.19-0.52,0.76-0.79,1.28-0.6c0.52,0.19,0.79,0.76,0.6,1.28c-6.6,18.26-11.34,37.26-14.1,56.49
					C994.88,593.39,994.45,593.75,993.96,593.75z"/>
				<g>
					<path fill="#FFFFFF" d="M1142.4,741.08c-0.77,2.53-1.88,5.39-4.39,6.22c-1.99,0.65-4.39,0.2-6.01-1.12
						c-34.74-28.35-62.44-46.6-103.59-64.31c-5.23-2.25,3.03,20.59-26.73,0.2c-4.69-3.22-0.77-12.82,4.84-13.76
						c-4.64-0.65-8.61-4.67-9.2-9.32c-0.59-4.65,2.24-9.53,6.57-11.33c-4.5,0.84-8.68-3.64-8.9-8.21c-0.22-4.57,2.49-8.8,5.75-12.01
						c-12.44,6.04-29.89,23.65-39.76,11.78c-2.64-12.03,5.77-18.43,15.1-26.46c9.33-8.03,21.49-12.01,33.59-14.29
						c26.9-5.06,54.93-2.54,81.22,5.08c23.14,6.7,45.17,17.24,65.6,29.93c5.02,3.12,6.7,3.79,6.78,9.59
						c0.08,6.21-1.74,13.05-2.7,19.18c-2.02,12.76-4.46,25.45-7.32,38.05C1150.13,714.01,1146.51,727.62,1142.4,741.08z"/>
					<path d="M1027.67,682.4c-0.1,0-0.2-0.01-0.3-0.05l-11.9-3.8c-0.53-0.17-0.82-0.73-0.65-1.26c0.17-0.53,0.73-0.82,1.26-0.65
						l11.9,3.8c0.53,0.17,0.82,0.73,0.65,1.26C1028.49,682.13,1028.09,682.4,1027.67,682.4z"/>
					<path d="M1205.87,664.4c-0.22,0-0.45-0.07-0.63-0.23c-11.81-9.69-24.8-17.9-38.63-24.39c-0.5-0.24-0.71-0.83-0.48-1.33
						c0.24-0.5,0.83-0.71,1.33-0.48c13.98,6.57,27.11,14.86,39.05,24.66c0.43,0.35,0.49,0.98,0.14,1.41
						C1206.44,664.28,1206.16,664.4,1205.87,664.4z"/>
				</g>
				<g>
					<path fill="#FFFFFF" d="M990.82,693.12c-0.19,7.85-2.43,16.26-8.63,21.08c-7.97,6.21-19.39,4.45-29.09,1.65
						c-46.07-13.25-87.61-38.79-111.5-80.35c-0.99-1.72-9.75-22.73-6.16-27.47c3.38-4.46,11.76,4.01,17.24,5.16
						c23.72,4.98,47.13,11.45,70.04,19.35c11.78,4.06,23.43,8.5,34.92,13.32c8.79,3.68,16.26,4.67,22.13,12.64
						C987.08,668.42,991.12,680.79,990.82,693.12z"/>
					<path d="M953.1,716.86c-0.09,0-0.18-0.01-0.28-0.04c-51.45-14.79-90.21-42.74-112.09-80.82c-0.12-0.21-10.42-22.86-6.09-28.57
						c0.33-0.44,0.96-0.53,1.4-0.19c0.44,0.33,0.53,0.96,0.19,1.4c-3.02,3.99,4.83,23.92,6.23,26.37
						c21.62,37.62,59.97,65.24,110.91,79.89c0.53,0.15,0.84,0.71,0.68,1.24C953.94,716.57,953.54,716.86,953.1,716.86z"/>
					<path d="M810.89,567.85h84.69c1.81,0,3.51,0.83,4.63,2.25l68.27,86.86c3.03,3.86,0.28,9.52-4.63,9.52h-81.76
						c-1.76,0-3.43-0.79-4.55-2.15l-71.2-86.86C803.19,573.62,805.93,567.85,810.89,567.85z"/>
					<path fill="#FFFFFF" d="M846.9,579.03c1.02-0.93,2.47-1.85,3.68-1.19c1.06,0.57,1.25,1.98,1.32,3.18
						c0.67,11.76,1.35,23.52,2.02,35.28c-0.14-10.52,2.59-21.4,9.4-29.41c1.68-1.97,4.64-3.83,6.62-2.17c1.19,1,1.29,2.78,1.22,4.34
						c-0.58,13.2-5.87,26.85-1.23,39.22c0.83-7.87,2.7-15.62,5.55-23c1.17-3.02,2.61-6.13,5.25-8.01c2.64-1.88,6.8-1.99,8.77,0.58
						c2.1,2.73,0.8,6.62-0.35,9.86c-3.34,9.4-4.76,19.47-4.14,29.43c1.28-7.78,2.88-16.16,8.68-21.5c1.7-1.56,3.8-2.82,6.1-3.01
						c2.3-0.19,4.8,0.9,5.79,2.98c1.1,2.29,0.19,4.98-0.54,7.41c-2.83,9.38-2.76,19.57-0.02,28.96c2.06,7.04,10.88,16.52,1.55,22.01
						c-3.2,1.89-7.16,2.03-10.83,1.51c-10.39-1.49-19.43-7.77-27.55-14.42c-8.3-6.79-16.17-14.25-22.23-23.1
						c-6.05-8.85-10.22-19.22-10.53-29.93C835.14,597.32,838.99,586.27,846.9,579.03z"/>
				</g>
			</g>
		</g>
		<g display="none">
			<g display="inline">
				<g>
					<g>
						<g>
							<path fill="#FFFFFF" d="M588.04,754.91H438.53c-6.99,0-12.66-5.67-12.66-12.66v-10.23c0-6.99,5.67-12.66,12.66-12.66h149.51
								c6.99,0,12.66,5.67,12.66,12.66v10.23C600.7,749.25,595.03,754.91,588.04,754.91z"/>
							<path d="M588.04,755.91H438.53c-7.53,0-13.66-6.13-13.66-13.66v-10.23c0-7.53,6.13-13.66,13.66-13.66h149.51
								c7.53,0,13.66,6.13,13.66,13.66v10.23C601.7,749.79,595.57,755.91,588.04,755.91z M438.53,720.36
								c-6.43,0-11.66,5.23-11.66,11.66v10.23c0,6.43,5.23,11.66,11.66,11.66h149.51c6.43,0,11.66-5.23,11.66-11.66v-10.23
								c0-6.43-5.23-11.66-11.66-11.66H438.53z"/>
						</g>
						<g>
							<g>
								<path fill="#E2EAFF" d="M441.77,751.02c-0.55,0-1-0.45-1-1v-25.77c0-0.55,0.45-1,1-1c0.55,0,1,0.45,1,1v25.77
									C442.77,750.58,442.32,751.02,441.77,751.02z"/>
							</g>
							<path fill="#E2EAFF" d="M459.64,751.02c-0.55,0-1-0.45-1-1v-25.77c0-0.55,0.45-1,1-1c0.55,0,1,0.45,1,1v25.77
								C460.64,750.58,460.2,751.02,459.64,751.02z"/>
							<path fill="#E2EAFF" d="M477.52,751.02c-0.55,0-1-0.45-1-1v-25.77c0-0.55,0.45-1,1-1c0.55,0,1,0.45,1,1v25.77
								C478.52,750.58,478.08,751.02,477.52,751.02z"/>
							<path fill="#E2EAFF" d="M495.4,751.02c-0.55,0-1-0.45-1-1v-25.77c0-0.55,0.45-1,1-1c0.55,0,1,0.45,1,1v25.77
								C496.4,750.58,495.96,751.02,495.4,751.02z"/>
							<path fill="#E2EAFF" d="M513.28,751.02c-0.55,0-1-0.45-1-1v-25.77c0-0.55,0.45-1,1-1c0.55,0,1,0.45,1,1v25.77
								C514.28,750.58,513.84,751.02,513.28,751.02z"/>
							<path fill="#E2EAFF" d="M531.16,751.02c-0.55,0-1-0.45-1-1v-25.77c0-0.55,0.45-1,1-1c0.55,0,1,0.45,1,1v25.77
								C532.16,750.58,531.72,751.02,531.16,751.02z"/>
							<path fill="#E2EAFF" d="M549.04,751.02c-0.55,0-1-0.45-1-1v-25.77c0-0.55,0.45-1,1-1c0.55,0,1,0.45,1,1v25.77
								C550.04,750.58,549.6,751.02,549.04,751.02z"/>
							<path fill="#E2EAFF" d="M566.92,751.02c-0.55,0-1-0.45-1-1v-25.77c0-0.55,0.45-1,1-1c0.55,0,1,0.45,1,1v25.77
								C567.92,750.58,567.48,751.02,566.92,751.02z"/>
							<path fill="#E2EAFF" d="M584.8,751.02c-0.55,0-1-0.45-1-1v-25.77c0-0.55,0.45-1,1-1c0.55,0,1,0.45,1,1v25.77
								C585.8,750.58,585.36,751.02,584.8,751.02z"/>
						</g>
					</g>
				</g>
				<g>
					<g>
						<g>
							<path fill="#FFFFFF" d="M588.04,797.78H438.53c-6.99,0-12.66-5.67-12.66-12.66v-10.23c0-6.99,5.67-12.66,12.66-12.66h149.51
								c6.99,0,12.66,5.67,12.66,12.66v10.23C600.7,792.12,595.03,797.78,588.04,797.78z"/>
							<path d="M588.04,798.78H438.53c-7.53,0-13.66-6.13-13.66-13.66v-10.23c0-7.53,6.13-13.66,13.66-13.66h149.51
								c7.53,0,13.66,6.13,13.66,13.66v10.23C601.7,792.66,595.57,798.78,588.04,798.78z M438.53,763.23
								c-6.43,0-11.66,5.23-11.66,11.66v10.23c0,6.43,5.23,11.66,11.66,11.66h149.51c6.43,0,11.66-5.23,11.66-11.66v-10.23
								c0-6.43-5.23-11.66-11.66-11.66H438.53z"/>
						</g>
						<g>
							<g>
								<path fill="#E2EAFF" d="M441.77,793.89c-0.55,0-1-0.45-1-1v-25.77c0-0.55,0.45-1,1-1c0.55,0,1,0.45,1,1v25.77
									C442.77,793.45,442.32,793.89,441.77,793.89z"/>
							</g>
							<path fill="#E2EAFF" d="M459.64,793.89c-0.55,0-1-0.45-1-1v-25.77c0-0.55,0.45-1,1-1c0.55,0,1,0.45,1,1v25.77
								C460.64,793.45,460.2,793.89,459.64,793.89z"/>
							<path fill="#E2EAFF" d="M477.52,793.89c-0.55,0-1-0.45-1-1v-25.77c0-0.55,0.45-1,1-1c0.55,0,1,0.45,1,1v25.77
								C478.52,793.45,478.08,793.89,477.52,793.89z"/>
							<path fill="#E2EAFF" d="M495.4,793.89c-0.55,0-1-0.45-1-1v-25.77c0-0.55,0.45-1,1-1c0.55,0,1,0.45,1,1v25.77
								C496.4,793.45,495.96,793.89,495.4,793.89z"/>
							<path fill="#E2EAFF" d="M513.28,793.89c-0.55,0-1-0.45-1-1v-25.77c0-0.55,0.45-1,1-1c0.55,0,1,0.45,1,1v25.77
								C514.28,793.45,513.84,793.89,513.28,793.89z"/>
							<path fill="#E2EAFF" d="M531.16,793.89c-0.55,0-1-0.45-1-1v-25.77c0-0.55,0.45-1,1-1c0.55,0,1,0.45,1,1v25.77
								C532.16,793.45,531.72,793.89,531.16,793.89z"/>
							<path fill="#E2EAFF" d="M549.04,793.89c-0.55,0-1-0.45-1-1v-25.77c0-0.55,0.45-1,1-1c0.55,0,1,0.45,1,1v25.77
								C550.04,793.45,549.6,793.89,549.04,793.89z"/>
							<path fill="#E2EAFF" d="M566.92,793.89c-0.55,0-1-0.45-1-1v-25.77c0-0.55,0.45-1,1-1c0.55,0,1,0.45,1,1v25.77
								C567.92,793.45,567.48,793.89,566.92,793.89z"/>
							<path fill="#E2EAFF" d="M584.8,793.89c-0.55,0-1-0.45-1-1v-25.77c0-0.55,0.45-1,1-1c0.55,0,1,0.45,1,1v25.77
								C585.8,793.45,585.36,793.89,584.8,793.89z"/>
						</g>
					</g>
				</g>
				<g>
					<g>
						<g>
							<path fill="#FFFFFF" d="M588.04,840.66H438.53c-6.99,0-12.66-5.67-12.66-12.66v-10.23c0-6.99,5.67-12.66,12.66-12.66h149.51
								c6.99,0,12.66,5.67,12.66,12.66V828C600.7,834.99,595.03,840.66,588.04,840.66z"/>
							<path d="M588.04,841.66H438.53c-7.53,0-13.66-6.13-13.66-13.66v-10.23c0-7.53,6.13-13.66,13.66-13.66h149.51
								c7.53,0,13.66,6.13,13.66,13.66V828C601.7,835.53,595.57,841.66,588.04,841.66z M438.53,806.1
								c-6.43,0-11.66,5.23-11.66,11.66V828c0,6.43,5.23,11.66,11.66,11.66h149.51c6.43,0,11.66-5.23,11.66-11.66v-10.23
								c0-6.43-5.23-11.66-11.66-11.66H438.53z"/>
						</g>
						<g>
							<g>
								<path fill="#E2EAFF" d="M441.77,836.76c-0.55,0-1-0.45-1-1V810c0-0.55,0.45-1,1-1c0.55,0,1,0.45,1,1v25.77
									C442.77,836.32,442.32,836.76,441.77,836.76z"/>
							</g>
							<path fill="#E2EAFF" d="M459.64,836.76c-0.55,0-1-0.45-1-1V810c0-0.55,0.45-1,1-1c0.55,0,1,0.45,1,1v25.77
								C460.64,836.32,460.2,836.76,459.64,836.76z"/>
							<path fill="#E2EAFF" d="M477.52,836.76c-0.55,0-1-0.45-1-1V810c0-0.55,0.45-1,1-1c0.55,0,1,0.45,1,1v25.77
								C478.52,836.32,478.08,836.76,477.52,836.76z"/>
							<path fill="#E2EAFF" d="M495.4,836.76c-0.55,0-1-0.45-1-1V810c0-0.55,0.45-1,1-1c0.55,0,1,0.45,1,1v25.77
								C496.4,836.32,495.96,836.76,495.4,836.76z"/>
							<path fill="#E2EAFF" d="M513.28,836.76c-0.55,0-1-0.45-1-1V810c0-0.55,0.45-1,1-1c0.55,0,1,0.45,1,1v25.77
								C514.28,836.32,513.84,836.76,513.28,836.76z"/>
							<path fill="#E2EAFF" d="M531.16,836.76c-0.55,0-1-0.45-1-1V810c0-0.55,0.45-1,1-1c0.55,0,1,0.45,1,1v25.77
								C532.16,836.32,531.72,836.76,531.16,836.76z"/>
							<path fill="#E2EAFF" d="M549.04,836.76c-0.55,0-1-0.45-1-1V810c0-0.55,0.45-1,1-1c0.55,0,1,0.45,1,1v25.77
								C550.04,836.32,549.6,836.76,549.04,836.76z"/>
							<path fill="#E2EAFF" d="M566.92,836.76c-0.55,0-1-0.45-1-1V810c0-0.55,0.45-1,1-1c0.55,0,1,0.45,1,1v25.77
								C567.92,836.32,567.48,836.76,566.92,836.76z"/>
							<path fill="#E2EAFF" d="M584.8,836.76c-0.55,0-1-0.45-1-1V810c0-0.55,0.45-1,1-1c0.55,0,1,0.45,1,1v25.77
								C585.8,836.32,585.36,836.76,584.8,836.76z"/>
						</g>
					</g>
				</g>
				<g>
					<g>
						<g>
							<path fill="#FFFFFF" d="M588.04,883.53H438.53c-6.99,0-12.66-5.67-12.66-12.66v-10.23c0-6.99,5.67-12.66,12.66-12.66h149.51
								c6.99,0,12.66,5.67,12.66,12.66v10.23C600.7,877.86,595.03,883.53,588.04,883.53z"/>
							<path d="M588.04,884.53H438.53c-7.53,0-13.66-6.13-13.66-13.66v-10.23c0-7.53,6.13-13.66,13.66-13.66h149.51
								c7.53,0,13.66,6.13,13.66,13.66v10.23C601.7,878.4,595.57,884.53,588.04,884.53z M438.53,848.98
								c-6.43,0-11.66,5.23-11.66,11.66v10.23c0,6.43,5.23,11.66,11.66,11.66h149.51c6.43,0,11.66-5.23,11.66-11.66v-10.23
								c0-6.43-5.23-11.66-11.66-11.66H438.53z"/>
						</g>
						<g>
							<g>
								<path fill="#E2EAFF" d="M441.77,879.63c-0.55,0-1-0.45-1-1v-25.77c0-0.55,0.45-1,1-1c0.55,0,1,0.45,1,1v25.77
									C442.77,879.19,442.32,879.63,441.77,879.63z"/>
							</g>
							<path fill="#E2EAFF" d="M459.64,879.63c-0.55,0-1-0.45-1-1v-25.77c0-0.55,0.45-1,1-1c0.55,0,1,0.45,1,1v25.77
								C460.64,879.19,460.2,879.63,459.64,879.63z"/>
							<path fill="#E2EAFF" d="M477.52,879.63c-0.55,0-1-0.45-1-1v-25.77c0-0.55,0.45-1,1-1c0.55,0,1,0.45,1,1v25.77
								C478.52,879.19,478.08,879.63,477.52,879.63z"/>
							<path fill="#E2EAFF" d="M495.4,879.63c-0.55,0-1-0.45-1-1v-25.77c0-0.55,0.45-1,1-1c0.55,0,1,0.45,1,1v25.77
								C496.4,879.19,495.96,879.63,495.4,879.63z"/>
							<path fill="#E2EAFF" d="M513.28,879.63c-0.55,0-1-0.45-1-1v-25.77c0-0.55,0.45-1,1-1c0.55,0,1,0.45,1,1v25.77
								C514.28,879.19,513.84,879.63,513.28,879.63z"/>
							<path fill="#E2EAFF" d="M531.16,879.63c-0.55,0-1-0.45-1-1v-25.77c0-0.55,0.45-1,1-1c0.55,0,1,0.45,1,1v25.77
								C532.16,879.19,531.72,879.63,531.16,879.63z"/>
							<path fill="#E2EAFF" d="M549.04,879.63c-0.55,0-1-0.45-1-1v-25.77c0-0.55,0.45-1,1-1c0.55,0,1,0.45,1,1v25.77
								C550.04,879.19,549.6,879.63,549.04,879.63z"/>
							<path fill="#E2EAFF" d="M566.92,879.63c-0.55,0-1-0.45-1-1v-25.77c0-0.55,0.45-1,1-1c0.55,0,1,0.45,1,1v25.77
								C567.92,879.19,567.48,879.63,566.92,879.63z"/>
							<path fill="#E2EAFF" d="M584.8,879.63c-0.55,0-1-0.45-1-1v-25.77c0-0.55,0.45-1,1-1c0.55,0,1,0.45,1,1v25.77
								C585.8,879.19,585.36,879.63,584.8,879.63z"/>
						</g>
					</g>
				</g>
				<g>
					<g>
						<g>
							<path fill="#FFFFFF" d="M588.04,926.4H438.53c-6.99,0-12.66-5.67-12.66-12.66V903.5c0-6.99,5.67-12.66,12.66-12.66h149.51
								c6.99,0,12.66,5.67,12.66,12.66v10.23C600.7,920.73,595.03,926.4,588.04,926.4z"/>
							<path d="M588.04,927.4H438.53c-7.53,0-13.66-6.13-13.66-13.66V903.5c0-7.53,6.13-13.66,13.66-13.66h149.51
								c7.53,0,13.66,6.13,13.66,13.66v10.23C601.7,921.27,595.57,927.4,588.04,927.4z M438.53,891.85
								c-6.43,0-11.66,5.23-11.66,11.66v10.23c0,6.43,5.23,11.66,11.66,11.66h149.51c6.43,0,11.66-5.23,11.66-11.66V903.5
								c0-6.43-5.23-11.66-11.66-11.66H438.53z"/>
						</g>
						<g>
							<g>
								<path fill="#E2EAFF" d="M441.77,922.51c-0.55,0-1-0.45-1-1v-25.77c0-0.55,0.45-1,1-1c0.55,0,1,0.45,1,1v25.77
									C442.77,922.06,442.32,922.51,441.77,922.51z"/>
							</g>
							<path fill="#E2EAFF" d="M459.64,922.51c-0.55,0-1-0.45-1-1v-25.77c0-0.55,0.45-1,1-1c0.55,0,1,0.45,1,1v25.77
								C460.64,922.06,460.2,922.51,459.64,922.51z"/>
							<path fill="#E2EAFF" d="M477.52,922.51c-0.55,0-1-0.45-1-1v-25.77c0-0.55,0.45-1,1-1c0.55,0,1,0.45,1,1v25.77
								C478.52,922.06,478.08,922.51,477.52,922.51z"/>
							<path fill="#E2EAFF" d="M495.4,922.51c-0.55,0-1-0.45-1-1v-25.77c0-0.55,0.45-1,1-1c0.55,0,1,0.45,1,1v25.77
								C496.4,922.06,495.96,922.51,495.4,922.51z"/>
							<path fill="#E2EAFF" d="M513.28,922.51c-0.55,0-1-0.45-1-1v-25.77c0-0.55,0.45-1,1-1c0.55,0,1,0.45,1,1v25.77
								C514.28,922.06,513.84,922.51,513.28,922.51z"/>
							<path fill="#E2EAFF" d="M531.16,922.51c-0.55,0-1-0.45-1-1v-25.77c0-0.55,0.45-1,1-1c0.55,0,1,0.45,1,1v25.77
								C532.16,922.06,531.72,922.51,531.16,922.51z"/>
							<path fill="#E2EAFF" d="M549.04,922.51c-0.55,0-1-0.45-1-1v-25.77c0-0.55,0.45-1,1-1c0.55,0,1,0.45,1,1v25.77
								C550.04,922.06,549.6,922.51,549.04,922.51z"/>
							<path fill="#E2EAFF" d="M566.92,922.51c-0.55,0-1-0.45-1-1v-25.77c0-0.55,0.45-1,1-1c0.55,0,1,0.45,1,1v25.77
								C567.92,922.06,567.48,922.51,566.92,922.51z"/>
							<path fill="#E2EAFF" d="M584.8,922.51c-0.55,0-1-0.45-1-1v-25.77c0-0.55,0.45-1,1-1c0.55,0,1,0.45,1,1v25.77
								C585.8,922.06,585.36,922.51,584.8,922.51z"/>
						</g>
					</g>
				</g>
				<g>
					<g>
						<g>
							<path fill="#FFFFFF" d="M403.21,840.66H253.7c-6.99,0-12.66-5.67-12.66-12.66v-10.23c0-6.99,5.67-12.66,12.66-12.66h149.51
								c6.99,0,12.66,5.67,12.66,12.66V828C415.86,834.99,410.2,840.66,403.21,840.66z"/>
							<path d="M403.21,841.66H253.7c-7.53,0-13.66-6.13-13.66-13.66v-10.23c0-7.53,6.13-13.66,13.66-13.66h149.51
								c7.53,0,13.66,6.13,13.66,13.66V828C416.86,835.53,410.74,841.66,403.21,841.66z M253.7,806.1
								c-6.43,0-11.66,5.23-11.66,11.66V828c0,6.43,5.23,11.66,11.66,11.66h149.51c6.43,0,11.66-5.23,11.66-11.66v-10.23
								c0-6.43-5.23-11.66-11.66-11.66H253.7z"/>
						</g>
						<g>
							<g>
								<path fill="#E2EAFF" d="M256.93,836.76c-0.55,0-1-0.45-1-1V810c0-0.55,0.45-1,1-1c0.55,0,1,0.45,1,1v25.77
									C257.93,836.32,257.49,836.76,256.93,836.76z"/>
							</g>
							<path fill="#E2EAFF" d="M274.81,836.76c-0.55,0-1-0.45-1-1V810c0-0.55,0.45-1,1-1c0.55,0,1,0.45,1,1v25.77
								C275.81,836.32,275.37,836.76,274.81,836.76z"/>
							<path fill="#E2EAFF" d="M292.69,836.76c-0.55,0-1-0.45-1-1V810c0-0.55,0.45-1,1-1s1,0.45,1,1v25.77
								C293.69,836.32,293.24,836.76,292.69,836.76z"/>
							<path fill="#E2EAFF" d="M310.57,836.76c-0.55,0-1-0.45-1-1V810c0-0.55,0.45-1,1-1s1,0.45,1,1v25.77
								C311.57,836.32,311.12,836.76,310.57,836.76z"/>
							<path fill="#E2EAFF" d="M328.45,836.76c-0.55,0-1-0.45-1-1V810c0-0.55,0.45-1,1-1s1,0.45,1,1v25.77
								C329.45,836.32,329,836.76,328.45,836.76z"/>
							<path fill="#E2EAFF" d="M346.33,836.76c-0.55,0-1-0.45-1-1V810c0-0.55,0.45-1,1-1c0.55,0,1,0.45,1,1v25.77
								C347.33,836.32,346.88,836.76,346.33,836.76z"/>
							<path fill="#E2EAFF" d="M364.21,836.76c-0.55,0-1-0.45-1-1V810c0-0.55,0.45-1,1-1c0.55,0,1,0.45,1,1v25.77
								C365.21,836.32,364.76,836.76,364.21,836.76z"/>
							<path fill="#E2EAFF" d="M382.09,836.76c-0.55,0-1-0.45-1-1V810c0-0.55,0.45-1,1-1c0.55,0,1,0.45,1,1v25.77
								C383.09,836.32,382.64,836.76,382.09,836.76z"/>
							<path fill="#E2EAFF" d="M399.97,836.76c-0.55,0-1-0.45-1-1V810c0-0.55,0.45-1,1-1c0.55,0,1,0.45,1,1v25.77
								C400.97,836.32,400.52,836.76,399.97,836.76z"/>
						</g>
					</g>
				</g>
				<g>
					<g>
						<g>
							<path fill="#FFFFFF" d="M403.21,883.53H253.7c-6.99,0-12.66-5.67-12.66-12.66v-10.23c0-6.99,5.67-12.66,12.66-12.66h149.51
								c6.99,0,12.66,5.67,12.66,12.66v10.23C415.86,877.86,410.2,883.53,403.21,883.53z"/>
							<path d="M403.21,884.53H253.7c-7.53,0-13.66-6.13-13.66-13.66v-10.23c0-7.53,6.13-13.66,13.66-13.66h149.51
								c7.53,0,13.66,6.13,13.66,13.66v10.23C416.86,878.4,410.74,884.53,403.21,884.53z M253.7,848.98
								c-6.43,0-11.66,5.23-11.66,11.66v10.23c0,6.43,5.23,11.66,11.66,11.66h149.51c6.43,0,11.66-5.23,11.66-11.66v-10.23
								c0-6.43-5.23-11.66-11.66-11.66H253.7z"/>
						</g>
						<g>
							<g>
								<path fill="#E2EAFF" d="M256.93,879.63c-0.55,0-1-0.45-1-1v-25.77c0-0.55,0.45-1,1-1c0.55,0,1,0.45,1,1v25.77
									C257.93,879.19,257.49,879.63,256.93,879.63z"/>
							</g>
							<path fill="#E2EAFF" d="M274.81,879.63c-0.55,0-1-0.45-1-1v-25.77c0-0.55,0.45-1,1-1c0.55,0,1,0.45,1,1v25.77
								C275.81,879.19,275.37,879.63,274.81,879.63z"/>
							<path fill="#E2EAFF" d="M292.69,879.63c-0.55,0-1-0.45-1-1v-25.77c0-0.55,0.45-1,1-1s1,0.45,1,1v25.77
								C293.69,879.19,293.24,879.63,292.69,879.63z"/>
							<path fill="#E2EAFF" d="M310.57,879.63c-0.55,0-1-0.45-1-1v-25.77c0-0.55,0.45-1,1-1s1,0.45,1,1v25.77
								C311.57,879.19,311.12,879.63,310.57,879.63z"/>
							<path fill="#E2EAFF" d="M328.45,879.63c-0.55,0-1-0.45-1-1v-25.77c0-0.55,0.45-1,1-1s1,0.45,1,1v25.77
								C329.45,879.19,329,879.63,328.45,879.63z"/>
							<path fill="#E2EAFF" d="M346.33,879.63c-0.55,0-1-0.45-1-1v-25.77c0-0.55,0.45-1,1-1c0.55,0,1,0.45,1,1v25.77
								C347.33,879.19,346.88,879.63,346.33,879.63z"/>
							<path fill="#E2EAFF" d="M364.21,879.63c-0.55,0-1-0.45-1-1v-25.77c0-0.55,0.45-1,1-1c0.55,0,1,0.45,1,1v25.77
								C365.21,879.19,364.76,879.63,364.21,879.63z"/>
							<path fill="#E2EAFF" d="M382.09,879.63c-0.55,0-1-0.45-1-1v-25.77c0-0.55,0.45-1,1-1c0.55,0,1,0.45,1,1v25.77
								C383.09,879.19,382.64,879.63,382.09,879.63z"/>
							<path fill="#E2EAFF" d="M399.97,879.63c-0.55,0-1-0.45-1-1v-25.77c0-0.55,0.45-1,1-1c0.55,0,1,0.45,1,1v25.77
								C400.97,879.19,400.52,879.63,399.97,879.63z"/>
						</g>
					</g>
				</g>
				<g>
					<g>
						<g>
							<path fill="#FFFFFF" d="M403.21,926.4H253.7c-6.99,0-12.66-5.67-12.66-12.66V903.5c0-6.99,5.67-12.66,12.66-12.66h149.51
								c6.99,0,12.66,5.67,12.66,12.66v10.23C415.86,920.73,410.2,926.4,403.21,926.4z"/>
							<path d="M403.21,927.4H253.7c-7.53,0-13.66-6.13-13.66-13.66V903.5c0-7.53,6.13-13.66,13.66-13.66h149.51
								c7.53,0,13.66,6.13,13.66,13.66v10.23C416.86,921.27,410.74,927.4,403.21,927.4z M253.7,891.85
								c-6.43,0-11.66,5.23-11.66,11.66v10.23c0,6.43,5.23,11.66,11.66,11.66h149.51c6.43,0,11.66-5.23,11.66-11.66V903.5
								c0-6.43-5.23-11.66-11.66-11.66H253.7z"/>
						</g>
						<g>
							<g>
								<path fill="#E2EAFF" d="M256.93,922.51c-0.55,0-1-0.45-1-1v-25.77c0-0.55,0.45-1,1-1c0.55,0,1,0.45,1,1v25.77
									C257.93,922.06,257.49,922.51,256.93,922.51z"/>
							</g>
							<path fill="#E2EAFF" d="M274.81,922.51c-0.55,0-1-0.45-1-1v-25.77c0-0.55,0.45-1,1-1c0.55,0,1,0.45,1,1v25.77
								C275.81,922.06,275.37,922.51,274.81,922.51z"/>
							<path fill="#E2EAFF" d="M292.69,922.51c-0.55,0-1-0.45-1-1v-25.77c0-0.55,0.45-1,1-1s1,0.45,1,1v25.77
								C293.69,922.06,293.24,922.51,292.69,922.51z"/>
							<path fill="#E2EAFF" d="M310.57,922.51c-0.55,0-1-0.45-1-1v-25.77c0-0.55,0.45-1,1-1s1,0.45,1,1v25.77
								C311.57,922.06,311.12,922.51,310.57,922.51z"/>
							<path fill="#E2EAFF" d="M328.45,922.51c-0.55,0-1-0.45-1-1v-25.77c0-0.55,0.45-1,1-1s1,0.45,1,1v25.77
								C329.45,922.06,329,922.51,328.45,922.51z"/>
							<path fill="#E2EAFF" d="M346.33,922.51c-0.55,0-1-0.45-1-1v-25.77c0-0.55,0.45-1,1-1c0.55,0,1,0.45,1,1v25.77
								C347.33,922.06,346.88,922.51,346.33,922.51z"/>
							<path fill="#E2EAFF" d="M364.21,922.51c-0.55,0-1-0.45-1-1v-25.77c0-0.55,0.45-1,1-1c0.55,0,1,0.45,1,1v25.77
								C365.21,922.06,364.76,922.51,364.21,922.51z"/>
							<path fill="#E2EAFF" d="M382.09,922.51c-0.55,0-1-0.45-1-1v-25.77c0-0.55,0.45-1,1-1c0.55,0,1,0.45,1,1v25.77
								C383.09,922.06,382.64,922.51,382.09,922.51z"/>
							<path fill="#E2EAFF" d="M399.97,922.51c-0.55,0-1-0.45-1-1v-25.77c0-0.55,0.45-1,1-1c0.55,0,1,0.45,1,1v25.77
								C400.97,922.06,400.52,922.51,399.97,922.51z"/>
						</g>
					</g>
				</g>
				<g>
					<g>
						<g>
							<path fill="#FFFFFF" d="M218.37,797.78H68.86c-6.99,0-12.66-5.67-12.66-12.66v-10.23c0-6.99,5.67-12.66,12.66-12.66h149.51
								c6.99,0,12.66,5.67,12.66,12.66v10.23C231.03,792.12,225.36,797.78,218.37,797.78z"/>
							<path d="M218.37,798.78H68.86c-7.53,0-13.66-6.13-13.66-13.66v-10.23c0-7.53,6.13-13.66,13.66-13.66h149.51
								c7.53,0,13.66,6.13,13.66,13.66v10.23C232.03,792.66,225.9,798.78,218.37,798.78z M68.86,763.23
								c-6.43,0-11.66,5.23-11.66,11.66v10.23c0,6.43,5.23,11.66,11.66,11.66h149.51c6.43,0,11.66-5.23,11.66-11.66v-10.23
								c0-6.43-5.23-11.66-11.66-11.66H68.86z"/>
						</g>
						<g>
							<g>
								<path fill="#E2EAFF" d="M72.1,793.89c-0.55,0-1-0.45-1-1v-25.77c0-0.55,0.45-1,1-1c0.55,0,1,0.45,1,1v25.77
									C73.1,793.45,72.65,793.89,72.1,793.89z"/>
							</g>
							<path fill="#E2EAFF" d="M89.98,793.89c-0.55,0-1-0.45-1-1v-25.77c0-0.55,0.45-1,1-1c0.55,0,1,0.45,1,1v25.77
								C90.98,793.45,90.53,793.89,89.98,793.89z"/>
							<path fill="#E2EAFF" d="M107.86,793.89c-0.55,0-1-0.45-1-1v-25.77c0-0.55,0.45-1,1-1c0.55,0,1,0.45,1,1v25.77
								C108.86,793.45,108.41,793.89,107.86,793.89z"/>
							<path fill="#E2EAFF" d="M125.74,793.89c-0.55,0-1-0.45-1-1v-25.77c0-0.55,0.45-1,1-1c0.55,0,1,0.45,1,1v25.77
								C126.74,793.45,126.29,793.89,125.74,793.89z"/>
							<path fill="#E2EAFF" d="M143.62,793.89c-0.55,0-1-0.45-1-1v-25.77c0-0.55,0.45-1,1-1c0.55,0,1,0.45,1,1v25.77
								C144.62,793.45,144.17,793.89,143.62,793.89z"/>
							<path fill="#E2EAFF" d="M161.5,793.89c-0.55,0-1-0.45-1-1v-25.77c0-0.55,0.45-1,1-1c0.55,0,1,0.45,1,1v25.77
								C162.5,793.45,162.05,793.89,161.5,793.89z"/>
							<path fill="#E2EAFF" d="M179.38,793.89c-0.55,0-1-0.45-1-1v-25.77c0-0.55,0.45-1,1-1c0.55,0,1,0.45,1,1v25.77
								C180.38,793.45,179.93,793.89,179.38,793.89z"/>
							<path fill="#E2EAFF" d="M197.26,793.89c-0.55,0-1-0.45-1-1v-25.77c0-0.55,0.45-1,1-1c0.55,0,1,0.45,1,1v25.77
								C198.26,793.45,197.81,793.89,197.26,793.89z"/>
							<path fill="#E2EAFF" d="M215.14,793.89c-0.55,0-1-0.45-1-1v-25.77c0-0.55,0.45-1,1-1c0.55,0,1,0.45,1,1v25.77
								C216.14,793.45,215.69,793.89,215.14,793.89z"/>
						</g>
					</g>
				</g>
				<g>
					<g>
						<g>
							<path fill="#FFFFFF" d="M218.37,840.66H68.86c-6.99,0-12.66-5.67-12.66-12.66v-10.23c0-6.99,5.67-12.66,12.66-12.66h149.51
								c6.99,0,12.66,5.67,12.66,12.66V828C231.03,834.99,225.36,840.66,218.37,840.66z"/>
							<path d="M218.37,841.66H68.86c-7.53,0-13.66-6.13-13.66-13.66v-10.23c0-7.53,6.13-13.66,13.66-13.66h149.51
								c7.53,0,13.66,6.13,13.66,13.66V828C232.03,835.53,225.9,841.66,218.37,841.66z M68.86,806.1c-6.43,0-11.66,5.23-11.66,11.66
								V828c0,6.43,5.23,11.66,11.66,11.66h149.51c6.43,0,11.66-5.23,11.66-11.66v-10.23c0-6.43-5.23-11.66-11.66-11.66H68.86z"/>
						</g>
						<g>
							<g>
								<path fill="#E2EAFF" d="M72.1,836.76c-0.55,0-1-0.45-1-1V810c0-0.55,0.45-1,1-1c0.55,0,1,0.45,1,1v25.77
									C73.1,836.32,72.65,836.76,72.1,836.76z"/>
							</g>
							<path fill="#E2EAFF" d="M89.98,836.76c-0.55,0-1-0.45-1-1V810c0-0.55,0.45-1,1-1c0.55,0,1,0.45,1,1v25.77
								C90.98,836.32,90.53,836.76,89.98,836.76z"/>
							<path fill="#E2EAFF" d="M107.86,836.76c-0.55,0-1-0.45-1-1V810c0-0.55,0.45-1,1-1c0.55,0,1,0.45,1,1v25.77
								C108.86,836.32,108.41,836.76,107.86,836.76z"/>
							<path fill="#E2EAFF" d="M125.74,836.76c-0.55,0-1-0.45-1-1V810c0-0.55,0.45-1,1-1c0.55,0,1,0.45,1,1v25.77
								C126.74,836.32,126.29,836.76,125.74,836.76z"/>
							<path fill="#E2EAFF" d="M143.62,836.76c-0.55,0-1-0.45-1-1V810c0-0.55,0.45-1,1-1c0.55,0,1,0.45,1,1v25.77
								C144.62,836.32,144.17,836.76,143.62,836.76z"/>
							<path fill="#E2EAFF" d="M161.5,836.76c-0.55,0-1-0.45-1-1V810c0-0.55,0.45-1,1-1c0.55,0,1,0.45,1,1v25.77
								C162.5,836.32,162.05,836.76,161.5,836.76z"/>
							<path fill="#E2EAFF" d="M179.38,836.76c-0.55,0-1-0.45-1-1V810c0-0.55,0.45-1,1-1c0.55,0,1,0.45,1,1v25.77
								C180.38,836.32,179.93,836.76,179.38,836.76z"/>
							<path fill="#E2EAFF" d="M197.26,836.76c-0.55,0-1-0.45-1-1V810c0-0.55,0.45-1,1-1c0.55,0,1,0.45,1,1v25.77
								C198.26,836.32,197.81,836.76,197.26,836.76z"/>
							<path fill="#E2EAFF" d="M215.14,836.76c-0.55,0-1-0.45-1-1V810c0-0.55,0.45-1,1-1c0.55,0,1,0.45,1,1v25.77
								C216.14,836.32,215.69,836.76,215.14,836.76z"/>
						</g>
					</g>
				</g>
				<g>
					<g>
						<g>
							<path fill="#FFFFFF" d="M218.37,883.53H68.86c-6.99,0-12.66-5.67-12.66-12.66v-10.23c0-6.99,5.67-12.66,12.66-12.66h149.51
								c6.99,0,12.66,5.67,12.66,12.66v10.23C231.03,877.86,225.36,883.53,218.37,883.53z"/>
							<path d="M218.37,884.53H68.86c-7.53,0-13.66-6.13-13.66-13.66v-10.23c0-7.53,6.13-13.66,13.66-13.66h149.51
								c7.53,0,13.66,6.13,13.66,13.66v10.23C232.03,878.4,225.9,884.53,218.37,884.53z M68.86,848.98
								c-6.43,0-11.66,5.23-11.66,11.66v10.23c0,6.43,5.23,11.66,11.66,11.66h149.51c6.43,0,11.66-5.23,11.66-11.66v-10.23
								c0-6.43-5.23-11.66-11.66-11.66H68.86z"/>
						</g>
						<g>
							<g>
								<path fill="#E2EAFF" d="M72.1,879.63c-0.55,0-1-0.45-1-1v-25.77c0-0.55,0.45-1,1-1c0.55,0,1,0.45,1,1v25.77
									C73.1,879.19,72.65,879.63,72.1,879.63z"/>
							</g>
							<path fill="#E2EAFF" d="M89.98,879.63c-0.55,0-1-0.45-1-1v-25.77c0-0.55,0.45-1,1-1c0.55,0,1,0.45,1,1v25.77
								C90.98,879.19,90.53,879.63,89.98,879.63z"/>
							<path fill="#E2EAFF" d="M107.86,879.63c-0.55,0-1-0.45-1-1v-25.77c0-0.55,0.45-1,1-1c0.55,0,1,0.45,1,1v25.77
								C108.86,879.19,108.41,879.63,107.86,879.63z"/>
							<path fill="#E2EAFF" d="M125.74,879.63c-0.55,0-1-0.45-1-1v-25.77c0-0.55,0.45-1,1-1c0.55,0,1,0.45,1,1v25.77
								C126.74,879.19,126.29,879.63,125.74,879.63z"/>
							<path fill="#E2EAFF" d="M143.62,879.63c-0.55,0-1-0.45-1-1v-25.77c0-0.55,0.45-1,1-1c0.55,0,1,0.45,1,1v25.77
								C144.62,879.19,144.17,879.63,143.62,879.63z"/>
							<path fill="#E2EAFF" d="M161.5,879.63c-0.55,0-1-0.45-1-1v-25.77c0-0.55,0.45-1,1-1c0.55,0,1,0.45,1,1v25.77
								C162.5,879.19,162.05,879.63,161.5,879.63z"/>
							<path fill="#E2EAFF" d="M179.38,879.63c-0.55,0-1-0.45-1-1v-25.77c0-0.55,0.45-1,1-1c0.55,0,1,0.45,1,1v25.77
								C180.38,879.19,179.93,879.63,179.38,879.63z"/>
							<path fill="#E2EAFF" d="M197.26,879.63c-0.55,0-1-0.45-1-1v-25.77c0-0.55,0.45-1,1-1c0.55,0,1,0.45,1,1v25.77
								C198.26,879.19,197.81,879.63,197.26,879.63z"/>
							<path fill="#E2EAFF" d="M215.14,879.63c-0.55,0-1-0.45-1-1v-25.77c0-0.55,0.45-1,1-1c0.55,0,1,0.45,1,1v25.77
								C216.14,879.19,215.69,879.63,215.14,879.63z"/>
						</g>
					</g>
				</g>
				<g>
					<g>
						<g>
							<path fill="#FFFFFF" d="M218.37,926.4H68.86c-6.99,0-12.66-5.67-12.66-12.66V903.5c0-6.99,5.67-12.66,12.66-12.66h149.51
								c6.99,0,12.66,5.67,12.66,12.66v10.23C231.03,920.73,225.36,926.4,218.37,926.4z"/>
							<path d="M218.37,927.4H68.86c-7.53,0-13.66-6.13-13.66-13.66V903.5c0-7.53,6.13-13.66,13.66-13.66h149.51
								c7.53,0,13.66,6.13,13.66,13.66v10.23C232.03,921.27,225.9,927.4,218.37,927.4z M68.86,891.85
								c-6.43,0-11.66,5.23-11.66,11.66v10.23c0,6.43,5.23,11.66,11.66,11.66h149.51c6.43,0,11.66-5.23,11.66-11.66V903.5
								c0-6.43-5.23-11.66-11.66-11.66H68.86z"/>
						</g>
						<g>
							<g>
								<path fill="#E2EAFF" d="M72.1,922.51c-0.55,0-1-0.45-1-1v-25.77c0-0.55,0.45-1,1-1c0.55,0,1,0.45,1,1v25.77
									C73.1,922.06,72.65,922.51,72.1,922.51z"/>
							</g>
							<path fill="#E2EAFF" d="M89.98,922.51c-0.55,0-1-0.45-1-1v-25.77c0-0.55,0.45-1,1-1c0.55,0,1,0.45,1,1v25.77
								C90.98,922.06,90.53,922.51,89.98,922.51z"/>
							<path fill="#E2EAFF" d="M107.86,922.51c-0.55,0-1-0.45-1-1v-25.77c0-0.55,0.45-1,1-1c0.55,0,1,0.45,1,1v25.77
								C108.86,922.06,108.41,922.51,107.86,922.51z"/>
							<path fill="#E2EAFF" d="M125.74,922.51c-0.55,0-1-0.45-1-1v-25.77c0-0.55,0.45-1,1-1c0.55,0,1,0.45,1,1v25.77
								C126.74,922.06,126.29,922.51,125.74,922.51z"/>
							<path fill="#E2EAFF" d="M143.62,922.51c-0.55,0-1-0.45-1-1v-25.77c0-0.55,0.45-1,1-1c0.55,0,1,0.45,1,1v25.77
								C144.62,922.06,144.17,922.51,143.62,922.51z"/>
							<path fill="#E2EAFF" d="M161.5,922.51c-0.55,0-1-0.45-1-1v-25.77c0-0.55,0.45-1,1-1c0.55,0,1,0.45,1,1v25.77
								C162.5,922.06,162.05,922.51,161.5,922.51z"/>
							<path fill="#E2EAFF" d="M179.38,922.51c-0.55,0-1-0.45-1-1v-25.77c0-0.55,0.45-1,1-1c0.55,0,1,0.45,1,1v25.77
								C180.38,922.06,179.93,922.51,179.38,922.51z"/>
							<path fill="#E2EAFF" d="M197.26,922.51c-0.55,0-1-0.45-1-1v-25.77c0-0.55,0.45-1,1-1c0.55,0,1,0.45,1,1v25.77
								C198.26,922.06,197.81,922.51,197.26,922.51z"/>
							<path fill="#E2EAFF" d="M215.14,922.51c-0.55,0-1-0.45-1-1v-25.77c0-0.55,0.45-1,1-1c0.55,0,1,0.45,1,1v25.77
								C216.14,922.06,215.69,922.51,215.14,922.51z"/>
						</g>
					</g>
				</g>
			</g>
			<g display="inline">
				
					<ellipse transform="matrix(0.4123 -0.9111 0.9111 0.4123 -419.8292 1058.2053)" fill="#5479F7" cx="610.28" cy="854.5" rx="71.89" ry="71.89"/>
				<path fill="#FFFFFF" d="M610.28,912.03c-31.72,0-57.52-25.8-57.52-57.52c0-31.72,25.8-57.52,57.52-57.52
					c31.72,0,57.52,25.8,57.52,57.52C667.8,886.22,642,912.03,610.28,912.03z M610.28,798.98c-30.61,0-55.52,24.91-55.52,55.52
					c0,30.62,24.91,55.52,55.52,55.52c30.62,0,55.52-24.91,55.52-55.52C665.8,823.89,640.9,798.98,610.28,798.98z"/>
				<g>
					<path fill="#FFFFFF" d="M606.58,899.15v-10.99c-6.31-0.11-12.83-2.07-16.64-4.79l2.61-7.29c3.92,2.61,9.57,4.68,15.66,4.68
						c7.72,0,12.94-4.46,12.94-10.66c0-5.98-4.24-9.68-12.29-12.94c-11.09-4.35-17.95-9.35-17.95-18.82
						c0-9.03,6.42-15.88,16.43-17.51v-10.99h6.74v10.55c6.53,0.22,10.99,1.96,14.14,3.81l-2.72,7.18c-2.28-1.31-6.74-3.7-13.71-3.7
						c-8.37,0-11.53,5-11.53,9.35c0,5.66,4.02,8.48,13.49,12.4c11.2,4.57,16.86,10.22,16.86,19.9c0,8.59-5.98,16.64-17.19,18.49
						v11.31H606.58z"/>
				</g>
			</g>
		</g>
	</g>
</g>
</svg>
