<?xml version="1.0" encoding="UTF-8"?><svg id="Illustration" xmlns="http://www.w3.org/2000/svg" xmlns:xlink="http://www.w3.org/1999/xlink" viewBox="0 0 2362.01 963.79"><defs><clipPath id="clippath"><rect x="0" y="0" width="2362.01" height="963.79" style="fill:none;"/></clipPath><clipPath id="clippath-1"><rect x="1558.92" y="0" width="327.12" height="524.52" style="fill:none;"/></clipPath><linearGradient id="New_Gradient_Swatch_1" x1="1578.02" y1="235.39" x2="1852.48" y2="235.39" gradientUnits="userSpaceOnUse"><stop offset="0" stop-color="#b685ff"/><stop offset=".06" stop-color="#ac8dfd"/><stop offset=".15" stop-color="#94a2f8"/><stop offset=".21" stop-color="#80b5f5"/><stop offset=".33" stop-color="#6dc5f1"/><stop offset=".33" stop-color="#6dc6f1"/><stop offset=".43" stop-color="#52deec"/><stop offset=".56" stop-color="#4ddceb"/><stop offset=".7" stop-color="#00bbdc"/><stop offset=".91" stop-color="#006577"/><stop offset=".96" stop-color="#006274"/><stop offset="1" stop-color="#005b6b"/><stop offset="1" stop-color="#005a6a"/></linearGradient><linearGradient id="New_Gradient_Swatch_1-2" x1="1603.67" y1="462.97" x2="1826.16" y2="462.97" xlink:href="#New_Gradient_Swatch_1"/><linearGradient id="New_Gradient_Swatch_1-3" x1="1641.58" y1="162.05" x2="1787.82" y2="162.05" xlink:href="#New_Gradient_Swatch_1"/><linearGradient id="linear-gradient" x1="1779.68" y1="728.4" x2="2245.22" y2="728.4" gradientUnits="userSpaceOnUse"><stop offset="0" stop-color="#000"/><stop offset=".14" stop-color="#0c0c0c"/><stop offset=".44" stop-color="#212121"/><stop offset=".73" stop-color="#2e2e2e"/><stop offset="1" stop-color="#333"/></linearGradient></defs><g style="clip-path:url(#clippath); fill:none;"><g id="Cross-device_tracking"><rect x="15.92" y="147.42" width="1045.45" height="712.98" style="fill:none;"/><path d="m661.4,1273.52c-1.82,0-3.3-1.48-3.3-3.3v-186.73l-285.72-285.72c-.62-.62-.97-1.46-.97-2.34V147.42c0-1.82,1.48-3.3,3.3-3.3s3.3,1.48,3.3,3.3v646.65l285.72,285.72c.62.62.97,1.46.97,2.34v188.09c0,1.82-1.48,3.3-3.3,3.3Z" style="fill:#fff;"/><path d="m962.54,560.23H15.92c-1.82,0-3.3-1.48-3.3-3.3s1.48-3.3,3.3-3.3h943.32V147.42c0-1.82,1.48-3.3,3.3-3.3s3.3,1.48,3.3,3.3v409.51c0,1.82-1.48,3.3-3.3,3.3Z" style="fill:#fff;"/><path d="m1064.96,963.79c-.85,0-1.69-.32-2.34-.97l-403.56-403.56c-1.29-1.29-1.29-3.38,0-4.67,1.29-1.29,3.38-1.29,4.67,0l403.56,403.56c1.29,1.29,1.29,3.38,0,4.67-.65.65-1.49.97-2.34.97Z" style="fill:#fff;"/><rect x="1071.57" y="147.42" width="1045.45" height="712.98" style="fill:none;"/><path d="m1717.05,1273.52c-1.82,0-3.3-1.48-3.3-3.3v-186.73l-285.72-285.72c-.62-.62-.97-1.46-.97-2.34V147.42c0-1.82,1.48-3.3,3.3-3.3s3.3,1.48,3.3,3.3v646.65l285.72,285.72c.62.62.97,1.46.97,2.34v188.09c0,1.82-1.48,3.3-3.3,3.3Z" style="fill:#fff;"/><path d="m2018.19,560.23h-946.62c-1.82,0-3.3-1.48-3.3-3.3s1.48-3.3,3.3-3.3h943.32V147.42c0-1.82,1.48-3.3,3.3-3.3s3.3,1.48,3.3,3.3v409.51c0,1.82-1.48,3.3-3.3,3.3Z" style="fill:#fff;"/><path d="m2120.61,963.79c-.85,0-1.69-.32-2.34-.97l-403.56-403.56c-1.29-1.29-1.29-3.38,0-4.67,1.29-1.29,3.38-1.29,4.67,0l403.56,403.56c1.29,1.29,1.29,3.38,0,4.67-.65.65-1.49.97-2.34.97Z" style="fill:#fff;"/><ellipse cx="1711.7" cy="205.82" rx="81.47" ry="87.66" style="fill:#fff;"/><g style="clip-path:url(#clippath-1); fill:none;"><path d="m1833.83,97.41c24.72,43.03,24.93,94.63.21,137.66l-49.02,85.21-53.49,92.91-16.41,28.47-16.41-28.69-51.57-89.7c-.43-2.35-1.7-4.28-3.41-5.78l-47.1-82c-24.93-43.03-24.72-94.41,0-137.45,24.93-43.25,69.26-68.94,118.7-68.94s93.77,25.48,118.49,68.29Zm-25.15,64.66c0-52.02-42.2-94.41-93.98-94.41s-93.98,42.39-93.98,94.41,42.2,94.41,93.98,94.41,93.98-42.39,93.98-94.41Z" style="fill:url(#New_Gradient_Swatch_1);"/><path d="m1746.03,429.46c52.21,5.57,80.13,22.05,80.13,32.76,0,13.92-43.47,34.25-111.24,34.25s-111.24-20.12-111.24-34.25c0-10.92,27.7-27.83,80.34-32.76l22.16,38.54c1.7,3,5.11,5.14,8.95,5.14,3.62,0,7.03-2.14,8.74-5.14l22.16-38.54Z" style="fill:url(#New_Gradient_Swatch_1-2);"/><ellipse cx="1714.7" cy="162.05" rx="73.1" ry="73.43" style="fill:url(#New_Gradient_Swatch_1-3);"/></g><path d="m1718.53,642.77c-1.22,0-2.2-.98-2.2-3.8v-130.65c0,.38.98-.6,2.2-.6s2.2.98,2.2,2.2v130.65c0,1.22-.98,2.2-2.2,2.2Z"/></g><path d="m2339.93,867.31l-3.11,7.34c-4.37,10.3-13.04,18.25-23.79,21.82l-43.86,14.55h-637.51l-38.47-11.59c-10.36-3.12-17.76-12.11-18.7-22.71l-1.62-18.19c-.23-2.83.32-5.68,1.58-8.23h0c1.56-3.15,2.11-6.7,1.59-10.17l-3.42-22.72c-.69-4.56,1.73-9.02,5.96-11l8.78-4.11c48.28-22.62,99.97-37.39,153.06-43.74l22.31-2.67,25.42-13.43c141.93-74.99,310.04-85.62,460.58-29.12l93.09,34.94-5.05,43.47,5.88,29.83c1.06,5.37,1.59,10.83,1.59,16.3v8.3c0,7.26-1.46,14.44-4.3,21.14Z" style="fill:#fff;"/><path d="m2244,733.25c1.73-.89,1.58-3.38-.25-4.06l-23.18-8.69c-133.1-49.91-313.3-47.99-440.89,48.14l311.04-10.58c36.11-1.23,72.13-4.28,107.92-9.15h0c18.14-2.47,37.06-11.37,45.36-15.65Z" style="fill:url(#linear-gradient);"/><path d="m2285.47,785.23s-11.67,10.36,51.27,6.75l5.08-43.78s-33.59,18.11-56.35,37.03Z" style="fill:#444;"/><path d="m2289.23,790.58c5.97,1.82,19.18,3.02,47.5,1.4l1.59-13.7s2.85-17.95-13.21-11.18c-17.8,7.51-35.89,23.49-35.89,23.49Z" style="fill:#141414;"/><path d="m1635.57,891.44l575.67-10.76,129.25-14.74c-.18.46-.37.92-.56,1.37l-3.11,7.34c-4.37,10.3-13.04,18.24-23.79,21.81l-27.69,9.18c-10.71,3.55-21.94,5.36-33.24,5.36h-611.39c-6.01,0-11.98-.88-17.72-2.61l-29.81-8.98c-7.55-2.27-13.52-7.64-16.58-14.51l58.96,6.52Z" style="fill:#848484;"/><path d="m1653.44,798.15c.68-.49.41-1.53-.43-1.64-4.45-.56-14.88-1.58-26.24-.61-11.63.99-29.13,9.44-36.49,13.24-1.97,1.01-2.83,3.33-1.99,5.36l.49,1.19c.98,2.37,3.33,3.92,5.93,3.92h15.69c8.56,0,16.9-2.68,23.81-7.64l19.21-13.8Z" style="fill:#fff;"/><path d="m1590.45,809.06c7.44-3.83,24.78-12.17,36.33-13.16,4.62-.39,9.08-.46,13.05-.36l-13.95,9.65c-5.43,3.76-11.71,6.16-18.3,7l-10.09,1.28c-1.88.24-3.76-.49-4.97-1.93l-2.08-2.48Z" style="fill:#141414;"/><path d="m1610.42,820.97h-15.69c-3.18,0-6.02-1.87-7.22-4.77l-.5-1.2c-1.12-2.69.01-5.73,2.63-7.08l.16-.08h0c7.12-3.66,24.97-12.29,36.86-13.31,11.6-.99,22.37.1,26.46.61.96.12,1.74.79,1.98,1.72.24.92-.11,1.88-.89,2.44l-19.15,13.76c-7.2,5.17-15.72,7.91-24.64,7.91Zm-19.33-10.7l-.15.08c-1.34.69-1.91,2.24-1.34,3.62l.5,1.2c.77,1.86,2.59,3.06,4.64,3.06h15.69c8.32,0,16.27-2.55,22.99-7.38l18.25-13.12c-4.62-.53-14.35-1.35-24.76-.47-11.39.97-28.83,9.42-35.81,13.01h0Z" style="fill:#141414;"/><path d="m1959.76,781.55l56.79-1.73c6.04-.18,11.9-1.99,16.96-5.23l3.27-2.09-57.05,1.68c-7.3.21-14.33,2.81-19.96,7.37h0Z" style="fill:#444;"/><path d="m1608.44,853.31c-.82,9.03-4.25,18.04-6.04,22.24-.68,1.59-2.36,2.52-4.1,2.27-5-.72-14.65-4.09-16.3-19.24-.33-2.98,1.43-5.8,4.24-6.94,3.73-1.52,12.8-2.15,18.17-2.4,2.31-.11,4.23,1.8,4.02,4.07Z" style="fill:#e0e0e0;"/><path d="m1597.45,877.68c.29.06.58.1.85.14,1.74.25,3.43-.68,4.11-2.27,1.79-4.2,5.22-13.21,6.04-22.24.21-2.27-1.71-4.17-4.02-4.07-1.49.07-3.26.17-5.12.31v.08c1.15,8.97.62,18.06-1.55,26.84l-.3,1.21Z" style="fill:#848484;"/><path d="m1786.17,878.23c0-44.17-36.44-79.98-81.4-79.98s-81.4,35.81-81.4,79.98c0,11.53,2.49,22.48,6.96,32.38l1.32.39h147.39c4.58-10.06,7.13-21.1,7.13-32.78Z" style="fill:#444;"/><path d="m2276.02,878.23c0-44.19-36.46-80.01-81.43-80.01s-81.43,35.82-81.43,80.01c0,11.68,2.55,22.72,7.13,32.78h148.61c4.58-10.06,7.13-21.1,7.13-32.78Z" style="fill:#444;"/><path d="m1811.13,760.24l12.39-14.67c1.74-2.06,4.33-3.26,7.06-3.26h11.03c4.68,0,8.61,3.46,9.12,8.03l.82,7.33c.22,1.99-.23,3.99-1.29,5.69h0c-1.64,2.64-4.55,4.27-7.7,4.31-11.83.16-40.21.45-39.59-.46.61-.9,4.93-4.25,6.73-5.62.53-.4,1-.86,1.43-1.36Z" style="fill:#f7002a;"/><path d="m1851.57,757.67l-.82-7.33c-.51-4.57-4.44-8.03-9.12-8.03h-11.03c-2.73,0-5.32,1.19-7.06,3.26l-12.39,14.67s23.17-2.9,40.43-2.57Z" style="fill:#fff;"/><path d="m1819.68,769.24c-17.21,0-17.51-.56-17.93-1.31-.25-.45-.22-1.04.07-1.47.2-.29.8-1.18,7.03-5.94.44-.34.85-.73,1.21-1.15h0l12.39-14.67c2.01-2.39,4.98-3.75,8.14-3.75h11.03c5.4,0,9.92,3.98,10.51,9.25l.82,7.33c.25,2.28-.27,4.6-1.49,6.56-1.91,3.06-5.22,4.92-8.88,4.97-9.84.13-17.28.19-22.91.19Zm-13.67-2.96c4.63.22,15.85.31,36.54.03,2.69-.04,5.13-1.4,6.53-3.66.89-1.44,1.28-3.15,1.09-4.83l-.82-7.33c-.44-3.88-3.76-6.81-7.73-6.81h-11.03c-2.32,0-4.5,1.01-5.99,2.76l-12.39,14.67c-.49.58-1.04,1.11-1.65,1.57-1.97,1.51-3.48,2.71-4.55,3.59Z" style="fill:#141414;"/><path d="m2252.6,912.39h-611c-6.74,0-13.42-.98-19.87-2.93l-28.96-8.72c-10.96-3.3-18.68-12.68-19.68-23.9l-1.62-18.19c-.25-3.09.35-6.18,1.72-8.95,1.44-2.92,1.95-6.16,1.46-9.37l-3.42-22.72c-.78-5.19,1.93-10.18,6.74-12.44l8.78-4.11c48.51-22.73,100.15-37.49,153.49-43.87l22.05-2.64,25.19-13.31c142.4-75.24,310.7-85.88,461.74-29.19l87.04,32.67c4.16,1.56,6.71,5.68,6.2,10.03l-4.29,36.94,5.84,29.62c1.07,5.44,1.62,11.02,1.62,16.56v8.3c0,7.48-1.48,14.77-4.41,21.67l-3.11,7.34c-4.52,10.66-13.5,18.89-24.63,22.59l-28.17,9.35c-10.56,3.5-21.56,5.28-32.7,5.28Zm-201.82-233.61c-90.41,0-180.45,21.8-261.98,64.87l-25.42,13.43c-.15.08-.32.13-.49.15l-22.31,2.67c-53.04,6.34-104.39,21.02-152.63,43.62l-8.78,4.11c-3.7,1.73-5.78,5.58-5.18,9.56l3.42,22.72c.57,3.76-.03,7.55-1.71,10.97-1.15,2.34-1.65,4.94-1.45,7.53l1.62,18.18c.9,10.1,7.85,18.55,17.72,21.52l28.96,8.72c6.18,1.86,12.59,2.81,19.05,2.81h611c10.84,0,21.54-1.73,31.81-5.13l28.17-9.35c10.37-3.44,18.74-11.11,22.95-21.04l3.11-7.34c2.78-6.57,4.2-13.5,4.2-20.61v-8.3c0-5.37-.53-10.77-1.57-16.04l-5.88-29.83c-.03-.14-.03-.28-.02-.42l4.32-37.15c.36-3.1-1.46-6.04-4.43-7.15l-87.04-32.67c-63.81-23.95-130.73-35.82-197.45-35.82Z"/><ellipse cx="2194.59" cy="878.23" rx="72.64" ry="71.38"/><ellipse cx="2194.59" cy="878.23" rx="48.86" ry="48.01" style="fill:#e0e0e0;"/><ellipse cx="2194.59" cy="878.23" rx="39.21" ry="38.52" style="fill:#444;"/><ellipse cx="1704.77" cy="878.23" rx="72.64" ry="71.38"/><ellipse cx="1704.77" cy="878.23" rx="48.86" ry="48.01" style="fill:#e0e0e0;"/><ellipse cx="1704.77" cy="878.23" rx="39.21" ry="38.52" style="fill:#444;"/></g></svg>