<?xml version="1.0" encoding="UTF-8"?><svg id="Illustration" xmlns="http://www.w3.org/2000/svg" xmlns:xlink="http://www.w3.org/1999/xlink" viewBox="0 0 3415 2500"><defs><clipPath id="clippath"><rect x="1318.34" y="693.95" width="1752.67" height="963.79" style="fill:none;"/></clipPath><clipPath id="clippath-1"><rect x="1551.61" y="699.95" width="322.46" height="502.86" style="fill:none;"/></clipPath><linearGradient id="New_Gradient_Swatch_1" x1="1570.44" y1="925.62" x2="1840.99" y2="925.62" gradientUnits="userSpaceOnUse"><stop offset="0" stop-color="#b685ff"/><stop offset=".06" stop-color="#ac8dfd"/><stop offset=".15" stop-color="#94a2f8"/><stop offset=".21" stop-color="#80b5f5"/><stop offset=".33" stop-color="#6dc5f1"/><stop offset=".33" stop-color="#6dc6f1"/><stop offset=".43" stop-color="#52deec"/><stop offset=".56" stop-color="#4ddceb"/><stop offset=".7" stop-color="#00bbdc"/><stop offset=".91" stop-color="#006577"/><stop offset=".96" stop-color="#006274"/><stop offset="1" stop-color="#005b6b"/><stop offset="1" stop-color="#005a6a"/></linearGradient><linearGradient id="New_Gradient_Swatch_1-2" x1="1595.72" y1="1143.8" x2="1815.04" y2="1143.8" xlink:href="#New_Gradient_Swatch_1"/><linearGradient id="New_Gradient_Swatch_1-3" x1="1633.09" y1="855.31" x2="1777.25" y2="855.31" xlink:href="#New_Gradient_Swatch_1"/><linearGradient id="linear-gradient" x1="1807.73" y1="1201.21" x2="2689.64" y2="1201.21" gradientUnits="userSpaceOnUse"><stop offset="0" stop-color="#000"/><stop offset=".14" stop-color="#0c0c0c"/><stop offset=".44" stop-color="#212121"/><stop offset=".73" stop-color="#2e2e2e"/><stop offset="1" stop-color="#333"/></linearGradient></defs><g style="clip-path:url(#clippath); fill:none;"><ellipse cx="1923.16" cy="828.65" rx="52.38" ry="54.82" style="fill:#fff;"/><g style="clip-path:url(#clippath-1); fill:none;"><path d="m1822.6,793.34c24.37,41.25,24.58,90.72.21,131.97l-48.32,81.69-52.73,89.08-16.18,27.3-16.18-27.5-50.84-86c-.42-2.26-1.68-4.1-3.36-5.54l-46.43-78.61c-24.58-41.25-24.37-90.51,0-131.77,24.58-41.46,68.27-66.09,117.01-66.09s92.43,24.42,116.8,65.47Zm-24.79,61.98c0-49.88-41.59-90.51-92.64-90.51s-92.64,40.64-92.64,90.51,41.59,90.51,92.64,90.51,92.64-40.64,92.64-90.51Z" style="fill:url(#New_Gradient_Swatch_1);"/><path d="m1736.05,1111.68c51.47,5.34,78.99,21.14,78.99,31.4,0,13.34-42.85,32.84-109.66,32.84s-109.66-19.29-109.66-32.84c0-10.47,27.31-26.68,79.2-31.4l21.85,36.94c1.68,2.87,5.04,4.93,8.82,4.93,3.57,0,6.93-2.05,8.61-4.93l21.85-36.94Z" style="fill:url(#New_Gradient_Swatch_1-2);"/><ellipse cx="1705.17" cy="855.31" rx="72.06" ry="70.4" style="fill:url(#New_Gradient_Swatch_1-3);"/></g><path d="m2869.06,1459.14l-5.9,13.63c-8.27,19.12-24.69,33.88-45.07,40.51l-83.1,27.02h-1207.71l-72.87-21.52c-19.63-5.8-33.64-22.48-35.43-42.17l-3.07-33.78c-.43-5.26.61-10.54,3-15.29h0c2.95-5.86,4-12.44,3.01-18.88l-6.48-42.19c-1.3-8.46,3.28-16.75,11.3-20.43l16.63-7.64c91.45-42,189.38-69.44,289.96-81.23l42.27-4.96,48.15-24.94c268.87-139.25,587.34-158.99,872.53-54.07l176.34,64.87-9.57,80.72,11.15,55.39c2.01,9.97,3.02,20.11,3.02,30.27v15.4c0,13.48-2.77,26.82-8.15,39.26Z" style="fill:#fff;"/><path d="m2687.34,1210.22c3.28-1.66,2.99-6.27-.47-7.54l-43.92-16.14c-252.15-92.68-593.51-89.1-835.22,89.38l589.23-19.65c68.4-2.28,136.64-7.95,204.44-16.99h0c34.36-4.59,70.2-21.11,85.94-29.06Z" style="fill:url(#linear-gradient);"/><path d="m2765.89,1306.74s-22.11,19.23,97.12,12.53l9.63-81.29s-63.64,33.63-106.75,68.76Z" style="fill:#444;"/><path d="m2773.02,1316.68c11.3,3.37,36.34,5.61,89.99,2.59l3.01-25.44s5.39-33.34-25.02-20.76c-33.71,13.94-67.99,43.61-67.99,43.61Z" style="fill:#141414;"/><path d="m1534.72,1503.95l1090.55-19.98,244.86-27.38c-.34.85-.69,1.7-1.06,2.54l-5.9,13.63c-8.27,19.12-24.69,33.87-45.07,40.5l-52.46,17.05c-20.29,6.59-41.55,9.96-62.97,9.96h-1158.22c-11.38,0-22.69-1.63-33.56-4.84l-56.47-16.67c-14.3-4.22-25.62-14.19-31.4-26.94l111.7,12.12Z" style="fill:#848484;"/><path d="m1568.58,1330.74c1.28-.9.77-2.85-.81-3.04-8.43-1.04-28.2-2.94-49.7-1.14-22.03,1.85-55.19,17.54-69.12,24.58-3.73,1.88-5.35,6.19-3.76,9.95l.94,2.21c1.86,4.4,6.3,7.27,11.23,7.27h29.72c16.22,0,32.02-4.97,45.11-14.19l36.39-25.63Z" style="fill:#fff;"/><path d="m1449.24,1350.98c14.1-7.11,46.95-22.6,68.83-24.43,8.75-.73,17.2-.85,24.73-.67l-26.42,17.92c-10.29,6.98-22.19,11.44-34.67,12.99l-19.11,2.37c-3.57.44-7.13-.91-9.42-3.58l-3.94-4.6Z" style="fill:#141414;"/><path d="m1487.08,1373.1h-29.73c-6.03,0-11.4-3.48-13.68-8.86l-.94-2.22c-2.12-4.99.03-10.65,4.99-13.15l.29-.15h0c13.49-6.8,47.3-22.82,69.83-24.71,21.98-1.84,42.37.18,50.12,1.13,1.82.22,3.29,1.47,3.75,3.19.46,1.71-.21,3.49-1.69,4.53l-36.28,25.55c-13.64,9.6-29.78,14.68-46.67,14.68Zm-36.61-19.86l-.29.15c-2.53,1.28-3.63,4.16-2.55,6.71l.94,2.22c1.46,3.46,4.91,5.69,8.78,5.69h29.73c15.76,0,30.82-4.74,43.55-13.7l34.58-24.35c-8.74-.98-27.18-2.51-46.91-.87-21.57,1.81-54.62,17.49-67.83,24.15h0Z" style="fill:#141414;"/><path d="m2148.87,1299.92l107.58-3.21c11.43-.34,22.55-3.7,32.13-9.71l6.19-3.88-108.08,3.12c-13.83.4-27.14,5.21-37.82,13.69h0Z" style="fill:#444;"/><path d="m1483.33,1433.15c-1.55,16.77-8.05,33.49-11.45,41.3-1.28,2.95-4.47,4.69-7.76,4.22-9.46-1.34-27.75-7.59-30.88-35.73-.62-5.53,2.71-10.77,8.04-12.89,7.06-2.82,24.24-3.99,34.43-4.46,4.38-.2,8.01,3.34,7.62,7.55Z" style="fill:#e0e0e0;"/><path d="m1462.5,1478.41c.56.1,1.09.19,1.6.26,3.3.47,6.5-1.26,7.78-4.22,3.39-7.81,9.89-24.53,11.45-41.3.39-4.21-3.24-7.75-7.62-7.55-2.82.13-6.17.31-9.7.57l.02.14c2.16,16.65,1.16,33.54-2.96,49.85l-.57,2.25Z" style="fill:#848484;"/><path d="m1820.03,1479.42c0-82.02-69.04-148.51-154.2-148.51s-154.2,66.49-154.2,148.52c0,21.41,4.71,41.74,13.18,60.13l2.49.73h279.22c8.68-18.67,13.51-39.17,13.51-60.86Z" style="fill:#444;"/><path d="m2747.99,1479.42c0-82.06-69.07-148.57-154.27-148.57s-154.27,66.51-154.27,148.57c0,21.69,4.83,42.19,13.51,60.87h281.52c8.68-18.67,13.51-39.17,13.51-60.86Z" style="fill:#444;"/><path d="m1867.31,1260.33l23.48-27.25c3.3-3.83,8.21-6.05,13.38-6.05h20.9c8.86,0,16.31,6.42,17.28,14.91l1.56,13.62c.42,3.69-.44,7.4-2.45,10.57h0c-3.11,4.91-8.62,7.93-14.59,8.01-22.4.3-76.17.84-75.01-.85,1.16-1.68,9.34-7.89,12.74-10.43,1-.75,1.9-1.59,2.71-2.52Z" style="fill:#f7002a;"/><path d="m1943.91,1255.56l-1.56-13.62c-.97-8.48-8.42-14.91-17.28-14.91h-20.9c-5.17,0-10.08,2.22-13.38,6.05l-23.48,27.25s43.9-5.39,76.59-4.77Z" style="fill:#fff;"/><path d="m1883.5,1277.04c-32.6,0-33.18-1.04-33.97-2.44-.47-.83-.41-1.94.13-2.72.38-.54,1.52-2.2,13.32-11.03.84-.63,1.61-1.35,2.29-2.14h0l23.48-27.24c3.82-4.43,9.43-6.97,15.41-6.97h20.9c10.23,0,18.79,7.38,19.91,17.17l1.56,13.62c.48,4.23-.52,8.55-2.82,12.18-3.61,5.69-9.89,9.14-16.81,9.23-18.64.25-32.74.36-43.4.36Zm-25.89-5.5c8.77.41,30.03.57,69.22.05,5.09-.07,9.72-2.61,12.37-6.79,1.69-2.67,2.43-5.85,2.07-8.96l-1.56-13.61c-.83-7.21-7.12-12.64-14.65-12.64h-20.9c-4.4,0-8.53,1.87-11.34,5.13l-23.48,27.24c-.93,1.07-1.98,2.05-3.12,2.91-3.73,2.8-6.6,5.03-8.62,6.67Z" style="fill:#141414;"/><path d="m2703.62,1542.86h-1157.49c-12.77,0-25.43-1.83-37.64-5.43l-54.86-16.2c-20.76-6.13-35.4-23.55-37.29-44.39l-3.07-33.78c-.47-5.73.66-11.47,3.25-16.62,2.73-5.42,3.69-11.44,2.77-17.39l-6.48-42.19c-1.48-9.63,3.65-18.91,12.78-23.1l16.63-7.64c91.89-42.21,189.72-69.61,290.77-81.46l41.78-4.9,47.71-24.71c269.76-139.72,588.59-159.47,874.72-54.21l164.88,60.66c7.87,2.9,12.71,10.55,11.75,18.62l-8.13,68.6,11.07,55.01c2.03,10.11,3.07,20.46,3.07,30.75v15.41c0,13.89-2.81,27.42-8.35,40.24l-5.9,13.63c-8.56,19.79-25.57,35.08-46.67,41.94l-53.37,17.35c-20,6.51-40.84,9.8-61.95,9.8Zm-382.33-433.77c-171.27,0-341.85,40.47-496.29,120.46l-48.15,24.94c-.29.15-.61.25-.93.29l-42.27,4.96c-100.48,11.78-197.76,39.03-289.14,81l-16.63,7.64c-7.01,3.22-10.96,10.36-9.82,17.76l6.48,42.19c1.07,6.97-.05,14.02-3.25,20.36-2.19,4.34-3.13,9.17-2.74,13.98l3.07,33.76c1.7,18.76,14.88,34.44,33.57,39.96l54.86,16.2c11.71,3.46,23.85,5.21,36.09,5.21h1157.49c20.53,0,40.8-3.21,60.26-9.53l53.37-17.35c19.65-6.39,35.5-20.63,43.48-39.08l5.9-13.63c5.27-12.19,7.95-25.07,7.95-38.28v-15.41c0-9.97-1-19.99-2.97-29.78l-11.15-55.39c-.05-.25-.06-.52-.03-.77l8.18-68.99c.68-5.75-2.77-11.22-8.38-13.28l-164.88-60.66c-120.89-44.47-247.65-66.52-374.04-66.52Z"/><ellipse cx="2593.73" cy="1479.43" rx="137.61" ry="132.53"/><ellipse cx="2593.73" cy="1479.43" rx="92.55" ry="89.14" style="fill:#e0e0e0;"/><ellipse cx="2593.73" cy="1479.43" rx="74.27" ry="71.53" style="fill:#444;"/><ellipse cx="1665.82" cy="1479.43" rx="137.61" ry="132.53"/><ellipse cx="1665.82" cy="1479.43" rx="92.55" ry="89.14" style="fill:#e0e0e0;"/><ellipse cx="1665.82" cy="1479.43" rx="74.27" ry="71.53" style="fill:#444;"/></g></svg>