<?xml version="1.0" encoding="utf-8"?>
<!-- Generator: Adobe Illustrator 27.6.1, SVG Export Plug-In . SVG Version: 6.00 Build 0)  -->
<svg version="1.1" id="Illustration" xmlns="http://www.w3.org/2000/svg" xmlns:xlink="http://www.w3.org/1999/xlink" x="0px"
	 y="0px" viewBox="0 0 788.49 501.9" enable-background="new 0 0 788.49 501.9" xml:space="preserve">
<g>
	<defs>
		<rect id="SVGID_1_" x="-57.13" y="-37.62" width="883.99" height="562.27"/>
	</defs>
	<clipPath id="SVGID_00000080178183698743588070000004099233231237841061_">
		<use xlink:href="#SVGID_1_"  overflow="visible"/>
	</clipPath>
	<g id="Return_the_bike_1_" clip-path="url(#SVGID_00000080178183698743588070000004099233231237841061_)">
		<g>
			
				<linearGradient id="SVGID_00000181803178383482239000000000888461993198681535_" gradientUnits="userSpaceOnUse" x1="23.7814" y1="238.1957" x2="761.4318" y2="238.1957">
				<stop  offset="0" style="stop-color:#666666"/>
				<stop  offset="1" style="stop-color:#4D4D4D"/>
			</linearGradient>
			<path fill="url(#SVGID_00000181803178383482239000000000888461993198681535_)" d="M213.72,452.57H24.78c-0.55,0-1-0.45-1-1V24.82
				c0-0.55,0.45-1,1-1h735.65c0.55,0,1,0.45,1,1v89.09c0,0.55-0.45,1-1,1c-0.55,0-1-0.45-1-1V25.82H25.78v424.75h187.94
				c0.55,0,1,0.45,1,1C214.72,452.12,214.27,452.57,213.72,452.57z"/>
			<g>
				
					<rect x="199.23" y="-109.63" transform="matrix(-1.836970e-16 1 -1 -1.836970e-16 630.8019 -154.4112)" fill="#FFFFFF" width="386.75" height="695.65"/>
				<path fill="#F2F2F2" d="M740.43,432.57H44.78c-0.55,0-1-0.45-1-1V44.82c0-0.55,0.45-1,1-1h695.65c0.55,0,1,0.45,1,1v386.75
					C741.43,432.12,740.98,432.57,740.43,432.57z M45.78,430.57h693.65V45.82H45.78V430.57z"/>
			</g>
			<path fill="#F2F2F2" d="M432.25,396.63H191.18c-5.52,0-10-4.48-10-10V171.39l-59.61-59.62H44.78v-20h80.92
				c2.65,0,5.2,1.05,7.07,2.93l65.47,65.47c1.88,1.88,2.93,4.42,2.93,7.07v209.39h226.93l208.17-208.17V46.85h20V172.6
				c0,2.65-1.05,5.2-2.93,7.07L439.32,393.71C437.45,395.58,434.9,396.63,432.25,396.63z"/>
			<path fill="#F2F2F2" d="M78.5,432.57c-0.55,0-1-0.45-1-1v-74.02c0-0.24,0.09-0.47,0.25-0.66l211.11-243.35V46.85
				c0-0.55,0.45-1,1-1c0.55,0,1,0.45,1,1v67.06c0,0.24-0.09,0.47-0.24,0.66L79.5,357.92v73.65C79.5,432.12,79.05,432.57,78.5,432.57
				z"/>
			<path fill="#F2F2F2" d="M739.95,357.27c-0.22,0-0.45-0.08-0.64-0.23L524,179.29c-0.23-0.19-0.36-0.47-0.36-0.77v-74.71
				c0-0.55,0.45-1,1-1h215.8c0.55,0,1,0.45,1,1c0,0.55-0.45,1-1,1h-214.8v73.24L740.58,355.5c0.43,0.35,0.49,0.98,0.13,1.41
				C740.52,357.14,740.23,357.27,739.95,357.27z"/>
			<path fill="#F2F2F2" d="M681.11,430.98c-0.55,0-1-0.45-1-1V321.26H451.15c-0.55,0-1-0.45-1-1c0-0.55,0.45-1,1-1h229.96
				c0.55,0,1,0.45,1,1v109.72C682.11,430.53,681.66,430.98,681.11,430.98z"/>
		</g>
		<g display="none">
			
				<ellipse transform="matrix(0.7071 -0.7071 0.7071 0.7071 93.6367 650.6252)" display="inline" fill="#FFFFFF" cx="832.19" cy="212.28" rx="65.52" ry="65.52"/>
			<g display="inline">
				<path fill="#5479F7" d="M730.14,210.21c0,91.38,95.8,189.43,95.8,189.43s95.8-97.16,95.8-189.43c0-52.91-42.89-95.8-95.8-95.8
					C773.04,114.41,730.14,157.3,730.14,210.21z M781.3,212.39c0-24.65,19.99-44.64,44.64-44.64c24.65,0,44.64,19.99,44.64,44.64
					c0,24.65-19.99,44.64-44.64,44.64C801.29,257.03,781.3,237.04,781.3,212.39z"/>
			</g>
		</g>
		<g>
			<polygon display="none" fill="#FFFFFF" points="743.38,254.91 1062.57,254.91 1062.57,57.35 988.27,57.62 987.95,75.22 
				957.27,75.22 957.67,24.68 901.73,24.92 901.31,74.42 744.8,76.99 			"/>
			<g display="none">
				<g display="inline">
					<rect x="785.76" y="49.1" fill="#FFFFFF" width="122.1" height="205.83"/>
					<path d="M907.86,255.93h-122.1c-0.55,0-1-0.45-1-1V49.1c0-0.55,0.45-1,1-1h122.1c0.55,0,1,0.45,1,1v205.83
						C908.86,255.48,908.42,255.93,907.86,255.93z M786.76,253.93h120.1V50.1h-120.1V253.93z"/>
				</g>
			</g>
			<path display="none" d="M744.26,170.56c-0.55,0-1-0.45-1-1V75.99c0-0.55,0.45-1,1-1h37.05c0.55,0,1,0.45,1,1c0,0.55-0.45,1-1,1
				h-36.05v92.57C745.26,170.11,744.81,170.56,744.26,170.56z"/>
			<g>
				<path display="none" d="M1067.27,255.93h-323c-0.55,0-1-0.45-1-1c0-0.55,0.45-1,1-1h323c0.55,0,1,0.45,1,1
					C1068.27,255.48,1067.82,255.93,1067.27,255.93z"/>
			</g>
		</g>
		<g display="none">
			<g display="inline">
				<g>
					<path fill="#FFFFFF" d="M338.75,353.84h109.62L600.02,811.1l20.68,27.8c4.89,6.57,0.2,15.91-8,15.91H500.23
						c-13.66,0-25.37-9.77-27.81-23.21l-55.64-306.12l-22.57,309c-0.84,11.46-10.38,20.33-21.87,20.33h-84.58
						c-13.43,0-23.71-11.96-21.68-25.24L338.75,353.84z"/>
					<path d="M612.7,855.82H500.23c-14.15,0-26.26-10.11-28.8-24.03L417.2,533.41L395.2,834.56c-0.87,11.92-10.92,21.26-22.87,21.26
						h-84.58c-6.69,0-13.03-2.91-17.39-7.99c-4.36-5.08-6.28-11.79-5.27-18.4l72.68-475.74c0.07-0.49,0.49-0.85,0.99-0.85h109.62
						c0.43,0,0.81,0.28,0.95,0.69l151.6,457.11l20.58,27.68c2.49,3.35,2.87,7.74,1,11.47C620.63,853.5,616.87,855.82,612.7,855.82z
						 M416.77,524.49c0.48,0,0.9,0.34,0.98,0.82l55.64,306.12c2.36,12.97,13.64,22.39,26.83,22.39H612.7c3.46,0,6.46-1.85,8.01-4.94
						c1.55-3.09,1.25-6.6-0.82-9.38l-20.68-27.8c-0.06-0.09-0.11-0.18-0.15-0.28L447.64,354.84H339.61l-72.55,474.89
						c-0.92,6.04,0.83,12.16,4.81,16.8c3.98,4.63,9.77,7.29,15.88,7.29h84.58c10.91,0,20.08-8.52,20.87-19.41l22.57-309
						c0.04-0.5,0.44-0.9,0.94-0.93C416.74,524.49,416.75,524.49,416.77,524.49z"/>
				</g>
				<path d="M416.77,526.49c-0.02,0-0.04,0-0.06,0c-0.55-0.03-0.97-0.51-0.94-1.06l4.47-73.42c0.02-0.32,0.19-0.6,0.45-0.78
					l10.89-7.09c0.46-0.3,1.08-0.17,1.38,0.29c0.3,0.46,0.17,1.08-0.29,1.38l-10.47,6.81l-4.44,72.91
					C417.74,526.08,417.3,526.49,416.77,526.49z"/>
				<path d="M427.92,153.2c0,0-50.85-17.16-114.49-4.89s-56.03,69.88-14.51,64.07c0,0-29.59,40.91,31.98,39.54
					C392.46,250.55,427.92,153.2,427.92,153.2z"/>
				<g>
					<path fill="#5479F7" d="M355.92,419.92l27.78-21.53l-23.8-39.56h96.62l2.31-8.64c0,0,39.23,73.11,109.97,19.8l25.28-9.2
						l-50-25.7c0,0-22.67-46.39-46.04-77.92c-13.21-17.83-32.92-29.76-54.85-33.2c-19.28-3.02-45.47-5.63-73.53-4.12
						c-18.03,0.97-35.28,7.65-49.25,19.08c-26.26,21.49-66.19,62.32-64.73,111.07C257.85,422.43,355.92,419.92,355.92,419.92z"/>
					<path d="M359.9,359.83c-0.31,0-0.62-0.14-0.81-0.41l-21.15-29.27c-0.23-0.32-0.25-0.75-0.05-1.1l29.39-49.46
						c0.28-0.48,0.9-0.63,1.37-0.35c0.47,0.28,0.63,0.9,0.35,1.37l-29.05,48.89l20.76,28.74c0.32,0.45,0.22,1.07-0.22,1.4
						C360.3,359.77,360.1,359.83,359.9,359.83z"/>
					<path d="M458.82,351.2c-0.08,0-0.15-0.01-0.23-0.03c-0.54-0.13-0.87-0.67-0.74-1.2l12.66-53.39c0.13-0.54,0.67-0.87,1.2-0.74
						c0.54,0.13,0.87,0.67,0.74,1.2l-12.66,53.39C459.69,350.89,459.28,351.2,458.82,351.2z"/>
				</g>
				<g>
					<path d="M400.58,186.41c0,0-11.82-33.69,31.67-39.24s56.67,14.78,18.85,35.33C413.3,203.04,409.44,213.75,400.58,186.41z"/>
					<g>
						<path fill="#FFFFFF" d="M410.71,189.27l-23.68,33.77c0,0,20.69,18.69,33.89,16.71c13.2-1.98,0.13-14.06,0.13-14.06l11.3-21.92
							L410.71,189.27z"/>
						<path d="M421.05,226.68c-0.15,0-0.31-0.04-0.46-0.11c-0.49-0.25-0.68-0.86-0.43-1.35l10.89-21.13l-20.89-14
							c-0.46-0.31-0.58-0.93-0.27-1.39c0.31-0.46,0.93-0.58,1.39-0.27l21.64,14.49c0.42,0.28,0.57,0.84,0.33,1.29l-11.3,21.92
							C421.76,226.49,421.41,226.68,421.05,226.68z"/>
						<g>
							<path fill="#FFFFFF" d="M454.87,171.4c0,0,1.27,39.54-18.69,41.4c-16.52,1.54-21.73-14.99-21.73-14.99
								s-13.87-5.93-9.26-17.32c2.93-7.25,11.61,4.41,11.61,4.41s8.73,4.78,9.29-6.11C426.65,167.91,454.87,171.4,454.87,171.4z"/>
							<path d="M434.05,213.9c-13.95,0-19.46-12.83-20.4-15.36c-2.35-1.15-13.83-7.43-9.39-18.43c0.9-2.22,2.29-2.84,3.3-2.97
								c3.96-0.49,8.85,5.61,9.89,6.97c0.7,0.33,3.33,1.45,5.23,0.38c1.44-0.81,2.25-2.74,2.4-5.75c0.1-1.94,0.96-3.6,2.54-4.93
								c6.98-5.85,26.53-3.51,27.36-3.41c0.49,0.06,0.86,0.47,0.88,0.96c0.05,1.65,1.06,40.51-19.6,42.43
								C435.5,213.87,434.77,213.9,434.05,213.9z M408.06,179.12c-0.08,0-0.16,0-0.24,0.02c-0.26,0.03-1.05,0.13-1.7,1.74
								c-4.19,10.36,8.2,15.8,8.73,16.03c0.27,0.12,0.47,0.34,0.56,0.62c0.21,0.64,5.19,15.74,20.68,14.29
								c17.21-1.6,17.83-33.77,17.8-39.51c-3.84-0.38-19.42-1.6-24.96,3.05c-1.16,0.97-1.76,2.12-1.83,3.5
								c-0.2,3.75-1.35,6.24-3.43,7.4c-3.18,1.77-7.17-0.38-7.34-0.47c-0.13-0.07-0.24-0.16-0.32-0.28
								C414.11,182.97,410.37,179.12,408.06,179.12z"/>
						</g>
						<path d="M414.43,194.19c-0.41,0-0.79-0.25-0.94-0.65c-0.91-2.43-2.54-4.64-4.59-6.22c-0.44-0.34-0.52-0.96-0.18-1.4
							c0.34-0.44,0.96-0.52,1.4-0.18c2.38,1.83,4.19,4.29,5.24,7.11c0.19,0.52-0.07,1.09-0.59,1.29
							C414.66,194.17,414.54,194.19,414.43,194.19z"/>
					</g>
				</g>
			</g>
			<g display="inline">
				<g>
					<polygon fill="#FFFFFF" points="580.56,854.82 923.46,854.82 923.46,446.84 725.27,446.84 					"/>
					<path fill="#5479F7" d="M923.46,855.82H580.56c-0.33,0-0.63-0.16-0.82-0.42c-0.19-0.27-0.23-0.61-0.13-0.91l144.71-407.98
						c0.14-0.4,0.52-0.67,0.94-0.67h198.19c0.55,0,1,0.45,1,1v407.98C924.46,855.37,924.02,855.82,923.46,855.82z M581.97,853.82
						h340.49V447.84H725.98L581.97,853.82z"/>
				</g>
				<g>
					<g>
						<g>
							
								<ellipse transform="matrix(0.7071 -0.7071 0.7071 0.7071 -269.1552 705.3816)" fill="#FFFFFF" cx="716.89" cy="677.59" rx="177.23" ry="177.23"/>
							<path d="M716.89,855.82c-98.28,0-178.23-79.95-178.23-178.23c0-98.28,79.95-178.23,178.23-178.23s178.23,79.95,178.23,178.23
								C895.12,775.87,815.17,855.82,716.89,855.82z M716.89,501.36c-97.17,0-176.23,79.06-176.23,176.23
								c0,97.17,79.06,176.23,176.23,176.23c97.17,0,176.23-79.06,176.23-176.23C893.12,580.42,814.07,501.36,716.89,501.36z"/>
						</g>
					</g>
					<g>
						
							<ellipse transform="matrix(0.7071 -0.7071 0.7071 0.7071 -420.2535 340.5979)" fill="#FFFFFF" cx="201.01" cy="677.59" rx="177.23" ry="177.23"/>
						<path d="M201.01,855.82c-98.28,0-178.23-79.95-178.23-178.23c0-98.28,79.95-178.23,178.23-178.23s178.23,79.95,178.23,178.23
							C379.24,775.87,299.29,855.82,201.01,855.82z M201.01,501.36c-97.17,0-176.23,79.06-176.23,176.23
							c0,97.17,79.06,176.23,176.23,176.23c97.17,0,176.23-79.06,176.23-176.23C377.24,580.42,298.18,501.36,201.01,501.36z"/>
					</g>
					<g>
						<path d="M433.94,680.09H199.42c-0.38,0-0.73-0.22-0.9-0.56s-0.13-0.75,0.11-1.05l143.34-185.87c0.19-0.25,0.48-0.39,0.79-0.39
							h237.8c0.38,0,0.73,0.22,0.9,0.56c0.17,0.34,0.12,0.75-0.11,1.06L434.73,679.71C434.54,679.95,434.25,680.09,433.94,680.09z
							 M201.45,678.09h232.01L578.5,494.23H343.25L201.45,678.09z"/>
						<path d="M681.11,642.8c-0.32,0-0.64-0.15-0.83-0.44L547.1,445.58c-0.17-0.26-0.22-0.58-0.12-0.88l24.37-73.59
							c0.15-0.44,0.58-0.73,1.04-0.68l44.39,3.88c0.55,0.05,0.96,0.53,0.91,1.08c-0.05,0.55-0.54,0.97-1.08,0.91L573,372.49
							l-23.97,72.37l132.9,196.38c0.31,0.46,0.19,1.08-0.27,1.39C681.5,642.75,681.3,642.8,681.11,642.8z"/>
						<path d="M428.52,642.8c-0.35,0-0.68-0.18-0.87-0.5l-85.83-148.58c-0.09-0.15-0.13-0.32-0.13-0.5V442.3c0-0.55,0.45-1,1-1
							c0.55,0,1,0.45,1,1v50.66l85.69,148.34c0.28,0.48,0.11,1.09-0.37,1.37C428.86,642.76,428.69,642.8,428.52,642.8z"/>
					</g>
					<g>
						<path fill="#FFFFFF" d="M404.36,447.33h-85.91c-5.96,0-10.78-4.83-10.78-10.78l0,0c0-5.96,4.83-10.78,10.78-10.78h85.91
							c5.96,0,10.78,4.83,10.78,10.78l0,0C415.15,442.51,410.32,447.33,404.36,447.33z"/>
						<path d="M404.36,448.33h-85.91c-6.5,0-11.78-5.29-11.78-11.78c0-6.5,5.29-11.78,11.78-11.78h85.91
							c6.5,0,11.78,5.29,11.78,11.78C416.15,443.05,410.86,448.33,404.36,448.33z M318.46,426.77c-5.39,0-9.78,4.39-9.78,9.78
							c0,5.39,4.39,9.78,9.78,9.78h85.91c5.39,0,9.78-4.39,9.78-9.78c0-5.39-4.39-9.78-9.78-9.78H318.46z"/>
					</g>
				</g>
			</g>
			<g display="inline">
				<path fill="#FFFFFF" d="M566.13,360.04h39.77c6.56,0,12.71,3.62,15.52,9.55c0.77,1.62,1.28,3.25,1.27,4.73
					c0,3.61-10.5,10.4-18.7,15.15c-5.12,2.97-11.66,1.52-15-3.36c-4.84-7.08-11.88-15.77-16.69-14.68
					c-7.98,1.8-4.98,6.14-10.61,7.79C556.06,380.86,551.73,361.84,566.13,360.04z"/>
				<path d="M598.33,391.99c-3.95,0-7.81-1.88-10.16-5.32c-6.7-9.8-12.41-15.02-15.64-14.27c-3.97,0.9-4.87,2.38-5.83,3.95
					c-0.85,1.39-1.81,2.98-4.72,3.83c-1.74,0.5-3.47-0.35-4.75-2.34c-0.3-0.46-0.16-1.08,0.3-1.38c0.47-0.3,1.09-0.17,1.38,0.3
					c0.45,0.7,1.38,1.84,2.51,1.51c2.16-0.63,2.79-1.66,3.58-2.95c1.08-1.77,2.3-3.77,7.1-4.86c4.27-0.95,10.23,4.12,17.73,15.1
					c3.01,4.41,9.02,5.76,13.67,3.06c16.88-9.79,18.2-13.41,18.2-14.29c0-1.2-0.39-2.65-1.18-4.3c-2.58-5.45-8.32-8.98-14.61-8.98
					h-11.82c-0.55,0-1-0.45-1-1c0-0.55,0.45-1,1-1h11.82c7.06,0,13.51,3.97,16.42,10.12c0.91,1.92,1.37,3.66,1.37,5.16
					c0,1.21,0,4.89-19.2,16.02C602.56,391.46,600.43,391.99,598.33,391.99z"/>
				<path d="M603.26,390.17c-0.44,0-0.84-0.29-0.96-0.73c-2.36-8.57-8.44-16.21-16.28-20.42c-0.49-0.26-0.67-0.87-0.41-1.35
					c0.26-0.49,0.87-0.67,1.35-0.41c8.3,4.47,14.75,12.56,17.26,21.65c0.15,0.53-0.17,1.08-0.7,1.23
					C603.44,390.16,603.35,390.17,603.26,390.17z"/>
				<path d="M610.69,385.53c-0.44,0-0.85-0.3-0.96-0.74c-1.93-7.24-6.64-13.75-12.9-17.86c-0.46-0.3-0.59-0.92-0.29-1.38
					c0.3-0.46,0.92-0.59,1.38-0.29c6.67,4.37,11.68,11.3,13.74,19.02c0.14,0.53-0.17,1.08-0.71,1.22
					C610.86,385.52,610.78,385.53,610.69,385.53z"/>
				<path d="M616.7,381.87c-0.45,0-0.86-0.31-0.97-0.77c-1.36-5.72-4.47-11.1-8.74-15.14c-0.4-0.38-0.42-1.01-0.04-1.41
					c0.38-0.4,1.01-0.42,1.41-0.04c4.55,4.31,7.85,10.04,9.31,16.13c0.13,0.54-0.2,1.08-0.74,1.2
					C616.85,381.86,616.77,381.87,616.7,381.87z"/>
			</g>
			<g display="inline">
				<path fill="#FFFFFF" d="M358.85,409.54c5.17-4.35,12.99-8.57,24.85-11.15l34.37,24.35c5.94,4.21,8.7,11.63,6.95,18.7l0,0h-42.95
					c-2.61,0-5.19-0.65-7.49-1.88l-13.18-7.07C352.74,427.85,351.34,415.87,358.85,409.54z"/>
				<path d="M425.02,442.45h-42.95c-2.77,0-5.52-0.69-7.96-2l-13.18-7.07c-4.97-2.67-8.01-7.83-7.95-13.48
					c0.01-0.55,0.45-0.99,1-0.99c0,0,0.01,0,0.01,0c0.55,0.01,1,0.46,0.99,1.01c-0.05,4.9,2.59,9.39,6.9,11.7l13.18,7.07
					c2.15,1.15,4.58,1.76,7.02,1.76h42.15c1.3-6.48-1.29-13.03-6.72-16.88l-34.37-24.35c-0.45-0.32-0.56-0.94-0.24-1.39
					c0.32-0.45,0.94-0.56,1.39-0.24l34.37,24.35c6.32,4.48,9.2,12.24,7.34,19.76C425.88,442.13,425.48,442.45,425.02,442.45z"/>
				<path d="M419.52,441.39c-0.37,0-0.73-0.21-0.9-0.57c-5.63-11.7-15.88-20.88-28.13-25.19c-0.52-0.18-0.8-0.75-0.61-1.28
					c0.18-0.52,0.75-0.8,1.28-0.61c12.75,4.48,23.41,14.03,29.27,26.21c0.24,0.5,0.03,1.1-0.47,1.33
					C419.81,441.36,419.67,441.39,419.52,441.39z"/>
				<path d="M407.68,441.86c-0.32,0-0.64-0.15-0.83-0.44c-6.12-9.04-15.05-16.33-25.13-20.52c-0.51-0.21-0.75-0.8-0.54-1.31
					c0.21-0.51,0.8-0.75,1.31-0.54c10.44,4.34,19.68,11.89,26.02,21.25c0.31,0.46,0.19,1.08-0.27,1.39
					C408.07,441.8,407.87,441.86,407.68,441.86z"/>
				<path d="M394.95,441.2c-0.26,0-0.52-0.1-0.71-0.3c-5.55-5.62-12.32-10.25-19.58-13.38c-0.51-0.22-0.74-0.81-0.52-1.31
					c0.22-0.51,0.81-0.74,1.31-0.52c7.49,3.23,14.48,8,20.21,13.81c0.39,0.39,0.38,1.03-0.01,1.41
					C395.46,441.11,395.2,441.2,394.95,441.2z"/>
			</g>
			<circle display="inline" fill="#5479F7" cx="574.8" cy="375.04" r="8.67"/>
		</g>
		<g>
			<defs>
				<rect id="SVGID_00000094584507880864617850000002527105032356604092_" x="350.76" y="253.5" width="103.52" height="156.87"/>
			</defs>
			<clipPath id="SVGID_00000091017182571302459830000007761823937360823682_">
				<use xlink:href="#SVGID_00000094584507880864617850000002527105032356604092_"  overflow="visible"/>
			</clipPath>
			<g clip-path="url(#SVGID_00000091017182571302459830000007761823937360823682_)">
				<g>
					<g>
						<g id="XMLID_1_">
							
								<linearGradient id="SVGID_00000135679790085462615150000008130359451193878196_" gradientUnits="userSpaceOnUse" x1="359.8372" y1="323.9003" x2="446.6895" y2="323.9003">
								<stop  offset="0" style="stop-color:#B685FF"/>
								<stop  offset="0.0559" style="stop-color:#AD8DFD"/>
								<stop  offset="0.1473" style="stop-color:#94A3F9"/>
								<stop  offset="0.2096" style="stop-color:#80B5F5"/>
								<stop  offset="0.3275" style="stop-color:#6DC6F1"/>
								<stop  offset="0.3279" style="stop-color:#6DC6F1"/>
								<stop  offset="0.4289" style="stop-color:#52DEEC"/>
								<stop  offset="0.559" style="stop-color:#4DDCEB"/>
								<stop  offset="0.6968" style="stop-color:#00BBDC"/>
								<stop  offset="0.9087" style="stop-color:#006577"/>
								<stop  offset="0.9617" style="stop-color:#006374"/>
								<stop  offset="0.9958" style="stop-color:#005B6C"/>
								<stop  offset="1" style="stop-color:#005A6A"/>
							</linearGradient>
							<path fill="url(#SVGID_00000135679790085462615150000008130359451193878196_)" d="M440.79,282.63
								c7.82,12.87,7.89,28.3,0.07,41.17l-15.51,25.48l-16.93,27.79l-5.19,8.52l-5.19-8.58l-16.32-26.83
								c-0.13-0.7-0.54-1.28-1.08-1.73l-14.9-24.52c-7.89-12.87-7.82-28.24,0-41.11c7.89-12.93,21.92-20.62,37.56-20.62
								S432.97,269.83,440.79,282.63z M432.83,301.97c0-15.56-13.35-28.24-29.74-28.24c-16.39,0-29.74,12.68-29.74,28.24
								c0,15.56,13.35,28.24,29.74,28.24C419.48,330.21,432.83,317.53,432.83,301.97z"/>
							
								<linearGradient id="SVGID_00000080172205116959173170000009008515043566691231_" gradientUnits="userSpaceOnUse" x1="367.9551" y1="391.9628" x2="438.3607" y2="391.9628">
								<stop  offset="0" style="stop-color:#B685FF"/>
								<stop  offset="0.0559" style="stop-color:#AD8DFD"/>
								<stop  offset="0.1473" style="stop-color:#94A3F9"/>
								<stop  offset="0.2096" style="stop-color:#80B5F5"/>
								<stop  offset="0.3275" style="stop-color:#6DC6F1"/>
								<stop  offset="0.3279" style="stop-color:#6DC6F1"/>
								<stop  offset="0.4289" style="stop-color:#52DEEC"/>
								<stop  offset="0.559" style="stop-color:#4DDCEB"/>
								<stop  offset="0.6968" style="stop-color:#00BBDC"/>
								<stop  offset="0.9087" style="stop-color:#006577"/>
								<stop  offset="0.9617" style="stop-color:#006374"/>
								<stop  offset="0.9958" style="stop-color:#005B6C"/>
								<stop  offset="1" style="stop-color:#005A6A"/>
							</linearGradient>
							<path fill="url(#SVGID_00000080172205116959173170000009008515043566691231_)" d="M413,381.94
								c16.52,1.66,25.36,6.59,25.36,9.8c0,4.16-13.76,10.24-35.2,10.24c-21.45,0-35.2-6.02-35.2-10.24c0-3.27,8.77-8.32,25.42-9.8
								l7.01,11.53c0.54,0.9,1.62,1.54,2.83,1.54c1.15,0,2.23-0.64,2.76-1.54L413,381.94z"/>
							
								<linearGradient id="SVGID_00000072998306658776444030000010510880592840286353_" gradientUnits="userSpaceOnUse" x1="379.9518" y1="301.9653" x2="426.2274" y2="301.9653">
								<stop  offset="0" style="stop-color:#B685FF"/>
								<stop  offset="0.0559" style="stop-color:#AD8DFD"/>
								<stop  offset="0.1473" style="stop-color:#94A3F9"/>
								<stop  offset="0.2096" style="stop-color:#80B5F5"/>
								<stop  offset="0.3275" style="stop-color:#6DC6F1"/>
								<stop  offset="0.3279" style="stop-color:#6DC6F1"/>
								<stop  offset="0.4289" style="stop-color:#52DEEC"/>
								<stop  offset="0.559" style="stop-color:#4DDCEB"/>
								<stop  offset="0.6968" style="stop-color:#00BBDC"/>
								<stop  offset="0.9087" style="stop-color:#006577"/>
								<stop  offset="0.9617" style="stop-color:#006374"/>
								<stop  offset="0.9958" style="stop-color:#005B6C"/>
								<stop  offset="1" style="stop-color:#005A6A"/>
							</linearGradient>
							
								<ellipse fill="url(#SVGID_00000072998306658776444030000010510880592840286353_)" cx="403.09" cy="301.97" rx="23.13" ry="21.96"/>
							
								<linearGradient id="SVGID_00000102505143403119249600000014461942105213438372_" gradientUnits="userSpaceOnUse" x1="265.0442" y1="279.4644" x2="541.6763" y2="279.4644">
								<stop  offset="0" style="stop-color:#B685FF"/>
								<stop  offset="0.0559" style="stop-color:#AD8DFD"/>
								<stop  offset="0.1473" style="stop-color:#94A3F9"/>
								<stop  offset="0.2096" style="stop-color:#80B5F5"/>
								<stop  offset="0.3275" style="stop-color:#6DC6F1"/>
								<stop  offset="0.3279" style="stop-color:#6DC6F1"/>
								<stop  offset="0.4289" style="stop-color:#52DEEC"/>
								<stop  offset="0.559" style="stop-color:#4DDCEB"/>
								<stop  offset="0.6968" style="stop-color:#00BBDC"/>
								<stop  offset="0.9087" style="stop-color:#006577"/>
								<stop  offset="0.9617" style="stop-color:#006374"/>
								<stop  offset="0.9958" style="stop-color:#005B6C"/>
								<stop  offset="1" style="stop-color:#005A6A"/>
							</linearGradient>
							<path display="none" fill="url(#SVGID_00000102505143403119249600000014461942105213438372_)" d="M506.07,280.01
								c19.62,0,35.61,15.17,35.61,33.81s-15.98,33.81-35.61,33.81h-72.16l12.54-20.55c9.04-14.85,8.97-32.59-0.07-47.45
								c-9.04-14.85-25.15-23.69-43.16-23.69s-34.26,8.84-43.23,23.69c-8.97,14.85-8.97,32.53,0,47.38l12.54,20.62h-71.89
								c-19.62,0-35.61-15.11-35.61-33.81c0-18.7,15.98-33.87,35.61-33.87c0.88,0,1.75-0.38,2.36-0.96
								c0.61-0.58,0.94-1.47,0.88-2.31c-0.54-11.33,3.44-21.83,11.19-29.45c7.49-7.49,18.07-11.78,29-11.78
								c6.07,0,12.07,1.28,17.26,3.71c0.88,0.38,1.89,0.45,2.76,0.06c0.88-0.38,1.55-1.09,1.82-1.92c5.13-15.49,20.23-26,37.43-26
								s32.24,10.5,37.43,26.12c0.27,0.83,0.94,1.54,1.82,1.92c0.88,0.38,1.89,0.38,2.76-0.06c5.26-2.43,11.13-3.71,17.26-3.71
								c10.93,0,21.51,4.23,29,11.72c7.69,7.62,11.67,18.12,11.19,29.45c-0.07,0.83,0.27,1.66,0.88,2.31
								S505.19,280.01,506.07,280.01z"/>
						</g>
					</g>
				</g>
			</g>
		</g>
	</g>
	<g clip-path="url(#SVGID_00000080178183698743588070000004099233231237841061_)">
		<path fill="#FFFFFF" d="M758.47,455.47l-1.49,3.33c-2.08,4.67-6.22,8.28-11.36,9.9l-20.95,6.6H420.25l-18.37-5.26
			c-4.95-1.42-8.48-5.49-8.93-10.3l-0.77-8.25c-0.11-1.29,0.15-2.57,0.76-3.73l0,0c0.74-1.43,1.01-3.04,0.76-4.61l-1.63-10.31
			c-0.33-2.07,0.83-4.09,2.85-4.99l4.19-1.87c23.05-10.26,47.74-16.96,73.09-19.84l10.66-1.21l12.14-6.09
			c67.78-34.02,148.05-38.84,219.94-13.21l44.45,15.85l-2.41,19.72l2.81,13.53c0.51,2.44,0.76,4.91,0.76,7.39v3.76
			C760.53,449.18,759.83,452.44,758.47,455.47z"/>
		
			<linearGradient id="SVGID_00000083784930506355731870000003614844785207475624_" gradientUnits="userSpaceOnUse" x1="490.9396" y1="392.4647" x2="713.2469" y2="392.4647">
			<stop  offset="0" style="stop-color:#000000"/>
			<stop  offset="0.1386" style="stop-color:#0D0D0D"/>
			<stop  offset="0.4373" style="stop-color:#222222"/>
			<stop  offset="0.7281" style="stop-color:#2F2F2F"/>
			<stop  offset="1" style="stop-color:#333333"/>
		</linearGradient>
		<path fill="url(#SVGID_00000083784930506355731870000003614844785207475624_)" d="M712.67,394.67c0.83-0.4,0.75-1.53-0.12-1.84
			l-11.07-3.94c-63.56-22.64-149.61-21.77-210.54,21.83l148.53-4.8c17.24-0.56,34.44-1.94,51.53-4.15l0,0
			C699.67,400.64,708.7,396.61,712.67,394.67z"/>
		<path fill="#444444" d="M732.47,418.24c0,0-5.57,4.7,24.48,3.06l2.43-19.86C759.37,401.45,743.33,409.66,732.47,418.24z"/>
		<path fill="#141414" d="M734.26,420.67c2.85,0.82,9.16,1.37,22.68,0.63l0.76-6.22c0,0,1.36-8.14-6.31-5.07
			C742.9,413.42,734.26,420.67,734.26,420.67z"/>
		<path fill="#848484" d="M422.12,466.42l274.9-4.88l61.72-6.69c-0.09,0.21-0.17,0.42-0.27,0.62l-1.49,3.33
			c-2.08,4.67-6.22,8.27-11.36,9.89l-13.22,4.17c-5.11,1.61-10.47,2.43-15.87,2.43H424.57c-2.87,0-5.72-0.4-8.46-1.18l-14.23-4.07
			c-3.6-1.03-6.46-3.47-7.92-6.58L422.12,466.42z"/>
		<g>
			<path fill="#FFFFFF" d="M430.65,424.11c0.32-0.22,0.19-0.7-0.2-0.74c-2.12-0.25-7.11-0.72-12.53-0.28
				c-5.55,0.45-13.91,4.28-17.42,6c-0.94,0.46-1.35,1.51-0.95,2.43l0.24,0.54c0.47,1.07,1.59,1.78,2.83,1.78h7.49
				c4.09,0,8.07-1.21,11.37-3.47L430.65,424.11z"/>
			<path fill="#141414" d="M400.57,429.05c3.56-1.74,11.84-5.52,17.35-5.97c2.2-0.18,4.34-0.21,6.23-0.16l-6.66,4.38
				c-2.59,1.7-5.59,2.79-8.74,3.17l-4.82,0.58c-0.9,0.11-1.8-0.22-2.37-0.88L400.57,429.05z"/>
			<path fill="#141414" d="M410.11,434.46h-7.49c-1.52,0-2.87-0.85-3.45-2.16l-0.24-0.54c-0.53-1.22,0.01-2.6,1.26-3.21l0.07-0.04
				l0,0c3.4-1.66,11.92-5.58,17.6-6.04c5.54-0.45,10.68,0.04,12.63,0.28c0.46,0.05,0.83,0.36,0.95,0.78
				c0.12,0.42-0.05,0.85-0.42,1.11l-9.15,6.24C418.44,433.21,414.37,434.46,410.11,434.46z M400.88,429.6l-0.07,0.04
				c-0.64,0.31-0.91,1.02-0.64,1.64l0.24,0.54c0.37,0.84,1.24,1.39,2.21,1.39h7.49c3.97,0,7.77-1.16,10.98-3.35l8.72-5.95
				c-2.2-0.24-6.85-0.61-11.82-0.21C412.54,424.15,404.21,427.98,400.88,429.6L400.88,429.6z"/>
		</g>
		<path fill="#444444" d="M576.93,416.58l27.12-0.78c2.88-0.08,5.68-0.9,8.1-2.37l1.56-0.95l-27.24,0.76
			C582.98,413.33,579.63,414.51,576.93,416.58L576.93,416.58z"/>
		<path fill="#E0E0E0" d="M409.17,449.12c-0.39,4.1-2.03,8.18-2.89,10.09c-0.32,0.72-1.13,1.15-1.96,1.03
			c-2.39-0.33-6.99-1.85-7.79-8.73c-0.16-1.35,0.68-2.63,2.03-3.15c1.78-0.69,6.11-0.98,8.68-1.09
			C408.35,447.23,409.26,448.1,409.17,449.12z"/>
		<path fill="#848484" d="M403.92,460.18c0.14,0.03,0.28,0.05,0.4,0.06c0.83,0.11,1.64-0.31,1.96-1.03
			c0.86-1.91,2.49-5.99,2.89-10.09c0.1-1.03-0.82-1.89-1.92-1.84c-0.71,0.03-1.56,0.08-2.44,0.14l0,0.03
			c0.55,4.07,0.29,8.19-0.75,12.18L403.92,460.18z"/>
		<path fill="#444444" d="M494.04,460.43c0-20.04-17.4-36.28-38.87-36.28c-21.47,0-38.87,16.24-38.87,36.28
			c0,5.23,1.19,10.2,3.32,14.69l0.63,0.18h70.39C492.82,470.73,494.04,465.73,494.04,460.43z"/>
		<path fill="#444444" d="M727.96,460.43c0-20.04-17.41-36.29-38.89-36.29c-21.48,0-38.89,16.25-38.89,36.29
			c0,5.3,1.22,10.31,3.4,14.87h70.96C726.74,470.73,727.96,465.73,727.96,460.43z"/>
		<g>
			<path fill="#F7002A" d="M505.96,406.91l5.92-6.66c0.83-0.94,2.07-1.48,3.37-1.48h5.27c2.23,0,4.11,1.57,4.36,3.64l0.39,3.33
				c0.11,0.9-0.11,1.81-0.62,2.58v0c-0.78,1.2-2.17,1.94-3.68,1.96c-5.65,0.07-19.2,0.2-18.91-0.21c0.29-0.41,2.35-1.93,3.21-2.55
				C505.53,407.34,505.75,407.14,505.96,406.91z"/>
			<path fill="#FFFFFF" d="M525.27,405.74l-0.39-3.33c-0.25-2.07-2.12-3.64-4.36-3.64h-5.27c-1.3,0-2.54,0.54-3.37,1.48l-5.92,6.66
				C505.96,406.91,517.02,405.59,525.27,405.74z"/>
			<path fill="#141414" d="M510.04,410.99c-8.22,0-8.36-0.25-8.56-0.6c-0.12-0.2-0.1-0.47,0.03-0.67c0.09-0.13,0.38-0.54,3.36-2.7
				c0.21-0.15,0.41-0.33,0.58-0.52l0,0l5.92-6.66c0.96-1.08,2.38-1.7,3.88-1.7h5.27c2.58,0,4.74,1.8,5.02,4.19l0.39,3.33
				c0.12,1.03-0.13,2.09-0.71,2.97c-0.91,1.39-2.49,2.23-4.24,2.25C516.28,410.96,512.73,410.99,510.04,410.99z M503.51,409.65
				c2.21,0.1,7.57,0.14,17.45,0.01c1.28-0.02,2.45-0.64,3.12-1.66c0.43-0.65,0.61-1.43,0.52-2.19l-0.39-3.33
				c-0.21-1.76-1.8-3.09-3.69-3.09h-5.27c-1.11,0-2.15,0.46-2.86,1.25l-5.92,6.66c-0.23,0.26-0.5,0.5-0.79,0.71
				C504.74,408.7,504.02,409.24,503.51,409.65z"/>
		</g>
		<path d="M716.77,475.92H425c-3.22,0-6.41-0.45-9.49-1.33l-13.83-3.96c-5.23-1.5-8.92-5.75-9.4-10.84l-0.77-8.25
			c-0.12-1.4,0.17-2.8,0.82-4.06c0.69-1.32,0.93-2.79,0.7-4.25l-1.63-10.31c-0.37-2.35,0.92-4.62,3.22-5.64l4.19-1.87
			c23.16-10.31,47.82-17,73.3-19.9l10.53-1.2l12.03-6.04c68-34.13,148.37-38.96,220.5-13.24l41.56,14.82
			c1.98,0.71,3.2,2.58,2.96,4.55l-2.05,16.76l2.79,13.44c0.51,2.47,0.77,5,0.77,7.51v3.76c0,3.39-0.71,6.7-2.11,9.83l-1.49,3.33
			c-2.16,4.84-6.45,8.57-11.76,10.25l-13.45,4.24C727.35,475.12,722.09,475.92,716.77,475.92z M620.4,369.96
			c-43.17,0-86.17,9.89-125.1,29.43l-12.14,6.09c-0.07,0.04-0.15,0.06-0.23,0.07l-10.66,1.21c-25.33,2.88-49.85,9.53-72.88,19.79
			l-4.19,1.87c-1.77,0.79-2.76,2.53-2.48,4.34l1.63,10.31c0.27,1.7-0.01,3.42-0.82,4.97c-0.55,1.06-0.79,2.24-0.69,3.41l0.77,8.25
			c0.43,4.58,3.75,8.41,8.46,9.76l13.83,3.96c2.95,0.84,6.01,1.27,9.1,1.27h291.77c5.17,0,10.29-0.78,15.19-2.33l13.45-4.24
			c4.95-1.56,8.95-5.04,10.96-9.55l1.49-3.33c1.33-2.98,2-6.12,2-9.35v-3.76c0-2.44-0.25-4.88-0.75-7.28l-2.81-13.53
			c-0.01-0.06-0.02-0.13-0.01-0.19l2.06-16.85c0.17-1.41-0.7-2.74-2.11-3.24l-41.56-14.82C684.21,375.35,652.26,369.96,620.4,369.96
			z"/>
		<g>
			<g>
				<ellipse cx="689.07" cy="460.43" rx="34.69" ry="32.38"/>
				<ellipse fill="#E0E0E0" cx="689.07" cy="460.43" rx="23.33" ry="21.78"/>
				<ellipse fill="#444444" cx="689.07" cy="460.43" rx="18.72" ry="17.47"/>
			</g>
			<g>
				<ellipse cx="455.17" cy="460.43" rx="34.69" ry="32.38"/>
				<ellipse fill="#E0E0E0" cx="455.17" cy="460.43" rx="23.33" ry="21.78"/>
				<ellipse fill="#444444" cx="455.17" cy="460.43" rx="18.72" ry="17.47"/>
			</g>
		</g>
	</g>
</g>
</svg>
