<?xml version="1.0" encoding="utf-8"?>
<!-- Generator: Adobe Illustrator 27.6.1, SVG Export Plug-In . SVG Version: 6.00 Build 0)  -->
<svg version="1.1" id="Illustration" xmlns="http://www.w3.org/2000/svg" xmlns:xlink="http://www.w3.org/1999/xlink" x="0px"
	 y="0px" viewBox="0 0 1191.36 759.7" enable-background="new 0 0 1191.36 759.7" xml:space="preserve">
<g>
	<defs>
		<rect id="SVGID_1_" width="1191.36" height="759.7"/>
	</defs>
	<clipPath id="SVGID_00000064335866288814634670000002705018458749941173_">
		<use xlink:href="#SVGID_1_"  overflow="visible"/>
	</clipPath>
	<g id="Return_the_bike_1_" clip-path="url(#SVGID_00000064335866288814634670000002705018458749941173_)">
		<g>
			
				<linearGradient id="SVGID_00000144332186345897619230000010702695141781390220_" gradientUnits="userSpaceOnUse" x1="80.9068" y1="364.5433" x2="818.5573" y2="364.5433">
				<stop  offset="0" style="stop-color:#666666"/>
				<stop  offset="1" style="stop-color:#4D4D4D"/>
			</linearGradient>
			<path fill="url(#SVGID_00000144332186345897619230000010702695141781390220_)" d="M270.85,578.92H81.91c-0.55,0-1-0.45-1-1
				V151.17c0-0.55,0.45-1,1-1h735.65c0.55,0,1,0.45,1,1v89.09c0,0.55-0.45,1-1,1c-0.55,0-1-0.45-1-1v-88.09H82.91v424.75h187.94
				c0.55,0,1,0.45,1,1C271.85,578.47,271.4,578.92,270.85,578.92z"/>
			<g>
				
					<rect x="256.36" y="16.72" transform="matrix(-1.836970e-16 1 -1 -1.836970e-16 814.2751 -85.189)" fill="#FFFFFF" width="386.75" height="695.65"/>
				<path fill="#F2F2F2" d="M797.56,558.92H101.91c-0.55,0-1-0.45-1-1V171.17c0-0.55,0.45-1,1-1h695.65c0.55,0,1,0.45,1,1v386.75
					C798.56,558.47,798.11,558.92,797.56,558.92z M102.91,556.92h693.65V172.17H102.91V556.92z"/>
			</g>
			<path fill="#F2F2F2" d="M489.38,522.98H248.3c-5.52,0-10-4.48-10-10V297.74l-59.61-59.62h-76.78v-20h80.92
				c2.65,0,5.2,1.05,7.07,2.93l65.47,65.47c1.88,1.88,2.93,4.42,2.93,7.07v209.39h226.93l208.17-208.17V173.2h20v125.75
				c0,2.65-1.05,5.2-2.93,7.07L496.45,520.05C494.57,521.93,492.03,522.98,489.38,522.98z"/>
			<path fill="#F2F2F2" d="M135.63,558.92c-0.55,0-1-0.45-1-1v-74.02c0-0.24,0.09-0.47,0.25-0.66l211.11-243.35V173.2
				c0-0.55,0.45-1,1-1c0.55,0,1,0.45,1,1v67.06c0,0.24-0.09,0.47-0.24,0.66L136.63,484.27v73.65
				C136.63,558.47,136.18,558.92,135.63,558.92z"/>
			<path fill="#F2F2F2" d="M797.07,483.62c-0.22,0-0.45-0.08-0.64-0.23L581.12,305.64c-0.23-0.19-0.36-0.47-0.36-0.77v-74.71
				c0-0.55,0.45-1,1-1h215.8c0.55,0,1,0.45,1,1c0,0.55-0.45,1-1,1h-214.8v73.24l214.95,177.45c0.43,0.35,0.49,0.98,0.13,1.41
				C797.65,483.49,797.36,483.62,797.07,483.62z"/>
			<path fill="#F2F2F2" d="M738.23,557.33c-0.55,0-1-0.45-1-1V447.61H508.27c-0.55,0-1-0.45-1-1c0-0.55,0.45-1,1-1h229.96
				c0.55,0,1,0.45,1,1v109.72C739.23,556.88,738.78,557.33,738.23,557.33z"/>
		</g>
		<g display="none">
			<g display="inline">
				<rect x="897.66" y="151.17" fill="#FFFFFF" width="247.54" height="247.54"/>
				<path fill="#DDDDDD" d="M1145.2,399.7H897.66c-0.55,0-1-0.45-1-1V151.17c0-0.55,0.45-1,1-1h247.54c0.55,0,1,0.45,1,1V398.7
					C1146.2,399.26,1145.75,399.7,1145.2,399.7z M898.66,397.7h245.54V152.17H898.66V397.7z"/>
			</g>
			<g display="inline">
				<polygon fill="#F2F2F2" points="1103.61,208.32 1091.03,208.32 1091.03,173.2 1015.88,173.2 1015.88,208.32 998.09,208.32 
					998.09,173.2 919.7,173.2 919.7,251.6 983.98,251.6 983.98,262.3 1037.97,262.3 1037.97,215.68 1078.46,215.68 1078.46,247.43 
					1055.76,247.43 1055.76,274.94 1078.46,274.94 1078.46,286.54 1097.67,286.54 1097.67,305.58 1052.08,305.58 1052.08,325.49 
					1021.43,325.49 1021.43,290.52 1031.83,290.52 1031.83,269.67 1010.98,269.67 1010.98,280.09 979.07,280.09 979.07,316.29 
					919.7,316.29 919.7,376.67 963.51,376.67 963.51,349.42 979.07,349.42 979.07,376.67 1021.43,376.67 1021.43,366.6 
					1052.08,366.6 1052.08,376.67 1123.16,376.67 1123.16,280.09 1103.61,280.09 				"/>
				<rect x="932.45" y="266.15" fill="#DBDBDB" width="32.81" height="32.81"/>
				<rect x="1101.16" y="173.2" fill="#DBDBDB" width="22.01" height="22.01"/>
			</g>
		</g>
		<g display="none">
			<g display="inline">
				<polygon fill="#FFFFFF" points="1134.57,981.17 1325.91,981.17 1325.91,753.52 1215.32,753.52 				"/>
				<path fill="#5479F7" d="M1325.91,982.17h-191.34c-0.33,0-0.63-0.16-0.82-0.42c-0.19-0.27-0.23-0.61-0.13-0.91l80.75-227.65
					c0.14-0.4,0.52-0.67,0.94-0.67h110.59c0.55,0,1,0.45,1,1v227.65C1326.91,981.72,1326.46,982.17,1325.91,982.17z M1135.98,980.17
					h188.92V754.52h-108.88L1135.98,980.17z"/>
			</g>
			<g display="inline">
				<g>
					<path d="M1188.51,863.31c-0.32,0-0.64-0.15-0.83-0.44l-74.31-109.81c-0.24-0.35-0.23-0.82,0.03-1.16l24.32-32.67
						c0.19-0.25,0.49-0.4,0.8-0.4h15.48c0.55,0,1,0.45,1,1c0,0.55-0.45,1-1,1h-14.98l-23.6,31.69l73.91,109.22
						c0.31,0.46,0.19,1.08-0.27,1.39C1188.9,863.25,1188.7,863.31,1188.51,863.31z"/>
					<path d="M1047.57,863.31c-0.35,0-0.68-0.18-0.87-0.5l-47.89-82.9c-0.09-0.15-0.13-0.32-0.13-0.5v-28.41c0-0.55,0.45-1,1-1
						c0.55,0,1,0.45,1,1v28.15l47.76,82.67c0.28,0.48,0.11,1.09-0.37,1.37C1047.91,863.26,1047.74,863.31,1047.57,863.31z"/>
				</g>
				<g>
					<path fill="#FFFFFF" d="M1034.09,753.79h-47.94c-3.32,0-6.02-2.69-6.02-6.02l0,0c0-3.32,2.69-6.02,6.02-6.02h47.94
						c3.32,0,6.02,2.69,6.02,6.02l0,0C1040.11,751.1,1037.41,753.79,1034.09,753.79z"/>
					<path d="M1034.09,754.79h-47.94c-3.87,0-7.02-3.15-7.02-7.02c0-3.87,3.15-7.02,7.02-7.02h47.94c3.87,0,7.02,3.15,7.02,7.02
						C1041.11,751.65,1037.96,754.79,1034.09,754.79z M986.15,742.76c-2.77,0-5.02,2.25-5.02,5.02s2.25,5.02,5.02,5.02h47.94
						c2.77,0,5.02-2.25,5.02-5.02s-2.25-5.02-5.02-5.02H986.15z"/>
				</g>
			</g>
		</g>
		<g display="none">
			
				<ellipse transform="matrix(0.7071 -0.7071 0.7071 0.7071 21.0271 728.0253)" display="inline" fill="#FFFFFF" cx="889.32" cy="338.63" rx="65.52" ry="65.52"/>
			<g display="inline">
				<path fill="#5479F7" d="M787.27,336.56c0,91.38,95.8,189.43,95.8,189.43s95.8-97.16,95.8-189.43c0-52.91-42.89-95.8-95.8-95.8
					C830.16,240.76,787.27,283.65,787.27,336.56z M838.43,338.73c0-24.65,19.99-44.64,44.64-44.64c24.65,0,44.64,19.99,44.64,44.64
					c0,24.65-19.99,44.64-44.64,44.64C858.42,383.37,838.43,363.39,838.43,338.73z"/>
			</g>
		</g>
		<g>
			<polygon fill="#FFFFFF" points="800.51,381.26 1119.7,381.26 1119.7,183.7 1045.39,183.97 1045.07,201.56 1014.4,201.56 
				1014.8,151.03 958.86,151.27 958.43,200.76 801.92,203.34 			"/>
			<g display="none">
				<g display="inline">
					<rect x="842.89" y="175.45" fill="#FFFFFF" width="122.1" height="205.83"/>
					<path d="M964.99,382.28h-122.1c-0.55,0-1-0.45-1-1V175.45c0-0.55,0.45-1,1-1h122.1c0.55,0,1,0.45,1,1v205.83
						C965.99,381.83,965.54,382.28,964.99,382.28z M843.89,380.28h120.1V176.45h-120.1V380.28z"/>
				</g>
				<g display="inline">
					<rect x="849.77" y="192.6" fill="#F2F2F2" width="13.96" height="14.08"/>
					<rect x="897.37" y="192.6" fill="#F2F2F2" width="13.96" height="14.08"/>
					<rect x="921.17" y="192.6" fill="#F2F2F2" width="13.96" height="14.08"/>
					<rect x="944.97" y="192.6" fill="#F2F2F2" width="13.96" height="14.08"/>
					<rect x="849.77" y="210.61" fill="#F2F2F2" width="13.96" height="14.08"/>
					<rect x="873.57" y="210.61" fill="#F2F2F2" width="13.96" height="14.08"/>
					<rect x="897.37" y="210.61" fill="#F2F2F2" width="13.96" height="14.08"/>
					<rect x="921.17" y="210.61" fill="#F2F2F2" width="13.96" height="14.08"/>
					<rect x="849.77" y="228.61" fill="#F2F2F2" width="13.96" height="14.08"/>
					<rect x="873.57" y="228.61" fill="#F2F2F2" width="13.96" height="14.08"/>
					<rect x="921.17" y="228.61" fill="#F2F2F2" width="13.96" height="14.08"/>
					<rect x="944.97" y="228.61" fill="#F2F2F2" width="13.96" height="14.08"/>
					<rect x="849.77" y="246.62" fill="#F2F2F2" width="13.96" height="14.08"/>
					<rect x="897.37" y="246.62" fill="#F2F2F2" width="13.96" height="14.08"/>
					<rect x="921.17" y="246.62" fill="#F2F2F2" width="13.96" height="14.08"/>
					<rect x="944.97" y="246.62" fill="#F2F2F2" width="13.96" height="14.08"/>
					<rect x="849.77" y="264.63" fill="#F2F2F2" width="13.96" height="14.08"/>
					<rect x="873.57" y="264.63" fill="#F2F2F2" width="13.96" height="14.08"/>
					<rect x="897.37" y="264.63" fill="#F2F2F2" width="13.96" height="14.08"/>
					<rect x="921.17" y="264.63" fill="#F2F2F2" width="13.96" height="14.08"/>
					<rect x="944.97" y="264.63" fill="#F2F2F2" width="13.96" height="14.08"/>
					<rect x="849.77" y="282.63" fill="#F2F2F2" width="13.96" height="14.08"/>
					<rect x="873.57" y="282.63" fill="#F2F2F2" width="13.96" height="14.08"/>
					<rect x="897.37" y="282.63" fill="#F2F2F2" width="13.96" height="14.08"/>
					<rect x="921.17" y="282.63" fill="#F2F2F2" width="13.96" height="14.08"/>
					<rect x="944.97" y="282.63" fill="#F2F2F2" width="13.96" height="14.08"/>
					<rect x="849.77" y="300.3" fill="#F2F2F2" width="13.96" height="14.08"/>
					<rect x="873.57" y="300.3" fill="#F2F2F2" width="13.96" height="14.08"/>
					<rect x="897.37" y="300.3" fill="#F2F2F2" width="13.96" height="14.08"/>
					<rect x="921.17" y="300.3" fill="#F2F2F2" width="13.96" height="14.08"/>
					<rect x="944.97" y="300.3" fill="#F2F2F2" width="13.96" height="14.08"/>
					<rect x="849.77" y="317.96" fill="#F2F2F2" width="13.96" height="14.08"/>
					<rect x="873.57" y="317.96" fill="#F2F2F2" width="13.96" height="14.08"/>
					<rect x="897.37" y="317.96" fill="#F2F2F2" width="13.96" height="14.08"/>
					<rect x="921.17" y="317.96" fill="#F2F2F2" width="13.96" height="14.08"/>
					<rect x="944.97" y="317.96" fill="#F2F2F2" width="13.96" height="14.08"/>
					<rect x="849.77" y="335.63" fill="#F2F2F2" width="13.96" height="14.08"/>
					<rect x="873.57" y="335.63" fill="#F2F2F2" width="13.96" height="14.08"/>
					<rect x="897.37" y="335.63" fill="#F2F2F2" width="13.96" height="14.08"/>
					<rect x="921.17" y="335.63" fill="#F2F2F2" width="13.96" height="14.08"/>
					<rect x="944.97" y="335.63" fill="#F2F2F2" width="13.96" height="14.08"/>
					<rect x="849.77" y="353.29" fill="#F2F2F2" width="13.96" height="14.08"/>
					<rect x="873.57" y="353.29" fill="#F2F2F2" width="13.96" height="14.08"/>
					<rect x="897.37" y="353.29" fill="#F2F2F2" width="13.96" height="14.08"/>
					<rect x="921.17" y="353.29" fill="#F2F2F2" width="13.96" height="14.08"/>
					<rect x="944.97" y="353.29" fill="#F2F2F2" width="13.96" height="14.08"/>
				</g>
			</g>
			<path display="none" d="M801.39,296.91c-0.55,0-1-0.45-1-1v-93.57c0-0.55,0.45-1,1-1h37.05c0.55,0,1,0.45,1,1c0,0.55-0.45,1-1,1
				h-36.05v92.57C802.39,296.46,801.94,296.91,801.39,296.91z"/>
			<path display="none" d="M1045.17,381.99c-0.55,0-1-0.45-1-1v-197.2c0-0.55,0.45-1,1-1h70.96c0.55,0,1,0.45,1,1c0,0.55-0.45,1-1,1
				h-69.96v196.2C1046.17,381.54,1045.72,381.99,1045.17,381.99z"/>
			<g display="none">
				<path display="inline" d="M1040.67,202.21h-25.85c-0.55,0-1-0.45-1-1v-49.04h-54.2v18.68c0,0.55-0.45,1-1,1c-0.55,0-1-0.45-1-1
					v-19.68c0-0.55,0.45-1,1-1h56.2c0.55,0,1,0.45,1,1v49.04h24.85c0.55,0,1,0.45,1,1C1041.67,201.76,1041.22,202.21,1040.67,202.21
					z"/>
			</g>
			<rect x="1054.82" y="192.81" display="none" fill="#F2F2F2" width="10.04" height="34.72"/>
			<rect x="1074.89" y="192.81" display="none" fill="#F2F2F2" width="10.04" height="34.72"/>
			<rect x="1054.82" y="243.01" display="none" fill="#F2F2F2" width="10.04" height="34.72"/>
			<rect x="1074.89" y="293.21" display="none" fill="#F2F2F2" width="10.04" height="34.72"/>
			<g>
				<path display="none" d="M1124.39,382.28h-323c-0.55,0-1-0.45-1-1c0-0.55,0.45-1,1-1h323c0.55,0,1,0.45,1,1
					C1125.39,381.83,1124.94,382.28,1124.39,382.28z"/>
			</g>
		</g>
		<g display="none">
			<g display="inline">
				<g>
					<path fill="#FFFFFF" d="M395.88,480.19h109.62l151.65,457.26l20.68,27.8c4.89,6.57,0.2,15.91-8,15.91H557.35
						c-13.66,0-25.37-9.77-27.81-23.21L473.9,651.84l-22.57,309c-0.84,11.46-10.38,20.33-21.87,20.33h-84.58
						c-13.43,0-23.71-11.96-21.68-25.24L395.88,480.19z"/>
					<path d="M669.83,982.17H557.35c-14.15,0-26.26-10.11-28.8-24.03l-54.23-298.37l-21.99,301.15
						c-0.87,11.92-10.92,21.26-22.87,21.26h-84.58c-6.69,0-13.03-2.91-17.39-7.99c-4.36-5.08-6.28-11.79-5.27-18.4l72.68-475.74
						c0.07-0.49,0.49-0.85,0.99-0.85h109.62c0.43,0,0.81,0.28,0.95,0.69l151.6,457.11l20.58,27.68c2.49,3.35,2.87,7.74,1,11.47
						C677.75,979.85,674,982.17,669.83,982.17z M473.9,650.84c0.48,0,0.9,0.34,0.98,0.82l55.64,306.12
						c2.36,12.97,13.64,22.39,26.83,22.39h112.47c3.46,0,6.46-1.85,8.01-4.94c1.55-3.09,1.25-6.6-0.82-9.38l-20.68-27.8
						c-0.06-0.09-0.11-0.18-0.15-0.28L504.77,481.19H396.73l-72.55,474.89c-0.92,6.04,0.83,12.16,4.81,16.8
						c3.98,4.63,9.77,7.29,15.88,7.29h84.58c10.91,0,20.08-8.52,20.87-19.41l22.57-309c0.04-0.5,0.44-0.9,0.94-0.93
						C473.86,650.84,473.88,650.84,473.9,650.84z"/>
				</g>
				<path d="M473.9,652.84c-0.02,0-0.04,0-0.06,0c-0.55-0.03-0.97-0.51-0.94-1.06l4.47-73.42c0.02-0.32,0.19-0.6,0.45-0.78
					l10.89-7.09c0.46-0.3,1.08-0.17,1.38,0.29c0.3,0.46,0.17,1.08-0.29,1.38l-10.47,6.81l-4.44,72.91
					C474.86,652.43,474.42,652.84,473.9,652.84z"/>
				<path d="M485.05,279.55c0,0-50.85-17.16-114.49-4.89c-63.64,12.28-56.03,69.88-14.51,64.07c0,0-29.59,40.91,31.98,39.54
					C449.59,376.9,485.05,279.55,485.05,279.55z"/>
				<g>
					<path fill="#5479F7" d="M413.05,546.27l27.78-21.53l-23.8-39.56h96.62l2.31-8.64c0,0,39.23,73.11,109.97,19.8l25.28-9.2
						l-50-25.7c0,0-22.67-46.39-46.04-77.92c-13.21-17.83-32.92-29.76-54.85-33.2c-19.28-3.02-45.47-5.63-73.53-4.12
						c-18.03,0.97-35.28,7.65-49.25,19.08c-26.26,21.49-66.19,62.32-64.73,111.07C314.98,548.78,413.05,546.27,413.05,546.27z"/>
					<path d="M417.02,486.18c-0.31,0-0.62-0.14-0.81-0.41l-21.15-29.27c-0.23-0.32-0.25-0.75-0.05-1.1l29.39-49.46
						c0.28-0.48,0.9-0.63,1.37-0.35c0.47,0.28,0.63,0.9,0.35,1.37l-29.05,48.89l20.76,28.74c0.32,0.45,0.22,1.07-0.22,1.4
						C417.43,486.12,417.23,486.18,417.02,486.18z"/>
					<path d="M515.95,477.54c-0.08,0-0.15-0.01-0.23-0.03c-0.54-0.13-0.87-0.67-0.74-1.2l12.66-53.39c0.13-0.54,0.67-0.87,1.2-0.74
						c0.54,0.13,0.87,0.67,0.74,1.2l-12.66,53.39C516.81,477.23,516.4,477.54,515.95,477.54z"/>
				</g>
				<g>
					<path d="M457.71,312.76c0,0-11.82-33.69,31.67-39.24s56.67,14.78,18.85,35.33C470.42,329.39,466.56,340.1,457.71,312.76z"/>
					<g>
						<path fill="#FFFFFF" d="M467.84,315.62l-23.68,33.77c0,0,20.69,18.69,33.89,16.71c13.2-1.98,0.13-14.06,0.13-14.06l11.3-21.92
							L467.84,315.62z"/>
						<path d="M478.18,353.03c-0.15,0-0.31-0.04-0.46-0.11c-0.49-0.25-0.68-0.86-0.43-1.35l10.89-21.13l-20.89-14
							c-0.46-0.31-0.58-0.93-0.27-1.39c0.31-0.46,0.93-0.58,1.39-0.27l21.64,14.49c0.42,0.28,0.57,0.84,0.33,1.29l-11.3,21.92
							C478.89,352.83,478.54,353.03,478.18,353.03z"/>
						<g>
							<path fill="#FFFFFF" d="M511.99,297.75c0,0,1.27,39.54-18.69,41.4c-16.52,1.54-21.73-14.99-21.73-14.99
								s-13.87-5.93-9.26-17.32c2.93-7.25,11.61,4.41,11.61,4.41s8.73,4.78,9.29-6.11C483.78,294.26,511.99,297.75,511.99,297.75z"
								/>
							<path d="M491.17,340.25c-13.95,0-19.46-12.83-20.4-15.36c-2.35-1.15-13.83-7.43-9.39-18.43c0.9-2.22,2.29-2.84,3.3-2.97
								c3.96-0.49,8.85,5.61,9.89,6.97c0.7,0.34,3.33,1.45,5.23,0.38c1.44-0.81,2.25-2.74,2.4-5.75c0.1-1.94,0.96-3.6,2.54-4.93
								c6.98-5.85,26.53-3.51,27.36-3.41c0.49,0.06,0.86,0.47,0.88,0.96c0.05,1.65,1.06,40.51-19.6,42.43
								C492.63,340.22,491.89,340.25,491.17,340.25z M465.18,305.46c-0.08,0-0.16,0-0.24,0.02c-0.26,0.03-1.05,0.13-1.7,1.74
								c-4.19,10.36,8.2,15.8,8.73,16.03c0.27,0.12,0.47,0.34,0.56,0.62c0.21,0.64,5.19,15.74,20.68,14.29
								c17.21-1.6,17.83-33.77,17.8-39.51c-3.84-0.38-19.42-1.6-24.96,3.05c-1.16,0.97-1.76,2.12-1.83,3.5
								c-0.2,3.75-1.35,6.24-3.43,7.4c-3.18,1.77-7.17-0.38-7.34-0.47c-0.13-0.07-0.24-0.17-0.32-0.28
								C471.23,309.32,467.49,305.46,465.18,305.46z"/>
						</g>
						<path d="M471.55,320.53c-0.41,0-0.79-0.25-0.94-0.65c-0.91-2.43-2.54-4.64-4.59-6.22c-0.44-0.34-0.52-0.96-0.18-1.4
							c0.34-0.44,0.96-0.52,1.4-0.18c2.38,1.83,4.19,4.29,5.24,7.11c0.19,0.52-0.07,1.09-0.59,1.29
							C471.79,320.51,471.67,320.53,471.55,320.53z"/>
					</g>
				</g>
			</g>
			<g display="inline">
				<g>
					<polygon fill="#FFFFFF" points="637.68,981.17 980.59,981.17 980.59,573.19 782.4,573.19 					"/>
					<path fill="#5479F7" d="M980.59,982.17H637.68c-0.33,0-0.63-0.16-0.82-0.42c-0.19-0.27-0.23-0.61-0.13-0.91l144.71-407.98
						c0.14-0.4,0.52-0.67,0.94-0.67h198.19c0.55,0,1,0.45,1,1v407.98C981.59,981.72,981.14,982.17,980.59,982.17z M639.1,980.17
						h340.49V574.19H783.1L639.1,980.17z"/>
				</g>
				<g>
					<g>
						<g>
							
								<ellipse transform="matrix(0.7071 -0.7071 0.7071 0.7071 -341.7648 782.7817)" fill="#FFFFFF" cx="774.02" cy="803.94" rx="177.23" ry="177.23"/>
							<path d="M774.02,982.17c-98.28,0-178.23-79.95-178.23-178.23c0-98.28,79.95-178.23,178.23-178.23s178.23,79.95,178.23,178.23
								C952.25,902.21,872.3,982.17,774.02,982.17z M774.02,627.71c-97.17,0-176.23,79.06-176.23,176.23
								c0,97.17,79.06,176.23,176.23,176.23c97.17,0,176.23-79.06,176.23-176.23C950.25,706.76,871.19,627.71,774.02,627.71z"/>
						</g>
					</g>
					<g>
						
							<ellipse transform="matrix(0.7071 -0.7071 0.7071 0.7071 -492.8631 417.9981)" fill="#FFFFFF" cx="258.14" cy="803.94" rx="177.23" ry="177.23"/>
						<path d="M258.14,982.17c-98.28,0-178.23-79.95-178.23-178.23c0-98.28,79.95-178.23,178.23-178.23s178.23,79.95,178.23,178.23
							C436.37,902.21,356.41,982.17,258.14,982.17z M258.14,627.71c-97.17,0-176.23,79.06-176.23,176.23
							c0,97.17,79.06,176.23,176.23,176.23c97.17,0,176.23-79.06,176.23-176.23C434.37,706.76,355.31,627.71,258.14,627.71z"/>
					</g>
					<g>
						<path d="M491.07,806.44H256.55c-0.38,0-0.73-0.22-0.9-0.56s-0.13-0.75,0.11-1.05l143.34-185.87c0.19-0.25,0.48-0.39,0.79-0.39
							h237.8c0.38,0,0.73,0.22,0.9,0.56c0.17,0.34,0.12,0.75-0.11,1.06L491.86,806.06C491.67,806.3,491.38,806.44,491.07,806.44z
							 M258.58,804.44h232.01l145.04-183.87H400.38L258.58,804.44z"/>
						<path d="M738.23,769.15c-0.32,0-0.64-0.15-0.83-0.44L604.23,571.92c-0.17-0.26-0.22-0.58-0.12-0.88l24.37-73.59
							c0.15-0.44,0.58-0.73,1.04-0.68l44.39,3.88c0.55,0.05,0.96,0.53,0.91,1.08c-0.05,0.55-0.54,0.97-1.08,0.91l-43.61-3.81
							l-23.97,72.37l132.9,196.38c0.31,0.46,0.19,1.08-0.27,1.39C738.62,769.09,738.43,769.15,738.23,769.15z"/>
						<path d="M485.64,769.15c-0.35,0-0.68-0.18-0.87-0.5l-85.83-148.58c-0.09-0.15-0.13-0.32-0.13-0.5v-50.92c0-0.55,0.45-1,1-1
							c0.55,0,1,0.45,1,1v50.66l85.69,148.34c0.28,0.48,0.11,1.09-0.37,1.37C485.98,769.11,485.81,769.15,485.64,769.15z"/>
					</g>
					<g>
						<path fill="#FFFFFF" d="M461.49,573.68h-85.91c-5.96,0-10.78-4.83-10.78-10.78l0,0c0-5.96,4.83-10.78,10.78-10.78h85.91
							c5.96,0,10.78,4.83,10.78,10.78l0,0C472.27,568.85,467.44,573.68,461.49,573.68z"/>
						<path d="M461.49,574.68h-85.91c-6.5,0-11.78-5.29-11.78-11.78c0-6.5,5.29-11.78,11.78-11.78h85.91
							c6.5,0,11.78,5.29,11.78,11.78C473.27,569.4,467.99,574.68,461.49,574.68z M375.58,553.12c-5.39,0-9.78,4.39-9.78,9.78
							c0,5.39,4.39,9.78,9.78,9.78h85.91c5.39,0,9.78-4.39,9.78-9.78c0-5.39-4.39-9.78-9.78-9.78H375.58z"/>
					</g>
				</g>
				<g>
					<path fill="#5479F7" d="M980.59,833.87H772.8c-19.61,0-35.57-15.96-35.57-35.57v-3.62c0-19.62,15.96-35.57,35.57-35.57h207.79
						c0.55,0,1,0.45,1,1v72.76C981.59,833.42,981.14,833.87,980.59,833.87z M772.8,761.1c-18.51,0-33.57,15.06-33.57,33.57v3.62
						c0,18.51,15.06,33.57,33.57,33.57h206.79V761.1H772.8z"/>
				</g>
			</g>
			<g display="inline">
				<path fill="#FFFFFF" d="M623.25,486.39h39.77c6.56,0,12.71,3.62,15.52,9.55c0.77,1.62,1.27,3.25,1.27,4.73
					c0,3.61-10.5,10.4-18.7,15.15c-5.12,2.97-11.66,1.52-15-3.36c-4.84-7.08-11.88-15.77-16.69-14.69
					c-7.98,1.8-4.98,6.14-10.61,7.79C613.19,507.21,608.85,488.18,623.25,486.39z"/>
				<path d="M655.45,518.34c-3.95,0-7.81-1.88-10.16-5.32c-6.7-9.8-12.41-15.02-15.64-14.27c-3.97,0.9-4.87,2.38-5.83,3.95
					c-0.85,1.39-1.81,2.98-4.72,3.83c-1.74,0.5-3.47-0.35-4.75-2.34c-0.3-0.46-0.16-1.08,0.3-1.38c0.47-0.3,1.08-0.17,1.38,0.3
					c0.45,0.7,1.38,1.84,2.51,1.51c2.16-0.63,2.79-1.66,3.58-2.95c1.08-1.77,2.3-3.77,7.1-4.86c4.27-0.95,10.23,4.12,17.73,15.1
					c3.01,4.41,9.02,5.76,13.67,3.06c16.88-9.79,18.2-13.41,18.2-14.29c0-1.2-0.39-2.65-1.18-4.3c-2.58-5.45-8.32-8.98-14.61-8.98
					H651.2c-0.55,0-1-0.45-1-1c0-0.55,0.45-1,1-1h11.82c7.06,0,13.51,3.97,16.42,10.12c0.91,1.92,1.37,3.66,1.37,5.16
					c0,1.21,0,4.89-19.2,16.02C659.68,517.8,657.56,518.34,655.45,518.34z"/>
				<path d="M660.39,516.52c-0.44,0-0.84-0.29-0.96-0.73c-2.36-8.57-8.44-16.21-16.28-20.42c-0.49-0.26-0.67-0.87-0.41-1.35
					c0.26-0.49,0.87-0.67,1.35-0.41c8.3,4.47,14.75,12.56,17.26,21.65c0.15,0.53-0.17,1.08-0.7,1.23
					C660.57,516.5,660.48,516.52,660.39,516.52z"/>
				<path d="M667.82,511.87c-0.44,0-0.85-0.3-0.96-0.74c-1.93-7.24-6.64-13.75-12.9-17.86c-0.46-0.3-0.59-0.92-0.29-1.38
					c0.3-0.46,0.92-0.59,1.38-0.29c6.67,4.37,11.68,11.3,13.74,19.02c0.14,0.53-0.17,1.08-0.71,1.22
					C667.99,511.86,667.9,511.87,667.82,511.87z"/>
				<path d="M673.82,508.22c-0.45,0-0.86-0.31-0.97-0.77c-1.36-5.72-4.47-11.1-8.74-15.14c-0.4-0.38-0.42-1.01-0.04-1.41
					c0.38-0.4,1.01-0.42,1.41-0.04c4.55,4.31,7.85,10.04,9.31,16.13c0.13,0.54-0.2,1.08-0.74,1.2
					C673.98,508.21,673.9,508.22,673.82,508.22z"/>
			</g>
			<g display="inline">
				<path fill="#FFFFFF" d="M415.97,535.89c5.17-4.35,12.99-8.57,24.85-11.15l34.37,24.35c5.94,4.21,8.7,11.63,6.95,18.7l0,0h-42.95
					c-2.61,0-5.19-0.65-7.49-1.88l-13.18-7.07C409.87,554.19,408.46,542.22,415.97,535.89z"/>
				<path d="M482.14,568.79h-42.95c-2.77,0-5.52-0.69-7.96-2l-13.18-7.07c-4.97-2.67-8.01-7.83-7.95-13.48
					c0.01-0.55,0.45-0.99,1-0.99c0,0,0.01,0,0.01,0c0.55,0.01,1,0.46,0.99,1.01c-0.05,4.9,2.59,9.39,6.9,11.7l13.18,7.07
					c2.15,1.15,4.58,1.76,7.02,1.76h42.15c1.3-6.48-1.29-13.03-6.72-16.88l-34.37-24.35c-0.45-0.32-0.56-0.94-0.24-1.39
					c0.32-0.45,0.94-0.56,1.39-0.24l34.37,24.35c6.32,4.48,9.2,12.24,7.34,19.76C483,568.48,482.6,568.79,482.14,568.79z"/>
				<path d="M476.65,567.74c-0.37,0-0.73-0.21-0.9-0.57c-5.63-11.7-15.88-20.88-28.13-25.19c-0.52-0.18-0.8-0.75-0.61-1.28
					c0.18-0.52,0.75-0.8,1.28-0.61c12.75,4.48,23.41,14.03,29.27,26.21c0.24,0.5,0.03,1.1-0.47,1.33
					C476.94,567.71,476.79,567.74,476.65,567.74z"/>
				<path d="M464.81,568.21c-0.32,0-0.64-0.15-0.83-0.44c-6.12-9.04-15.05-16.33-25.13-20.52c-0.51-0.21-0.75-0.8-0.54-1.31
					c0.21-0.51,0.8-0.75,1.31-0.54c10.44,4.34,19.68,11.89,26.02,21.25c0.31,0.46,0.19,1.08-0.27,1.39
					C465.19,568.15,465,568.21,464.81,568.21z"/>
				<path d="M452.07,567.55c-0.26,0-0.52-0.1-0.71-0.3c-5.55-5.62-12.32-10.25-19.58-13.38c-0.51-0.22-0.74-0.81-0.52-1.31
					c0.22-0.51,0.81-0.74,1.31-0.52c7.49,3.23,14.48,8,20.21,13.81c0.39,0.39,0.38,1.03-0.01,1.41
					C452.58,567.46,452.33,567.55,452.07,567.55z"/>
			</g>
			<circle display="inline" fill="#5479F7" cx="631.92" cy="501.39" r="8.67"/>
		</g>
		<g>
			<defs>
				<rect id="SVGID_00000133495522640093523210000000530290177910093964_" x="636.85" y="345.57" width="222.2" height="336.72"/>
			</defs>
			<clipPath id="SVGID_00000022558957349681012990000000912744093698118313_">
				<use xlink:href="#SVGID_00000133495522640093523210000000530290177910093964_"  overflow="visible"/>
			</clipPath>
			<g clip-path="url(#SVGID_00000022558957349681012990000000912744093698118313_)">
				<g>
					<g>
						<g id="XMLID_1_">
							
								<linearGradient id="SVGID_00000090260734952876065830000010482724209502627494_" gradientUnits="userSpaceOnUse" x1="656.3367" y1="496.6797" x2="842.7648" y2="496.6797">
								<stop  offset="0" style="stop-color:#B685FF"/>
								<stop  offset="0.0559" style="stop-color:#AD8DFD"/>
								<stop  offset="0.1473" style="stop-color:#94A3F9"/>
								<stop  offset="0.2096" style="stop-color:#80B5F5"/>
								<stop  offset="0.3275" style="stop-color:#6DC6F1"/>
								<stop  offset="0.3279" style="stop-color:#6DC6F1"/>
								<stop  offset="0.4289" style="stop-color:#52DEEC"/>
								<stop  offset="0.559" style="stop-color:#4DDCEB"/>
								<stop  offset="0.6968" style="stop-color:#00BBDC"/>
								<stop  offset="0.9087" style="stop-color:#006577"/>
								<stop  offset="0.9617" style="stop-color:#006374"/>
								<stop  offset="0.9958" style="stop-color:#005B6C"/>
								<stop  offset="1" style="stop-color:#005A6A"/>
							</linearGradient>
							<path fill="url(#SVGID_00000090260734952876065830000010482724209502627494_)" d="M830.1,408.1
								c16.79,27.62,16.94,60.75,0.14,88.37l-33.29,54.7l-36.33,59.65l-11.15,18.28l-11.15-18.42l-35.03-57.59
								c-0.29-1.51-1.16-2.75-2.32-3.71l-31.99-52.64c-16.94-27.62-16.79-60.61,0-88.23c16.94-27.76,47.05-44.25,80.63-44.25
								C783.2,364.26,813.31,380.61,830.1,408.1z M813.02,449.61c0-33.4-28.66-60.61-63.84-60.61c-35.18,0-63.84,27.21-63.84,60.61
								s28.66,60.61,63.84,60.61C784.36,510.22,813.02,483,813.02,449.61z"/>
							
								<linearGradient id="SVGID_00000013174837981559547120000004103102060580717474_" gradientUnits="userSpaceOnUse" x1="673.7618" y1="642.7756" x2="824.8872" y2="642.7756">
								<stop  offset="0" style="stop-color:#B685FF"/>
								<stop  offset="0.0559" style="stop-color:#AD8DFD"/>
								<stop  offset="0.1473" style="stop-color:#94A3F9"/>
								<stop  offset="0.2096" style="stop-color:#80B5F5"/>
								<stop  offset="0.3275" style="stop-color:#6DC6F1"/>
								<stop  offset="0.3279" style="stop-color:#6DC6F1"/>
								<stop  offset="0.4289" style="stop-color:#52DEEC"/>
								<stop  offset="0.559" style="stop-color:#4DDCEB"/>
								<stop  offset="0.6968" style="stop-color:#00BBDC"/>
								<stop  offset="0.9087" style="stop-color:#006577"/>
								<stop  offset="0.9617" style="stop-color:#006374"/>
								<stop  offset="0.9958" style="stop-color:#005B6C"/>
								<stop  offset="1" style="stop-color:#005A6A"/>
							</linearGradient>
							<path fill="url(#SVGID_00000013174837981559547120000004103102060580717474_)" d="M770.46,621.27
								c35.47,3.57,54.43,14.16,54.43,21.03c0,8.93-29.53,21.99-75.56,21.99s-75.56-12.92-75.56-21.99
								c0-7.01,18.82-17.87,54.57-21.03l15.05,24.74c1.16,1.92,3.47,3.3,6.08,3.3c2.46,0,4.78-1.37,5.94-3.3L770.46,621.27z"/>
							
								<linearGradient id="SVGID_00000088133440745973337030000004554640017032685441_" gradientUnits="userSpaceOnUse" x1="699.5126" y1="449.5964" x2="798.8429" y2="449.5964">
								<stop  offset="0" style="stop-color:#B685FF"/>
								<stop  offset="0.0559" style="stop-color:#AD8DFD"/>
								<stop  offset="0.1473" style="stop-color:#94A3F9"/>
								<stop  offset="0.2096" style="stop-color:#80B5F5"/>
								<stop  offset="0.3275" style="stop-color:#6DC6F1"/>
								<stop  offset="0.3279" style="stop-color:#6DC6F1"/>
								<stop  offset="0.4289" style="stop-color:#52DEEC"/>
								<stop  offset="0.559" style="stop-color:#4DDCEB"/>
								<stop  offset="0.6968" style="stop-color:#00BBDC"/>
								<stop  offset="0.9087" style="stop-color:#006577"/>
								<stop  offset="0.9617" style="stop-color:#006374"/>
								<stop  offset="0.9958" style="stop-color:#005B6C"/>
								<stop  offset="1" style="stop-color:#005A6A"/>
							</linearGradient>
							
								<ellipse fill="url(#SVGID_00000088133440745973337030000004554640017032685441_)" cx="749.18" cy="449.6" rx="49.65" ry="47.14"/>
							
								<linearGradient id="SVGID_00000071524441174201770310000013528676581160476801_" gradientUnits="userSpaceOnUse" x1="452.864" y1="401.2982" x2="1046.6536" y2="401.2982">
								<stop  offset="0" style="stop-color:#B685FF"/>
								<stop  offset="0.0559" style="stop-color:#AD8DFD"/>
								<stop  offset="0.1473" style="stop-color:#94A3F9"/>
								<stop  offset="0.2096" style="stop-color:#80B5F5"/>
								<stop  offset="0.3275" style="stop-color:#6DC6F1"/>
								<stop  offset="0.3279" style="stop-color:#6DC6F1"/>
								<stop  offset="0.4289" style="stop-color:#52DEEC"/>
								<stop  offset="0.559" style="stop-color:#4DDCEB"/>
								<stop  offset="0.6968" style="stop-color:#00BBDC"/>
								<stop  offset="0.9087" style="stop-color:#006577"/>
								<stop  offset="0.9617" style="stop-color:#006374"/>
								<stop  offset="0.9958" style="stop-color:#005B6C"/>
								<stop  offset="1" style="stop-color:#005A6A"/>
							</linearGradient>
							<path display="none" fill="url(#SVGID_00000071524441174201770310000013528676581160476801_)" d="M970.22,402.47
								c42.12,0,76.43,32.57,76.43,72.57s-34.31,72.57-76.43,72.57H815.33l26.92-44.12c19.4-31.89,19.25-69.96-0.14-101.84
								c-19.4-31.89-53.99-50.85-92.64-50.85s-73.54,18.97-92.79,50.85c-19.25,31.89-19.25,69.82,0,101.7l26.92,44.25H529.3
								c-42.12,0-76.43-32.44-76.43-72.57s34.31-72.7,76.43-72.7c1.88,0,3.76-0.82,5.07-2.06c1.3-1.24,2.03-3.16,1.88-4.95
								c-1.16-24.33,7.38-46.87,24.03-63.22c16.07-16.08,38.79-25.29,62.25-25.29c13.03,0,25.91,2.75,37.06,7.97
								c1.88,0.82,4.05,0.96,5.93,0.14s3.33-2.34,3.91-4.12c11-33.26,43.43-55.8,80.34-55.8s69.19,22.54,80.34,56.07
								c0.58,1.79,2.03,3.3,3.91,4.12c1.88,0.82,4.05,0.82,5.93-0.14c11.29-5.22,23.88-7.97,37.06-7.97
								c23.45,0,46.18,9.07,62.25,25.15c16.5,16.36,25.04,38.89,24.03,63.22c-0.14,1.79,0.58,3.57,1.88,4.95
								C966.46,401.78,968.34,402.47,970.22,402.47z"/>
						</g>
					</g>
				</g>
			</g>
		</g>
	</g>
</g>
</svg>
