<?xml version="1.0" encoding="UTF-8"?><svg xmlns="http://www.w3.org/2000/svg" viewBox="0 0 1280 720"><g style="isolation:isolate;"><g id="Lines"><g><g style="mix-blend-mode:multiply;"><polygon points="361.04 358.82 60 185.63 60 187.93 360.04 360.55 361.04 358.82" style="fill:#ebf1f7;"/><path d="M220,471.83c2.77,0,5.53-.71,8-2.14l133.04-76.81-1-1.73-133.04,76.81c-4.32,2.49-9.68,2.49-14,0L60,379.63v2.31l152,87.76c2.47,1.42,5.23,2.14,8,2.14Z" style="fill:#ebf1f7;"/><polygon points="416.5 294 60 88.18 60 90.49 415.5 295.74 416.5 294" style="fill:#ebf1f7;"/><path d="M601,241.64c1.88,1.08,3,3.03,3,5.2s-1.12,4.11-3,5.2l-156.96,90.62,1,1.73,156.96-90.62c2.5-1.45,4-4.04,4-6.93s-1.5-5.48-4-6.93L264.72,45.18h-4l340.27,196.46Z" style="fill:#ebf1f7;"/><polygon points="473.04 360.55 1019.28 45.18 1015.27 45.18 472.04 358.82 473.04 360.55" style="fill:#ebf1f7;"/><polygon points="416.5 425.53 415.5 423.8 60 629.04 60 631.35 416.5 425.53" style="fill:#ebf1f7;"/><path d="M1220,596.71L676,282.63c-4.94-2.85-11.07-2.85-16,0l-160.5,92.66,1,1.73,160.5-92.66c4.32-2.49,9.68-2.49,14,0l545,314.66v-2.31Z" style="fill:#ebf1f7;"/><polygon points="379.09 414.12 378.09 412.39 60 596.73 60 599.04 379.09 414.12" style="fill:#ebf1f7;"/><polygon points="473.07 391.13 472.07 392.86 959.29 674.82 963.28 674.82 473.07 391.13" style="fill:#ebf1f7;"/><polygon points="850.85 674.37 426.35 429.61 425.36 431.34 847.62 674.82 850.59 674.82 850.85 674.37" style="fill:#ebf1f7;"/></g><g style="mix-blend-mode:multiply;"><polygon points="361.16 373.6 60 200.34 60 203.22 359.91 375.77 361.16 373.6" style="fill:#f7f9fc;"/><polygon points="416.62 308.79 60 102.89 60 105.78 415.37 310.95 416.62 308.79" style="fill:#f7f9fc;"/><path d="M220,487.08c2.81,0,5.62-.72,8.12-2.17l133.04-76.81-1.25-2.17-133.04,76.81c-4.24,2.45-9.51,2.45-13.75,0L60,394.34v2.89l151.87,87.68c2.51,1.45,5.32,2.17,8.12,2.17Z" style="fill:#f7f9fc;"/><path d="M600.87,256.86c1.8,1.04,2.87,2.9,2.87,4.98s-1.07,3.94-2.87,4.98l-156.96,90.62,1.25,2.17,156.96-90.62c2.58-1.49,4.12-4.16,4.12-7.14s-1.54-5.65-4.12-7.14L239.24,45.18h-5l366.63,211.68Z" style="fill:#f7f9fc;"/><polygon points="473.17 375.77 1045.76 45.18 1040.76 45.18 471.92 373.6 473.17 375.77" style="fill:#f7f9fc;"/><path d="M1220,611.42L676.12,297.42c-5.01-2.89-11.24-2.89-16.25,0l-160.5,92.66,1.25,2.17,160.5-92.66c4.24-2.45,9.51-2.45,13.75,0l545.13,314.73v-2.89Z" style="fill:#f7f9fc;"/><polygon points="473.2 405.92 471.95 408.08 932.87 674.82 937.86 674.82 473.2 405.92" style="fill:#f7f9fc;"/><polygon points="416.62 440.75 415.37 438.58 60 643.76 60 646.64 416.62 440.75" style="fill:#f7f9fc;"/><polygon points="426.48 444.39 425.23 446.56 821.11 674.82 826.11 674.82 426.48 444.39" style="fill:#f7f9fc;"/><polygon points="379.21 429.34 377.96 427.18 60 611.44 60 614.33 379.21 429.34" style="fill:#f7f9fc;"/></g></g></g></g></svg>